<svg width="327" height="339" viewBox="0 0 327 339" fill="none" xmlns="http://www.w3.org/2000/svg">
<path d="M12.4695 260.235H108.662L111.755 199.198H9.37598L12.4695 260.235Z" fill="#EBEBEB"/>
<path d="M101.611 227.115H16.907L15.7432 205.926H102.97L101.611 227.115ZM17.6128 226.364H100.905L102.174 206.677H16.5241L17.6128 226.364Z" fill="#DBDBDB"/>
<path d="M100.462 251.518H19.3698L18.4087 232.371H101.656L100.462 251.518ZM20.0456 250.767H99.7563L100.86 233.122H19.1595L20.0456 250.767Z" fill="#DBDBDB"/>
<path d="M68.9938 218.856H51.0409L50.3801 213.742H69.6546L68.9938 218.856ZM51.7242 218.105H68.3406L68.8061 214.493H51.2361L51.7242 218.105Z" fill="#DBDBDB"/>
<path d="M68.9938 244.505H51.0409L50.3801 239.399H69.6546L68.9938 244.505ZM51.7242 243.754H68.3406L68.8061 240.15H51.2361L51.7242 243.754Z" fill="#DBDBDB"/>
<path d="M25.8121 260.235L24.881 266.88L22.9964 280.245H19.3247V260.235H25.8121Z" fill="#EBEBEB"/>
<path d="M25.8121 260.235L24.881 266.88H19.3247V260.235H25.8121Z" fill="#DBDBDB"/>
<path d="M95.3262 260.235L96.2572 266.88L98.1344 280.245H101.806V260.235H95.3262Z" fill="#EBEBEB"/>
<path d="M95.3262 260.235L96.2572 266.88H101.806V260.235H95.3262Z" fill="#DBDBDB"/>
<path d="M197.368 21.5083H161.912V70.2538H197.368V21.5083Z" fill="#EBEBEB"/>
<path d="M236.818 21.5083H201.362V70.2538H236.818V21.5083Z" fill="#EBEBEB"/>
<path d="M197.368 74.2484H161.912V122.994H197.368V74.2484Z" fill="#EBEBEB"/>
<path d="M236.817 74.2484H201.362V122.994H236.817V74.2484Z" fill="#EBEBEB"/>
<path d="M278.768 21.5083H243.312V70.2538H278.768V21.5083Z" fill="#EBEBEB"/>
<path d="M318.218 21.5083H282.762V70.2538H318.218V21.5083Z" fill="#EBEBEB"/>
<path d="M278.768 74.2484H243.312V122.994H278.768V74.2484Z" fill="#EBEBEB"/>
<path d="M318.218 74.2484H282.762V122.994H318.218V74.2484Z" fill="#EBEBEB"/>
<path d="M286.179 333.797C305.395 333.797 320.973 330.132 320.973 325.612C320.973 321.092 305.395 317.428 286.179 317.428C266.962 317.428 251.384 321.092 251.384 325.612C251.384 330.132 266.962 333.797 286.179 333.797Z" fill="#EBEBEB"/>
<path d="M172.319 319.478C238.976 319.478 293.011 312.684 293.011 304.303C293.011 295.922 238.976 289.128 172.319 289.128C105.662 289.128 51.6265 295.922 51.6265 304.303C51.6265 312.684 105.662 319.478 172.319 319.478Z" fill="#EBEBEB"/>
<path d="M156.716 339C223.373 339 277.409 332.206 277.409 323.825C277.409 315.444 223.373 308.65 156.716 308.65C90.0595 308.65 36.0237 315.444 36.0237 323.825C36.0237 332.206 90.0595 339 156.716 339Z" fill="#EBEBEB"/>
<path d="M5.22363 280.245L43.2469 280.058L81.2703 279.997L157.317 279.87L233.363 279.997L271.387 280.058L309.41 280.245L271.387 280.425L233.363 280.493L157.317 280.621L81.2703 280.493L43.2469 280.425L5.22363 280.245Z" fill="#263238"/>
<path d="M156.843 91.889C162.722 51.2415 134.537 13.5242 93.889 7.64509C53.2415 1.76597 15.5242 29.9513 9.6451 70.5988C3.76597 111.246 31.9513 148.964 72.5989 154.843C113.246 160.722 150.964 132.537 156.843 91.889Z" fill="#10B981"/>
<path opacity="0.1" d="M157.53 86.0735C159.281 46.9248 128.963 13.7696 89.8146 12.0192C50.6659 10.2689 17.5107 40.5862 15.7603 79.735C14.01 118.884 44.3274 152.039 83.4761 153.789C122.625 155.54 155.78 125.222 157.53 86.0735Z" fill="black"/>
<path d="M153.025 86.5321C155.023 49.8744 126.926 18.5376 90.2686 16.5394C53.6108 14.5413 22.2741 42.6384 20.2759 79.2962C18.2778 115.954 46.3749 147.291 83.0326 149.289C119.69 151.287 151.027 123.19 153.025 86.5321Z" fill="white"/>
<path d="M151.618 68.7971C121.344 87.1405 71.5919 117.227 43.7877 133.724C35.927 127.095 29.7099 118.734 25.6245 109.298L117.589 24.0612C126.182 28.5839 133.68 34.9321 139.558 42.6602C145.437 50.3884 149.553 59.3094 151.618 68.7971Z" fill="#EBEBEB"/>
<path d="M153.075 85.2034C152.834 92.5996 151.349 99.9025 148.682 106.805L65.7726 146.023C62.1592 144.828 58.6569 143.321 55.3057 141.518C80.3467 127.064 126.111 100.731 153.075 85.2034Z" fill="#EBEBEB"/>
<path d="M87.292 21.2605H86.0081V31.3369H87.292V21.2605Z" fill="#C7C7C7"/>
<path d="M56.3807 29.1907L55.2688 29.8327L60.307 38.5592L61.419 37.9172L56.3807 29.1907Z" fill="#C7C7C7"/>
<path d="M33.5724 51.5167L32.9304 52.6286L41.6569 57.6668L42.2989 56.5549L33.5724 51.5167Z" fill="#C7C7C7"/>
<path d="M35.0777 82.2674H25.0012V83.5514H35.0777V82.2674Z" fill="#C7C7C7"/>
<path d="M41.6584 108.142L32.9319 113.18L33.5739 114.292L42.3004 109.254L41.6584 108.142Z" fill="#C7C7C7"/>
<path d="M60.3044 127.252L55.2708 135.981L56.383 136.622L61.4167 127.893L60.3044 127.252Z" fill="#C7C7C7"/>
<path d="M87.292 134.482H86.0081V144.558H87.292V134.482Z" fill="#C7C7C7"/>
<path d="M112.991 127.252L111.879 127.894L116.918 136.62L118.03 135.978L112.991 127.252Z" fill="#C7C7C7"/>
<path d="M131.629 108.128L130.987 109.24L139.714 114.278L140.356 113.166L131.629 108.128Z" fill="#C7C7C7"/>
<path d="M148.299 82.2674H138.223V83.5514H148.299V82.2674Z" fill="#C7C7C7"/>
<path d="M139.72 51.5388L130.993 56.5771L131.635 57.689L140.362 52.6508L139.72 51.5388Z" fill="#C7C7C7"/>
<path d="M116.921 29.2011L111.887 37.9303L112.999 38.5717L118.033 29.8425L116.921 29.2011Z" fill="#C7C7C7"/>
<path d="M87.6151 25.8181L89.8001 87.3958L83.4929 87.3132L85.9032 25.8031L87.6151 25.8181Z" fill="#10B981"/>
<path d="M125.969 61.4312L84.5441 87.8764L81.5332 82.3351L125.15 59.9295L125.969 61.4312Z" fill="#263238"/>
<path d="M86.6464 85.0606C87.8366 85.0606 88.8014 84.0958 88.8014 82.9057C88.8014 81.7155 87.8366 80.7507 86.6464 80.7507C85.4563 80.7507 84.4915 81.7155 84.4915 82.9057C84.4915 84.0958 85.4563 85.0606 86.6464 85.0606Z" fill="#10B981"/>
<path d="M232.185 218.645C236.052 220.575 239.874 222.58 243.688 224.592C247.502 226.604 251.294 228.669 255.101 230.712C258.908 232.754 262.67 234.864 266.431 236.981L272.063 240.172C273.925 241.261 275.817 242.327 277.657 243.438C275.719 242.477 273.812 241.479 271.883 240.495L266.154 237.492C262.332 235.479 258.547 233.407 254.741 231.372C250.934 229.337 247.179 227.213 243.418 225.095C239.656 222.978 235.902 220.845 232.185 218.645Z" fill="#A6A6A6"/>
<path d="M274.45 218.645C271.004 220.628 267.512 222.542 264.021 224.449C260.53 226.357 257.008 228.204 253.509 230.073C250.01 231.943 246.459 233.745 242.907 235.547L237.576 238.228C235.789 239.091 234.009 239.985 232.207 240.833C233.927 239.834 235.676 238.881 237.403 237.897L242.659 235.029C246.158 233.129 249.68 231.275 253.171 229.405C256.663 227.535 260.229 225.733 263.773 223.939C267.317 222.144 270.854 220.357 274.45 218.645Z" fill="#A6A6A6"/>
<path d="M189.266 218.645C193.133 220.575 196.955 222.58 200.769 224.592C204.583 226.604 208.375 228.669 212.182 230.712C215.989 232.754 219.751 234.864 223.505 236.981L229.144 240.172C231.006 241.261 232.898 242.327 234.738 243.438C232.8 242.477 230.893 241.479 228.964 240.495L223.235 237.492C219.413 235.479 215.628 233.407 211.822 231.372C208.015 229.337 204.253 227.213 200.499 225.095C196.744 222.978 192.983 220.845 189.266 218.645Z" fill="#A6A6A6"/>
<path d="M231.524 218.645C228.078 220.628 224.586 222.542 221.095 224.449C217.603 226.357 214.074 228.204 210.583 230.073C207.091 231.943 203.532 233.745 199.981 235.547L194.65 238.228C192.863 239.091 191.083 239.985 189.281 240.833C191 239.834 192.75 238.881 194.477 237.897L199.733 235.029C203.232 233.129 206.753 231.275 210.245 229.405C213.736 227.535 217.303 225.733 220.847 223.939C224.391 222.144 227.935 220.357 231.524 218.645Z" fill="#A6A6A6"/>
<path d="M197.112 212.706L194.837 226.342L179.437 309.529H176.952L188.154 226.342L189.806 212.706H197.112Z" fill="#A6A6A6"/>
<path d="M189.807 212.706H197.112L194.837 226.342H188.155L189.807 212.706Z" fill="#263238"/>
<path d="M245.49 309.529H243.005L227.605 226.342L225.33 212.706H232.635L234.287 226.342L245.49 309.529Z" fill="#A6A6A6"/>
<path d="M232.635 212.706L234.287 226.342H227.605L225.33 212.706H232.635Z" fill="#263238"/>
<path d="M291.698 309.529H289.212L273.805 226.342L271.53 212.706H278.836L280.495 226.342L291.698 309.529Z" fill="#A6A6A6"/>
<path d="M280.495 226.342H273.805L271.53 212.706H278.836L280.495 226.342Z" fill="#263238"/>
<path d="M287.755 219.111H174.879V207.217H217.13L231.336 115.801H283.453L287.755 219.111Z" fill="#A6A6A6"/>
<path d="M287.756 219.111H281.606L277.596 115.801H283.453L287.756 219.111Z" fill="#DBDBDB"/>
<path d="M209.343 142.058C214.81 147.081 223.167 148.065 230.255 147.472C237.485 146.856 245.437 144.964 251.406 140.661C254.1 138.811 256.227 136.247 257.548 133.258C258.877 130.029 258.622 126.891 256.287 124.405C254.41 122.401 250.806 121.312 250.49 119.262C250.175 117.212 251.587 115.343 251.752 113.308C252.022 109.824 249.837 107.579 247.171 105.747C240.857 101.399 241.322 94.3336 236.945 88.4019C234.459 85.0305 227.972 79.0913 218.669 83.6565C215.125 85.3909 213.098 89.1903 212.122 92.952C210.973 97.3746 213.068 102.646 211.498 106.971C210.154 110.657 207.511 111.611 206.242 115.455C205.709 117.122 205.612 118.984 207.804 122.393C208.6 123.624 209.539 125.547 209.231 127.199C208.803 129.496 206.393 130.885 205.897 133.288C205.244 136.592 206.933 139.843 209.343 142.058Z" fill="#263238"/>
<path d="M255.499 134.452C258.772 133.386 259.501 128.498 257 126.44C255.424 125.134 253.299 124.743 251.744 123.437C249.146 121.297 250.791 118.759 251.617 116.146C253.411 110.477 249.319 107.459 245.069 104.778C241.841 102.736 240.834 99.9951 240.091 96.376C240.091 96.3235 240.166 96.3009 240.181 96.376C240.857 99.019 241.63 101.594 243.808 103.412C245.58 104.913 247.765 105.747 249.499 107.293C252.405 109.884 253.193 113.06 251.985 116.709C251.639 117.76 250.866 119.007 250.828 120.103C250.746 122.678 252.811 123.685 254.77 124.608C256.272 125.359 257.946 126.17 258.712 127.762C259.876 130.172 258.157 133.956 255.604 134.625C255.446 134.685 255.371 134.497 255.499 134.452Z" fill="#263238"/>
<path d="M254.072 137.29C255.934 135.713 257.991 134.234 258.862 131.846C260.146 128.317 257.533 126.215 255.108 124.233C254.057 123.384 253.156 122.513 252.983 121.109C252.735 119.014 253.967 117.025 253.899 114.915C253.727 109.884 248.433 107.646 245.437 104.403C242.441 101.159 240.932 96.8941 239.325 92.7419C239.325 92.6518 239.43 92.5993 239.46 92.6894C241.503 97.9454 243.898 102.856 248.381 106.475C251.512 108.998 254.853 111.731 254.275 116.184C254.132 117.272 253.667 118.324 253.524 119.405C253.291 121.567 254.057 122.821 255.641 124.098C257.226 125.374 258.908 126.545 259.463 128.528C260.552 132.38 257.075 135.593 254.275 137.575C254.237 137.59 254.196 137.592 254.157 137.581C254.119 137.569 254.085 137.545 254.061 137.512C254.038 137.479 254.026 137.44 254.028 137.399C254.03 137.359 254.046 137.321 254.072 137.29Z" fill="#263238"/>
<path d="M204.839 132.192C206.108 129.541 208.593 127.927 207.309 124.638C206.445 122.386 204.876 120.704 204.936 118.143C205.085 116.078 205.935 114.125 207.346 112.61C209.021 110.567 210.951 108.855 212.009 106.355C213.158 103.652 213.391 100.671 213.654 97.7876C213.654 97.7276 213.751 97.7351 213.751 97.7876C213.616 101.67 213.331 105.679 210.973 108.96C209.742 110.665 208.135 112.076 206.926 113.796C204.749 116.897 205.259 119.803 206.926 122.956C207.677 124.405 208.428 125.862 207.985 127.537C207.542 129.211 206.243 130.42 205.432 131.891C201.993 138.154 209.877 144.055 215.583 144.145C215.839 144.145 215.876 144.543 215.583 144.543C211.334 144.603 206.31 141.54 204.703 137.59C204.347 136.731 204.175 135.807 204.198 134.877C204.221 133.947 204.439 133.032 204.839 132.192Z" fill="#263238"/>
<path d="M205.522 135.128C205.146 132.635 206.445 131.005 207.301 128.865C208.645 125.494 206.205 122.806 205.424 119.615C205.195 118.565 205.177 117.479 205.372 116.422C205.566 115.365 205.97 114.357 206.558 113.458C208.06 110.935 210.147 108.953 211.236 106.167C212.371 103.176 212.606 99.919 211.911 96.7964C211.911 96.7364 211.987 96.7364 212.002 96.7964C212.561 98.891 212.676 101.079 212.338 103.221C212.001 105.363 211.218 107.41 210.042 109.231C208.54 111.551 206.288 113.616 205.709 116.484C205.094 119.487 206.971 121.89 207.842 124.668C208.116 125.483 208.224 126.345 208.16 127.203C208.095 128.06 207.86 128.896 207.466 129.661C206.783 130.8 206.277 132.035 205.965 133.326C205.795 135.192 206.302 137.057 207.391 138.582C210.507 143.41 216.507 145.752 221.83 145.715C222.018 145.715 222.056 146.015 221.83 146.015C219.418 146.066 217.02 145.639 214.774 144.759C212.528 143.879 210.478 142.563 208.743 140.887C207.079 139.362 205.949 137.343 205.522 135.128Z" fill="#263238"/>
<path d="M171.808 309.814C173.813 310.505 231.284 310.91 233.484 309.544C234.317 309.033 235.924 286.042 235.451 283.797C233.859 276.176 226.253 253.08 226.253 253.08L187.809 252.697L198.066 283.429L198.193 290.187C198.193 290.187 176.088 299.843 173.836 301.607C171.583 303.372 169.803 309.131 171.808 309.814Z" fill="#DD6A57"/>
<path d="M171.628 309.897C173.648 310.588 231.434 311.001 233.649 309.627C234.678 308.988 235.278 296.704 235.631 283.73L198.043 283.354L198.163 290.112C198.163 290.112 175.968 299.873 173.701 301.622C171.433 303.372 169.616 309.206 171.628 309.897Z" fill="#10B981"/>
<path d="M172.477 307.592C182.163 307.426 221.282 307.659 230.856 308.23C230.931 308.23 230.931 308.282 230.856 308.29C221.252 308.665 182.163 308.117 172.477 307.749C172.274 307.742 172.274 307.592 172.477 307.592Z" fill="#263238"/>
<path d="M196.812 287.972C200.634 287.289 205.289 287.904 208.18 290.645C208.292 290.75 208.142 290.908 208.022 290.87C204.388 289.664 200.635 288.854 196.827 288.452C196.763 288.454 196.701 288.431 196.655 288.387C196.608 288.344 196.581 288.283 196.579 288.22C196.577 288.156 196.6 288.094 196.644 288.048C196.688 288.001 196.748 287.974 196.812 287.972Z" fill="#263238"/>
<path d="M194.049 289.609C197.863 288.925 202.526 289.541 205.417 292.282C205.529 292.387 205.379 292.544 205.251 292.507C201.619 291.304 197.868 290.493 194.064 290.089C194 290.091 193.938 290.068 193.891 290.024C193.845 289.98 193.818 289.92 193.816 289.856C193.814 289.793 193.837 289.731 193.881 289.684C193.925 289.638 193.985 289.611 194.049 289.609Z" fill="#263238"/>
<path d="M191.285 291.246C195.1 290.562 199.763 291.185 202.653 293.919C202.766 294.024 202.616 294.181 202.488 294.144C198.856 292.943 195.105 292.135 191.3 291.734C191.243 291.725 191.19 291.697 191.151 291.654C191.112 291.61 191.089 291.554 191.088 291.496C191.086 291.438 191.105 291.38 191.141 291.335C191.177 291.289 191.228 291.257 191.285 291.246Z" fill="#263238"/>
<path d="M188.522 292.89C192.337 292.199 197 292.822 199.89 295.555C200.003 295.668 199.853 295.826 199.725 295.781C196.093 294.58 192.342 293.772 188.537 293.37C188.474 293.372 188.412 293.349 188.365 293.305C188.319 293.262 188.292 293.201 188.29 293.138C188.288 293.074 188.311 293.012 188.355 292.966C188.398 292.919 188.459 292.892 188.522 292.89Z" fill="#263238"/>
<path d="M191.503 284.548C194.184 286.665 197.69 287.551 200.829 288.73C201.152 288.858 201.415 288.55 201.43 288.257C201.446 288.257 201.462 288.253 201.476 288.246C201.49 288.238 201.502 288.227 201.511 288.214C201.52 288.2 201.525 288.185 201.527 288.169C201.528 288.153 201.526 288.137 201.52 288.122C200.39 284.739 198.388 281.714 195.716 279.352C194.131 278.001 191.346 277.054 189.836 279.104C188.327 281.154 189.942 283.309 191.503 284.548ZM190.557 281.469C189.912 277.287 194.387 279.51 195.513 280.553C196.233 281.238 196.903 281.973 197.518 282.753C198.773 284.374 199.943 286.058 201.024 287.799C199.523 287.123 197.968 286.583 196.437 285.96C194.612 285.216 190.91 283.782 190.557 281.469Z" fill="#263238"/>
<path d="M214.292 282.408C213.383 280.02 210.447 280.155 208.563 281.056C205.355 282.613 202.613 284.985 200.611 287.934C200.602 287.947 200.596 287.962 200.593 287.977C200.591 287.993 200.592 288.009 200.596 288.024C200.6 288.039 200.608 288.053 200.618 288.065C200.629 288.077 200.642 288.086 200.656 288.092C200.635 288.163 200.631 288.239 200.644 288.312C200.657 288.385 200.687 288.454 200.732 288.514C200.776 288.574 200.834 288.622 200.9 288.656C200.967 288.689 201.04 288.707 201.114 288.708C204.456 288.407 208.067 288.497 211.221 287.206C213.06 286.433 215.133 284.661 214.292 282.408ZM206.122 287.228C204.486 287.416 202.841 287.521 201.212 287.769C202.721 286.383 204.3 285.075 205.942 283.85C206.748 283.269 207.59 282.742 208.465 282.273C209.832 281.574 214.742 280.628 212.97 284.525C211.994 286.62 208.045 287.003 206.122 287.228Z" fill="#263238"/>
<path d="M261.603 195.879C254.553 202.885 244.731 207.307 236.374 211.647C229.196 215.342 223.107 218.946 220.802 224.022C218.782 228.527 235.541 277.94 235.541 277.94L194.86 281.62C194.86 281.62 177.162 233.265 181.592 212.451C182.343 209.034 185.729 204.612 190.602 199.784C208.014 182.589 244.116 160.244 244.116 160.244H266.288C266.288 160.244 275.486 182.064 261.603 195.879Z" fill="#455A64"/>
<path d="M263.788 165.072C263.698 164.066 263.593 163.059 263.495 162.068C263.495 161.971 263.33 161.971 263.345 162.068C264.261 170.147 265.02 179.008 261.213 186.509C257.549 193.717 250.205 198.057 243.665 202.337L231.802 210.221L225.855 214.14C224.225 215.167 222.648 216.277 221.132 217.466C219.748 218.537 218.579 219.859 217.686 221.363C216.77 223.066 216.378 225.002 216.559 226.927C217.528 239.917 230.39 274.321 230.69 275.432C230.713 275.482 230.752 275.522 230.802 275.545C230.852 275.568 230.908 275.572 230.96 275.556C231.013 275.541 231.058 275.506 231.087 275.46C231.116 275.414 231.127 275.359 231.118 275.305C228.325 266.64 220.794 247.358 217.423 229.968C216.995 227.716 216.672 225.38 217.37 223.165C217.987 221.403 219.053 219.831 220.464 218.608C221.839 217.386 223.313 216.281 224.871 215.304L230.878 211.309L242.659 203.523C249.094 199.266 256.347 195.136 260.529 188.408C264.922 181.41 264.501 172.956 263.788 165.072Z" fill="#263238"/>
<path d="M261.603 195.879C254.553 202.885 244.731 207.307 236.374 211.647C221.605 207.773 202.954 202.93 190.572 199.814C207.985 182.619 244.086 160.274 244.086 160.274H266.258C266.258 160.274 275.486 182.064 261.603 195.879Z" fill="#263238"/>
<path d="M96.4976 280.704C98.2095 281.95 152.954 299.437 155.462 298.784C156.416 298.544 159.427 290.72 162.798 281.162C163.549 279.097 164.3 276.964 165.006 274.787C169.819 260.686 174.594 245.609 174.594 245.609L138.005 233.805L129.415 263.306L127.53 269.786C127.53 269.786 103.571 272.467 100.898 273.48C98.2245 274.494 94.7856 279.45 96.4976 280.704Z" fill="#DD6A57"/>
<path d="M96.3023 280.726C98.0217 281.988 153.074 299.565 155.62 298.912C156.784 298.612 161.011 287.056 165.216 274.779L129.43 263.239L127.53 269.749C127.53 269.749 103.443 272.444 100.755 273.458C98.0668 274.472 94.5828 279.472 96.3023 280.726Z" fill="#10B981"/>
<path d="M97.7966 278.774C107.092 281.499 144.35 293.348 153.36 296.749C153.435 296.749 153.42 296.824 153.36 296.802C144.079 294.309 106.919 282.153 97.7966 278.931C97.5488 278.856 97.5938 278.721 97.7966 278.774Z" fill="#263238"/>
<path d="M126.862 267.286C130.714 267.766 134.979 269.741 136.924 273.218C136.999 273.353 136.811 273.458 136.698 273.383C133.587 271.154 130.247 269.264 126.734 267.744C126.682 267.72 126.639 267.679 126.615 267.627C126.59 267.575 126.585 267.515 126.6 267.46C126.616 267.404 126.651 267.356 126.699 267.324C126.747 267.292 126.805 267.279 126.862 267.286Z" fill="#263238"/>
<path d="M123.738 268.029C127.583 268.51 131.848 270.484 133.8 273.961C133.875 274.089 133.68 274.194 133.575 274.126C130.462 271.896 127.119 270.006 123.603 268.487C123.549 268.464 123.505 268.422 123.479 268.369C123.454 268.315 123.449 268.254 123.466 268.198C123.483 268.141 123.52 268.093 123.57 268.061C123.62 268.03 123.68 268.019 123.738 268.029Z" fill="#263238"/>
<path d="M120.615 268.765C124.459 269.253 128.724 271.228 130.669 274.697C130.752 274.832 130.556 274.937 130.451 274.862C127.336 272.637 123.994 270.749 120.48 269.23C120.43 269.204 120.391 269.16 120.369 269.108C120.346 269.056 120.343 268.997 120.359 268.943C120.375 268.888 120.409 268.841 120.455 268.809C120.502 268.776 120.558 268.761 120.615 268.765Z" fill="#263238"/>
<path d="M117.521 269.508C121.373 269.989 125.638 271.971 127.583 275.44C127.658 275.575 127.47 275.68 127.358 275.605C124.247 273.378 120.907 271.49 117.394 269.974C117.345 269.947 117.306 269.905 117.284 269.853C117.262 269.802 117.258 269.744 117.273 269.69C117.288 269.636 117.32 269.589 117.365 269.556C117.41 269.523 117.466 269.506 117.521 269.508Z" fill="#263238"/>
<path d="M122.815 262.405C124.745 265.221 127.831 267.105 130.474 269.163C130.536 269.205 130.607 269.232 130.681 269.24C130.755 269.249 130.831 269.24 130.901 269.213C130.971 269.187 131.033 269.144 131.083 269.088C131.133 269.032 131.169 268.965 131.187 268.893C131.203 268.896 131.219 268.896 131.234 268.892C131.25 268.888 131.264 268.881 131.276 268.871C131.289 268.861 131.299 268.848 131.305 268.834C131.312 268.819 131.315 268.803 131.315 268.787C131.237 265.222 130.225 261.74 128.379 258.688C127.268 256.931 124.895 255.197 122.837 256.706C120.78 258.215 121.689 260.791 122.815 262.405ZM122.815 259.184C123.446 254.994 127.057 258.433 127.823 259.785C128.307 260.652 128.729 261.553 129.085 262.48C129.798 264.403 130.415 266.36 130.932 268.344C129.693 267.248 128.371 266.265 127.095 265.221C125.586 263.997 122.477 261.527 122.822 259.214L122.815 259.184Z" fill="#263238"/>
<path d="M145.206 267.166C145.048 264.62 142.202 263.907 140.137 264.162C136.607 264.709 133.282 266.175 130.496 268.412C130.484 268.422 130.474 268.434 130.467 268.449C130.46 268.463 130.456 268.479 130.456 268.495C130.456 268.511 130.46 268.526 130.467 268.541C130.474 268.555 130.484 268.567 130.496 268.577C130.448 268.639 130.415 268.711 130.401 268.789C130.387 268.866 130.393 268.945 130.418 269.02C130.442 269.094 130.485 269.161 130.542 269.215C130.599 269.269 130.668 269.308 130.744 269.328C134.025 270.034 137.449 271.198 140.851 270.882C142.833 270.665 145.348 269.576 145.206 267.166ZM135.94 269.336C134.318 269.02 132.719 268.637 131.089 268.39C132.942 267.512 134.839 266.733 136.773 266.054C137.713 265.738 138.674 265.487 139.649 265.304C141.151 265.041 146.129 265.604 143.313 268.773C141.759 270.507 137.87 269.704 135.94 269.336Z" fill="#263238"/>
<path d="M127.831 259.815L168.377 271.746L180.946 225.471C182.043 210.176 184.798 202.757 193.793 199.942C209.111 195.196 246.534 212.706 263.48 200.963C277.244 191.412 266.266 160.206 266.266 160.206H226.471C226.471 160.206 221.665 166.055 220.779 169.494C220.779 169.494 171.501 165.695 160.47 179.676C145.731 198.447 127.831 259.815 127.831 259.815Z" fill="#455A64"/>
<path d="M200.701 199.273C198.329 199.068 195.94 199.253 193.628 199.821C191.431 200.413 189.385 201.462 187.621 202.9C185.913 204.291 184.529 206.039 183.567 208.021C182.44 210.341 182.065 212.969 181.667 215.529C181.449 217.031 181.307 218.533 181.224 220.034C181.141 221.536 181.081 223.623 181.081 224.907C181.081 225.02 181.231 225.028 181.231 224.907C181.254 223.557 181.366 222.21 181.569 220.875C181.735 219.606 181.96 218.345 182.178 217.084C182.538 214.571 183.124 212.096 183.927 209.688C184.702 207.625 185.895 205.746 187.432 204.167C188.968 202.588 190.814 201.343 192.855 200.512C194.09 200.013 195.381 199.665 196.699 199.476C198.033 199.332 199.376 199.289 200.716 199.348C200.716 199.348 200.731 199.273 200.701 199.273Z" fill="#263238"/>
<path d="M257.744 175.306C256.362 174.993 255.023 174.514 253.757 173.879C252.492 173.3 251.344 172.493 250.37 171.499C249.635 170.537 249.143 169.411 248.936 168.218C248.779 167.572 248.689 166.911 248.583 166.258C248.478 165.605 248.291 164.824 248.238 164.103C248.238 164.013 248.08 164.02 248.088 164.103C248.426 166.821 247.66 169.855 249.687 172.167C250.722 173.22 251.979 174.029 253.366 174.532C254.74 175.134 256.209 175.49 257.706 175.584C257.74 175.582 257.771 175.569 257.795 175.546C257.82 175.524 257.836 175.493 257.84 175.46C257.845 175.427 257.837 175.394 257.82 175.366C257.802 175.337 257.775 175.316 257.744 175.306Z" fill="#263238"/>
<path d="M265.192 169.036C264.832 167.57 264.411 166.123 263.931 164.696C263.931 164.606 263.751 164.644 263.788 164.741C265.734 170.694 266.588 176.949 266.311 183.205C266.276 186.164 265.875 189.107 265.117 191.967C264.39 194.7 262.618 197.038 260.184 198.477C257.672 199.788 254.946 200.64 252.135 200.993C248.983 201.485 245.796 201.709 242.606 201.661C236.112 201.601 229.662 200.722 223.227 199.964C216.987 199.213 210.748 198.365 204.493 197.801C199.372 197.343 193.913 197.291 189.176 199.558C184.67 201.728 181.727 205.866 179.805 210.363C177.642 215.447 176.419 220.928 174.954 226.236C173.212 232.566 164.217 267.083 164.082 268.562C164.082 268.705 164.285 268.697 164.3 268.562C164.615 265.318 172.402 236.771 174.151 230.396L176.786 220.845C177.485 218.3 178.176 215.747 179.039 213.254C180.706 208.501 183.154 203.733 187.486 200.895C192.104 197.892 197.855 197.644 203.194 198.034C206.198 198.244 209.201 198.65 212.204 199.003L222.063 200.174C228.355 200.925 234.655 201.804 240.992 201.999C244.161 202.119 247.334 201.991 250.483 201.616C253.331 201.338 256.128 200.671 258.795 199.634C261.155 198.72 263.139 197.037 264.426 194.858C265.748 192.493 266.198 189.752 266.491 187.102C267.114 181.05 266.674 174.936 265.192 169.036Z" fill="#263238"/>
<path d="M235.991 123.212C230.735 140.481 226.335 153.884 221.245 157C217.137 159.53 191.608 164.246 186.645 164.509C184.685 164.614 183.056 164.674 181.9 164.719C179.046 164.816 174.909 145.842 176.997 143.605C177.477 143.094 179.369 142.741 182.02 142.486C190.933 141.622 208.42 141.863 209.494 140.902C210.567 139.941 216.447 132.597 224.376 123.009C229.842 116.386 234.219 114.517 235.931 116.454C236.907 117.573 237.005 119.878 235.991 123.212Z" fill="#DD6A57"/>
<path d="M186.638 164.539C183.623 165.778 180.53 166.819 177.38 167.655C174.872 168.203 167.618 169.6 166.717 166.904C166.117 165.064 170.292 163.735 173.227 162.737C174.767 162.211 176.726 160.754 176.343 159.733C175.683 157.991 171.703 159.44 169.053 160.754C163.947 163.292 157.039 168.008 154.201 165.312C153.127 164.291 154.561 162.662 156.603 161.1C153.337 162.857 149.891 164.253 148.652 163.165C147.946 162.549 147.961 161.768 148.434 160.912C148.025 161.063 147.582 161.093 147.156 160.997C146.731 160.901 146.343 160.684 146.039 160.371C145.093 159.238 145.694 157.698 146.91 156.159C146.72 156.125 146.541 156.047 146.387 155.931C146.233 155.815 146.108 155.664 146.024 155.491C144.087 152.06 155.5 143.327 159.299 142.689C170.457 140.797 182.08 142.516 182.08 142.516C186.165 146.255 186.653 164.531 186.638 164.539Z" fill="#DD6A57"/>
<path d="M171.155 153.238C168.51 153.45 165.945 154.248 163.647 155.573C160.966 157.165 158.774 159.44 156.273 161.272C156.206 161.325 156.273 161.43 156.348 161.378C157.535 160.424 158.819 159.583 160.035 158.674C161.251 157.766 162.4 156.85 163.654 156.054C165.912 154.569 168.481 153.621 171.163 153.283C171.163 153.283 171.185 153.231 171.155 153.238Z" fill="#263238"/>
<path d="M169.413 148.44C166.433 148.94 163.512 149.742 160.696 150.836C157.692 152.135 155.207 154.425 152.797 156.617C151.355 157.939 149.938 159.29 148.547 160.672C148.487 160.732 148.547 160.829 148.629 160.777C151.077 158.504 153.58 156.307 156.138 154.184C158.529 152.191 161.294 150.692 164.27 149.777C165.967 149.259 167.694 148.868 169.421 148.478L169.413 148.44Z" fill="#263238"/>
<path d="M166.597 144.161C163.759 144.551 161.274 144.911 158.691 146.225C155.274 147.997 151.88 151.143 150.687 152.232C149.373 153.464 148.096 154.74 146.842 156.032C146.79 156.084 146.842 156.174 146.932 156.122C149.8 153.315 152.845 150.694 156.048 148.275C157.56 147.094 159.244 146.152 161.041 145.482C162.856 144.904 164.718 144.482 166.605 144.221C166.605 144.221 166.612 144.161 166.597 144.161Z" fill="#263238"/>
<path d="M237.583 120.328C236.922 125.231 233.191 134.647 233.191 134.647L214.825 132.552C214.825 132.552 224.691 119.923 232.132 115.283C235.12 113.428 238.259 115.373 237.583 120.328Z" fill="#10B981"/>
<path d="M233.348 132.147C230.638 131.659 227.935 131.208 225.202 130.878C223.835 130.713 222.476 130.57 221.109 130.442C219.743 130.315 218.361 130.337 217.002 130.195C216.927 130.195 216.92 130.307 217.002 130.315C218.361 130.382 219.735 130.645 221.094 130.788C222.453 130.93 223.82 131.088 225.187 131.246C227.905 131.569 230.63 131.884 233.348 132.267C233.416 132.274 233.416 132.162 233.348 132.147Z" fill="#263238"/>
<path d="M230.811 121.327C231.584 120.634 232.514 120.139 233.521 119.885C233.139 120.236 232.713 120.533 232.252 120.771C231.798 121.018 231.313 121.204 230.811 121.327ZM228.438 130.014C227.951 129.861 227.446 129.771 226.936 129.744C227.375 130.018 227.85 130.23 228.348 130.375C228.834 130.531 229.339 130.622 229.849 130.645C229.41 130.371 228.935 130.159 228.438 130.014ZM224.638 122.205C224.481 122.692 224.39 123.197 224.368 123.707C224.64 123.267 224.849 122.792 224.991 122.295C225.148 121.809 225.239 121.304 225.262 120.794C224.995 121.236 224.786 121.71 224.638 122.205Z" fill="white"/>
<path d="M237.583 120.328C237.583 120.599 237.508 120.891 237.448 121.177C237.388 121.462 237.358 121.635 237.298 121.883C236.267 126.239 234.894 130.507 233.191 134.647L232.44 134.564L231.727 134.482L225.953 133.821L225.097 133.731L219.338 133.078L218.587 132.988L216.469 132.747L232.102 115.283C235.406 113.991 238.244 115.373 237.583 120.328Z" fill="#263238"/>
<path d="M219.863 169.885C219.863 169.885 237.313 172.58 269.532 167.182C269.532 167.182 253.614 127.702 242.501 117.625C237.456 113.03 232.973 114.149 229.376 117.625C228.483 118.496 217.776 134.565 217.182 139.918C216.664 144.649 220.862 149.514 220.862 149.514L219.863 169.885Z" fill="#10B981"/>
<path d="M251.865 151.173C251.514 150.792 251.216 150.365 250.979 149.904C250.726 149.453 250.539 148.967 250.423 148.463C250.773 148.845 251.071 149.271 251.309 149.732C251.556 150.186 251.742 150.671 251.865 151.173ZM235.962 133.491C235.724 133.029 235.423 132.602 235.068 132.222C235.19 132.724 235.377 133.209 235.624 133.663C235.861 134.124 236.159 134.551 236.51 134.932C236.395 134.429 236.21 133.944 235.962 133.491ZM263.593 164.554C263.353 164.097 263.055 163.673 262.707 163.292C262.829 163.795 263.016 164.279 263.263 164.734C263.5 165.194 263.798 165.621 264.149 166.003C264.028 165.497 263.841 165.01 263.593 164.554ZM231.652 155.446C231.414 154.985 231.116 154.559 230.766 154.177C230.888 154.679 231.075 155.164 231.321 155.618C231.559 156.079 231.857 156.506 232.207 156.887C232.087 156.384 231.9 155.9 231.652 155.446ZM238.755 116.679C238.522 116.216 238.224 115.788 237.869 115.41C238.123 116.417 238.617 117.347 239.31 118.121C239.194 117.615 239.004 117.13 238.747 116.679H238.755ZM240.662 149.311C241.121 149.072 241.548 148.774 241.931 148.425C241.426 148.546 240.938 148.733 240.482 148.981C240.022 149.22 239.596 149.518 239.213 149.867C239.718 149.746 240.205 149.559 240.662 149.311ZM223.708 142.464C224.164 142.224 224.588 141.926 224.969 141.577C224.464 141.693 223.979 141.88 223.527 142.133C223.067 142.371 222.64 142.669 222.258 143.019C222.772 142.9 223.267 142.713 223.73 142.464H223.708ZM232.23 120.771C232.69 120.534 233.117 120.236 233.499 119.885C232.492 120.139 231.562 120.634 230.788 121.327C231.298 121.206 231.791 121.02 232.252 120.771H232.23ZM235.091 166.416C235.558 166.184 235.992 165.891 236.382 165.545C235.375 165.799 234.445 166.293 233.671 166.986C234.175 166.859 234.659 166.667 235.113 166.416H235.091ZM250.018 129.706C250.474 129.467 250.898 129.169 251.279 128.82C250.272 129.074 249.342 129.569 248.568 130.262C249.082 130.143 249.577 129.956 250.04 129.706H250.018ZM255.356 160.416C255.817 160.179 256.243 159.881 256.625 159.53C256.12 159.644 255.634 159.832 255.183 160.086C254.723 160.324 254.296 160.622 253.915 160.972C254.425 160.852 254.917 160.665 255.379 160.416H255.356ZM244.168 157.158C243.682 157.001 243.177 156.91 242.667 156.887C243.106 157.161 243.581 157.374 244.078 157.518C244.566 157.671 245.07 157.762 245.58 157.788C245.148 157.516 244.68 157.304 244.191 157.158H244.168ZM223.054 151.827C222.568 151.67 222.063 151.579 221.553 151.556C221.992 151.83 222.467 152.043 222.964 152.187C223.451 152.34 223.956 152.431 224.466 152.457C224.034 152.185 223.566 151.973 223.077 151.827H223.054ZM244.784 138.199C244.298 138.042 243.793 137.951 243.282 137.928C243.725 138.201 244.202 138.413 244.702 138.559C245.189 138.713 245.693 138.803 246.203 138.829C245.768 138.558 245.298 138.346 244.807 138.199H244.784ZM228.416 130.014C227.928 129.861 227.424 129.771 226.914 129.744C227.353 130.018 227.828 130.23 228.325 130.375C228.812 130.531 229.317 130.622 229.827 130.645C229.395 130.373 228.927 130.161 228.438 130.014H228.416ZM261.07 152.322C260.584 152.165 260.079 152.074 259.568 152.052C260.009 152.323 260.484 152.535 260.98 152.683C261.467 152.835 261.972 152.926 262.482 152.953C262.049 152.681 261.582 152.469 261.093 152.322H261.07ZM255.108 140.196C254.952 140.682 254.861 141.187 254.838 141.698C255.112 141.258 255.324 140.783 255.469 140.286C255.622 139.799 255.713 139.294 255.739 138.784C255.474 139.226 255.27 139.7 255.131 140.196H255.108ZM232.26 144.16C232.103 144.647 232.013 145.152 231.99 145.662C232.264 145.223 232.476 144.748 232.62 144.251C232.774 143.764 232.863 143.259 232.883 142.749C232.622 143.191 232.42 143.666 232.282 144.16H232.26ZM225.209 164.794C225.052 165.28 224.961 165.785 224.939 166.296C225.212 165.853 225.424 165.376 225.57 164.877C225.723 164.389 225.814 163.885 225.84 163.375C225.565 163.817 225.353 164.294 225.209 164.794ZM247.667 166.296C247.511 166.782 247.42 167.287 247.397 167.797C247.669 167.358 247.878 166.883 248.02 166.386C248.177 165.9 248.268 165.394 248.291 164.884C248.025 165.327 247.815 165.801 247.667 166.296ZM242.036 124.691C241.879 125.177 241.788 125.682 241.766 126.192C242.037 125.752 242.249 125.277 242.396 124.781C242.549 124.294 242.64 123.789 242.667 123.279C242.393 123.716 242.181 124.189 242.036 124.683V124.691ZM220.592 134.309C220.434 134.795 220.344 135.3 220.321 135.811C220.594 135.368 220.806 134.891 220.952 134.392C221.109 133.906 221.2 133.401 221.222 132.89C220.95 133.333 220.737 133.81 220.592 134.309Z" fill="white"/>
<path d="M236.787 116.048C236.787 116.949 234.257 123.557 230.337 124.383C229.061 124.661 227.236 117.768 227.236 117.768L226.989 117.287L223.475 110.59L230.405 102.969L231.426 101.932C231.426 101.932 232.267 103.825 233.288 106.197L233.431 106.535C233.491 106.67 233.551 106.79 233.604 106.918C233.761 107.271 233.919 107.669 234.069 107.992C234.219 108.315 234.302 108.54 234.415 108.833C234.527 109.126 234.64 109.411 234.76 109.696C235.58 111.765 236.257 113.887 236.787 116.048Z" fill="#DD6A57"/>
<path d="M233.288 106.227C233.106 108.422 232.449 110.551 231.361 112.467C230.273 114.382 228.781 116.037 226.989 117.317L223.475 110.62L230.405 102.998L231.426 101.962C231.426 101.962 232.267 103.824 233.288 106.227Z" fill="#263238"/>
<path d="M210.493 101.677C211.994 114.862 220.051 115.463 222.897 115.14C225.48 114.84 234.227 113.511 234.107 100.243C233.987 86.9753 227.387 83.4913 221.448 83.8518C215.508 84.2122 209.006 88.4845 210.493 101.677Z" fill="#DD6A57"/>
<path d="M212.129 99.1918C212.43 99.1092 212.7 98.989 212.993 98.8839C213.311 98.8144 213.599 98.6431 213.811 98.3959C213.865 98.3061 213.886 98.201 213.872 98.0975C213.859 97.9941 213.811 97.8981 213.736 97.8252C213.568 97.7027 213.37 97.6276 213.162 97.6078C212.955 97.5879 212.746 97.6241 212.557 97.7126C212.145 97.8298 211.791 98.0978 211.566 98.4634C211.523 98.5494 211.505 98.6459 211.514 98.7417C211.524 98.8375 211.56 98.9287 211.619 99.0048C211.677 99.0809 211.757 99.1389 211.847 99.172C211.937 99.205 212.035 99.2119 212.129 99.1918Z" fill="#263238"/>
<path d="M221.14 97.9678C220.833 97.9643 220.527 97.9417 220.224 97.9003C219.897 97.9205 219.573 97.8335 219.3 97.6525C219.226 97.5789 219.179 97.483 219.166 97.3799C219.152 97.2767 219.173 97.172 219.225 97.0818C219.356 96.9196 219.528 96.7952 219.724 96.7213C219.919 96.6475 220.13 96.6268 220.336 96.6613C220.763 96.6626 221.174 96.8263 221.485 97.1194C221.551 97.1895 221.596 97.2774 221.614 97.3723C221.632 97.4673 221.622 97.5653 221.586 97.6548C221.549 97.7443 221.488 97.8214 221.409 97.8769C221.33 97.9324 221.236 97.964 221.14 97.9678Z" fill="#263238"/>
<path d="M219.465 101.452C219.465 101.452 219.54 101.452 219.548 101.519C219.615 102.42 219.848 103.442 220.696 103.652V103.704C219.683 103.674 219.39 102.315 219.465 101.452Z" fill="#263238"/>
<path d="M220.164 100.423C221.598 100.153 222.033 103.036 220.704 103.284C219.375 103.532 218.962 100.648 220.164 100.423Z" fill="#263238"/>
<path d="M220.749 100.491C221.027 100.611 221.32 100.866 221.627 100.851C221.935 100.836 222.206 100.491 222.378 100.16C222.378 100.16 222.423 100.16 222.431 100.16C222.515 100.418 222.499 100.697 222.384 100.943C222.27 101.188 222.066 101.381 221.815 101.482C221.282 101.64 220.824 101.204 220.599 100.671C220.576 100.603 220.644 100.438 220.749 100.491Z" fill="#263238"/>
<path d="M214.472 102.015C214.472 102.015 214.404 102.068 214.412 102.105C214.585 102.991 214.63 104.035 213.871 104.463C213.871 104.463 213.871 104.515 213.871 104.508C214.847 104.215 214.772 102.826 214.472 102.015Z" fill="#263238"/>
<path d="M213.526 101.204C212.069 101.324 212.422 104.207 213.766 104.11C215.11 104.012 214.742 101.106 213.526 101.204Z" fill="#263238"/>
<path d="M212.948 101.467C212.737 101.655 212.542 101.955 212.272 102.007C212.002 102.06 211.686 101.782 211.446 101.504H211.401C211.453 102.06 211.709 102.616 212.249 102.661C212.79 102.706 213.045 102.18 213.113 101.609C213.128 101.542 213.03 101.399 212.948 101.467Z" fill="#263238"/>
<path d="M216.484 106.054C216.484 106.054 216.484 107.414 216.574 108.044C216.574 108.104 216.74 108.112 216.957 108.097C217.51 108.125 218.061 108 218.547 107.735C219.033 107.469 219.437 107.075 219.713 106.595C219.751 106.528 219.66 106.475 219.608 106.528C218.878 107.186 217.958 107.593 216.98 107.691C216.912 107.519 217.055 105.356 216.98 105.364C216.494 105.472 216.027 105.649 215.591 105.889C215.501 103.051 215.876 100.22 215.748 97.3971C215.748 97.292 215.591 97.2845 215.576 97.3971C215.085 100.417 214.899 103.478 215.02 106.535C215.02 106.85 216.252 106.227 216.484 106.054Z" fill="#263238"/>
<path d="M217.002 107.781C217.424 108.255 217.959 108.614 218.557 108.825C218.884 108.93 219.236 108.93 219.563 108.825C220.314 108.592 220.254 107.924 220.081 107.361C219.986 107.062 219.857 106.775 219.698 106.505C218.959 107.207 218.014 107.654 217.002 107.781Z" fill="#263238"/>
<path d="M218.557 108.825C218.884 108.93 219.236 108.93 219.563 108.825C220.314 108.592 220.254 107.924 220.081 107.361C219.699 107.398 219.341 107.563 219.064 107.828C218.788 108.094 218.609 108.445 218.557 108.825Z" fill="#FF9CBD"/>
<path d="M233.243 101.369C231.802 101.369 227.755 97.72 227.109 90.7821C227.109 90.7821 228.115 96.9767 228.656 97.8552C229.196 98.7337 226.403 95.7828 225.787 90.1964C224.121 91.5961 222.263 92.7492 220.269 93.6203C217.678 94.5589 216.056 94.664 215.854 94.4838C215.651 94.3036 219.45 92.7794 220.411 91.4804C220.411 91.4804 213.654 95.2872 210.395 95.7828C210.027 95.8429 208.983 88.1616 213.751 84.52C218.519 80.8783 226.733 83.7691 229.031 85.6913C229.031 85.6913 231.561 85.8565 234.572 89.363C237.583 92.8695 234.805 101.347 233.243 101.369Z" fill="#263238"/>
<path d="M221.553 105.611C220.448 105.606 219.391 105.162 218.613 104.378C217.834 103.594 217.398 102.534 217.4 101.429C217.403 100.649 217.624 99.8853 218.039 99.2248C218.454 98.5642 219.046 98.0334 219.748 97.6928C220.45 97.3521 221.233 97.2153 222.009 97.2979C222.785 97.3805 223.522 97.6792 224.136 98.16C224.75 98.6408 225.217 99.2844 225.484 100.018C225.751 100.751 225.806 101.544 225.644 102.307C225.482 103.07 225.109 103.772 224.568 104.334C224.026 104.896 223.338 105.294 222.581 105.484C222.245 105.568 221.899 105.611 221.553 105.611ZM217.956 101.429C217.953 102.144 218.162 102.843 218.557 103.439C218.952 104.035 219.514 104.5 220.173 104.776C220.833 105.052 221.559 105.126 222.26 104.989C222.962 104.852 223.607 104.51 224.113 104.006C224.62 103.502 224.966 102.859 225.108 102.159C225.249 101.458 225.18 100.732 224.908 100.071C224.636 99.4099 224.174 98.8444 223.581 98.446C222.988 98.0476 222.29 97.8341 221.575 97.8326C221.276 97.8312 220.978 97.869 220.689 97.9453C219.911 98.1391 219.219 98.587 218.724 99.218C218.229 99.849 217.959 100.627 217.956 101.429Z" fill="#10B981"/>
<path d="M212.82 106.715C211.131 106.933 209.509 105.259 209.216 102.961C209.062 101.933 209.235 100.882 209.712 99.9576C209.892 99.5489 210.175 99.1937 210.533 98.9262C210.891 98.6587 211.312 98.488 211.755 98.4306C212.198 98.3733 212.648 98.4311 213.062 98.5987C213.477 98.7662 213.841 99.0377 214.119 99.387C214.813 100.161 215.249 101.132 215.366 102.165C215.643 104.32 214.615 106.25 213.113 106.67L212.82 106.715ZM210.2 100.22C209.78 101.039 209.628 101.969 209.764 102.878C210.019 104.853 211.364 106.31 212.768 106.13C214.172 105.949 215.08 104.2 214.825 102.225C214.722 101.311 214.339 100.451 213.729 99.7624C213.498 99.4907 213.206 99.2776 212.878 99.1405C212.549 99.0035 212.192 98.9464 211.837 98.974L211.634 99.0116C211.323 99.1013 211.035 99.2553 210.788 99.4635C210.541 99.6718 210.341 99.9297 210.2 100.22Z" fill="#10B981"/>
<path d="M217.595 101.887L217.896 101.422C217.205 100.971 215.643 100.453 214.795 101.662L215.245 101.992C216.026 100.904 217.535 101.85 217.595 101.887Z" fill="#10B981"/>
<path d="M236.157 100.566L236.615 100.243C236.465 100.033 235.113 98.1631 233.874 98.1181C232.635 98.073 225.382 99.7399 225.074 99.8075L225.194 100.356C227.297 99.8751 232.943 98.6437 233.859 98.6737C234.775 98.7037 235.781 100.048 236.157 100.566Z" fill="#10B981"/>
<path d="M234.655 105.101C234.473 105.21 234.282 105.303 234.084 105.379C233.887 105.454 233.679 105.499 233.469 105.514C233.2 105.543 232.928 105.512 232.673 105.424C232.472 105.356 232.28 105.262 232.102 105.146C231.854 104.975 231.638 104.761 231.464 104.515V100.896C231.464 100.896 233.484 96.2559 235.526 96.9016C237.568 97.5473 236.69 103.862 234.655 105.101Z" fill="#DD6A57"/>
<path d="M235.263 98.7187C235.301 98.7187 235.316 98.7563 235.263 98.7713C233.867 99.6948 233.349 101.264 233.086 102.833C233.143 102.664 233.237 102.509 233.36 102.379C233.483 102.249 233.633 102.148 233.8 102.081C233.966 102.015 234.145 101.985 234.323 101.995C234.502 102.004 234.677 102.052 234.835 102.135C234.88 102.135 234.835 102.225 234.835 102.225C234.554 102.192 234.268 102.246 234.019 102.38C233.769 102.515 233.566 102.723 233.439 102.976C233.235 103.406 233.079 103.856 232.973 104.32C232.928 104.47 232.665 104.448 232.688 104.283C232.275 102.323 233.228 99.3194 235.263 98.7187Z" fill="#263238"/>
<path d="M234.392 104.59C234.392 104.712 234.356 104.831 234.288 104.932C234.221 105.034 234.124 105.113 234.012 105.159C233.899 105.206 233.776 105.218 233.656 105.194C233.537 105.17 233.427 105.112 233.341 105.026C233.255 104.94 233.196 104.83 233.172 104.71C233.149 104.591 233.161 104.467 233.208 104.355C233.254 104.242 233.333 104.146 233.434 104.078C233.536 104.011 233.655 103.975 233.776 103.975C233.94 103.975 234.096 104.04 234.212 104.155C234.327 104.27 234.392 104.427 234.392 104.59Z" fill="white"/>
<path d="M235.451 103.426C235.451 103.513 235.425 103.597 235.377 103.668C235.33 103.74 235.262 103.796 235.182 103.829C235.102 103.862 235.015 103.87 234.93 103.854C234.846 103.837 234.768 103.795 234.707 103.734C234.646 103.673 234.605 103.596 234.588 103.511C234.571 103.427 234.58 103.339 234.613 103.26C234.646 103.18 234.702 103.112 234.773 103.064C234.845 103.017 234.929 102.991 235.015 102.991C235.131 102.991 235.242 103.037 235.323 103.119C235.405 103.2 235.451 103.311 235.451 103.426Z" fill="white"/>
<path d="M244.882 119.81C254.748 133.243 268.038 155.919 261.843 160.799C251.662 168.811 222.296 172.956 215.568 173.631C212.662 173.917 207.241 154.86 209.223 152.45C211.206 150.04 242.186 148.936 242.441 147.044C242.584 145.97 240.256 136.682 237.471 125.126C234.249 111.799 242.051 115.988 244.882 119.81Z" fill="#DD6A57"/>
<path d="M214.329 150.993C214.329 150.993 205.447 150.746 199.635 150.858C196.391 150.918 190.842 151.526 188.477 152.66C184.948 154.357 171.26 163.713 173.46 167.084C175.45 170.133 186.225 160.597 186.225 160.597C186.225 160.597 174.496 169.299 177.59 172.49C180.683 175.681 191.361 163.337 191.361 163.337C191.361 163.337 179.55 172.505 183.244 175.351C186.037 177.491 196.361 166.821 196.361 166.821C196.361 166.821 186.27 174.773 189.04 177.093C192.111 179.661 202.255 170.41 202.255 170.41C210.305 175.126 216.071 174.082 220.081 172.851C221.034 172.535 214.329 150.993 214.329 150.993Z" fill="#DD6A57"/>
<path d="M190.039 157.345C188.628 158.314 187.193 159.283 185.872 160.349C184.55 161.415 183.274 162.601 182.058 163.78C180.448 165.332 179.017 167.06 177.793 168.931C180.203 165.762 184.866 161.79 186.187 160.672C187.509 159.553 188.763 158.419 190.077 157.338C190.114 157.368 190.069 157.323 190.039 157.345Z" fill="#263238"/>
<path d="M194.056 162.038C192.314 163.345 190.527 164.591 188.838 165.98C187.148 167.369 185.684 168.826 184.107 170.32C183.98 170.44 184.107 170.463 184.213 170.32C185.849 168.894 187.479 167.692 189.131 166.281C190.783 164.869 192.389 163.39 194.094 162.046L194.056 162.038Z" fill="#263238"/>
<path d="M198.231 165.44C195.506 167.39 192.989 169.617 190.722 172.085C190.61 172.205 190.722 172.22 190.872 172.085C193.328 169.832 195.235 168.045 198.306 165.515C198.343 165.5 198.291 165.402 198.231 165.44Z" fill="#263238"/>
<path d="M220.974 150.16C219.728 150.16 217.092 150.58 214.172 150.648C207.602 150.783 198.321 150.565 195.01 150.648C186.06 150.918 180.488 157.405 177.935 159.658C176.408 161.021 175.018 162.53 173.783 164.163C173.145 165.057 172.522 166.326 173.333 167.347C174.316 168.586 178.138 167.347 182.155 163.885C182.298 163.758 182.208 163.675 182.058 163.788C176.441 168.158 174.249 167.602 173.685 166.791C173.325 166.288 173.685 165.432 174.046 164.786C174.609 163.851 175.285 162.989 176.058 162.218C178.645 159.547 181.498 157.147 184.573 155.055C187.876 152.692 191.781 151.315 195.836 151.083C198.719 150.903 207.564 151.166 214.187 150.971C217.085 150.881 219.713 150.362 220.944 150.265C221.079 150.302 221.064 150.16 220.974 150.16Z" fill="#263238"/>
<path d="M257.488 136.862L238.634 136.382C238.634 136.382 236.607 127.123 236.202 121.845C235.669 114.854 238.139 113.015 244.273 119.037C248.373 123.069 257.488 136.862 257.488 136.862Z" fill="#10B981"/>
<path d="M239.303 118.121C238.61 117.347 238.115 116.417 237.861 115.41C238.554 116.184 239.049 117.114 239.303 118.121ZM250.04 129.706C250.497 129.467 250.921 129.169 251.301 128.82C250.294 129.074 249.364 129.569 248.591 130.262C249.096 130.141 249.583 129.955 250.04 129.706ZM242.036 124.683C241.879 125.169 241.788 125.675 241.766 126.185C242.037 125.744 242.249 125.27 242.396 124.773C242.549 124.286 242.639 123.782 242.667 123.272C242.393 123.711 242.18 124.186 242.036 124.683Z" fill="white"/>
<path d="M240.94 136.449C240.737 136.404 238.8 136.291 238.687 136.321C238.477 135.225 238.282 134.129 238.056 133.04C237.944 132.492 237.824 131.944 237.696 131.403C237.568 130.863 237.418 130.119 237.298 129.594C237.298 129.511 237.17 129.526 237.178 129.594C237.275 130.3 237.366 130.818 237.456 131.426C237.546 132.034 237.621 132.515 237.726 133.055C237.936 134.197 238.116 135.42 238.387 136.554C239.248 136.591 240.111 136.574 240.97 136.502L240.94 136.449Z" fill="#263238"/>
<path d="M255.619 135.023C252.878 134.767 250.145 134.542 247.397 134.444C246.023 134.399 244.656 134.369 243.282 134.362C241.908 134.354 240.534 134.489 239.168 134.459C239.152 134.459 239.136 134.466 239.125 134.477C239.114 134.488 239.107 134.503 239.107 134.519C239.107 134.535 239.114 134.551 239.125 134.562C239.136 134.573 239.152 134.579 239.168 134.579C240.534 134.534 241.923 134.677 243.29 134.707L247.404 134.812C250.145 134.902 252.886 134.985 255.626 135.143C255.679 135.143 255.679 135.03 255.619 135.023Z" fill="#263238"/>
<path d="M165.328 172.4H206.918V169.172L165.328 167.827V172.4Z" fill="#455A64"/>
<path d="M132.636 172.348H160.08C162.415 172.348 159.029 165.68 150.484 163.12C141.939 160.559 129.941 169.847 132.636 172.348Z" fill="#37474F"/>
<path d="M143.403 172.348C142.957 170.942 142.358 169.59 141.616 168.316C141.248 167.695 140.821 167.112 140.34 166.574C139.841 166.032 139.302 165.53 138.726 165.072C139.469 165.293 140.158 165.669 140.745 166.176C141.343 166.676 141.851 167.276 142.247 167.948C142.648 168.615 142.954 169.335 143.156 170.088C143.363 170.822 143.446 171.586 143.403 172.348Z" fill="#263238"/>
<path d="M140.152 166.003C138.711 166.934 137.269 167.782 135.917 168.751C135.238 169.215 134.599 169.738 134.01 170.313C133.398 170.873 132.927 171.57 132.636 172.348C132.65 171.453 132.983 170.593 133.575 169.922C134.12 169.237 134.762 168.635 135.482 168.135C136.193 167.64 136.947 167.207 137.735 166.844C138.508 166.479 139.319 166.197 140.152 166.003Z" fill="#263238"/>
<path d="M112.949 159.44H179.647L169.045 109.779H102.339L112.949 159.44Z" fill="#455A64"/>
<path d="M110.486 159.44H177.185L166.575 109.779H99.8765L110.486 159.44Z" fill="#37474F"/>
<path d="M146.459 141.638H148.021L145.648 130.495H144.079L146.459 141.638Z" fill="#263238"/>
<path d="M143.373 141.638H144.935L142.562 130.495H140.993L143.373 141.638Z" fill="#263238"/>
<path d="M140.287 141.638H141.849L139.477 130.495H137.907L140.287 141.638Z" fill="#263238"/>
<path d="M137.201 141.638H138.763L136.39 130.495H134.821L137.201 141.638Z" fill="#263238"/>
<path d="M134.108 141.638H135.677L133.297 130.495H131.735L134.108 141.638Z" fill="#263238"/>
<path d="M131.022 141.638H132.591L130.211 130.495H128.649L131.022 141.638Z" fill="#263238"/>
<path d="M127.936 141.638H129.505L127.125 130.495H125.563L127.936 141.638Z" fill="#263238"/>
<path d="M129.347 172.408H162.152V169.862L129.347 168.796V172.408Z" fill="#455A64"/>
<path d="M120.427 172.4H138.042L148.652 144.581H131.037L120.427 172.4Z" fill="#455A64"/>
<path d="M117.529 172.4H135.144L145.746 144.581H128.139L117.529 172.4Z" fill="#263238"/>
<path d="M275.554 172.4H39.0796V176.703H275.554V172.4Z" fill="#37474F"/>
<path d="M269.923 176.703H44.7109V187.5H269.923V176.703Z" fill="#37474F"/>
<path d="M269.923 176.703H44.7109V182.101H269.923V176.703Z" fill="#263238"/>
<path d="M75.2409 271.896H55.0579V275.448H75.2409V271.896Z" fill="#37474F"/>
<path d="M86.1882 323.825H84.0108L66.2305 240.833L65.2168 236.103L62.0257 221.206L60.8394 215.649L56.3643 194.806L54.8025 187.5H62.5663L63.8353 194.806L64.6612 199.596L65.2168 202.787L68.408 221.206L69.4367 227.138L86.1882 323.825Z" fill="#37474F"/>
<path d="M62.5663 187.5L63.8353 194.806H56.3643L54.8025 187.5H62.5663Z" fill="#263238"/>
<path d="M69.4367 227.138L66.2305 240.833L65.2168 236.103L62.0257 221.206L60.8394 215.649L64.6612 199.596L65.2168 202.787L68.408 221.206L69.4367 227.138Z" fill="#263238"/>
<path d="M75.6311 187.5L74.0693 194.806L68.4079 221.206L65.2167 236.103L46.4228 323.825H44.2454L62.0256 221.206L65.2167 202.787L66.5983 194.806L67.8598 187.5H75.6311Z" fill="#37474F"/>
<path d="M75.6314 187.5L74.0697 194.806H66.5986L67.8601 187.5H75.6314Z" fill="#263238"/>
<path d="M259.441 271.896H239.258V275.448H259.441V271.896Z" fill="#37474F"/>
<path d="M270.388 323.825H268.203L250.43 240.833L249.417 236.103L246.218 221.206L245.032 215.649L240.564 194.806L238.995 187.5H246.766L248.028 194.806L248.861 199.596L249.417 202.787L252.6 221.206L253.629 227.138L270.388 323.825Z" fill="#37474F"/>
<path d="M246.766 187.5L248.028 194.806H240.564L238.995 187.5H246.766Z" fill="#263238"/>
<path d="M253.629 227.138L250.43 240.833L249.417 236.103L246.218 221.206L245.032 215.649L248.861 199.596L249.417 202.787L252.6 221.206L253.629 227.138Z" fill="#263238"/>
<path d="M259.824 187.5L258.262 194.806L252.6 221.206L249.417 236.103L230.615 323.825H228.445L246.218 221.206L249.417 202.787L250.791 194.806L252.06 187.5H259.824Z" fill="#37474F"/>
<path d="M259.823 187.5L258.262 194.806H250.791L252.059 187.5H259.823Z" fill="#263238"/>
<path d="M59.09 168.135L57.6033 167.94L64.0681 118.721L83.1248 106.558L89.2743 110.582L88.4559 111.836L83.1098 108.345L65.4647 119.607L59.09 168.135Z" fill="#263238"/>
<path d="M63.5049 119.164C63.5034 119.416 63.5768 119.662 63.7156 119.872C63.8545 120.082 64.0526 120.246 64.2848 120.343C64.5169 120.44 64.7727 120.466 65.0196 120.417C65.2664 120.368 65.4932 120.247 65.6711 120.069C65.849 119.891 65.97 119.664 66.0188 119.418C66.0675 119.171 66.0417 118.915 65.9447 118.683C65.8478 118.451 65.684 118.253 65.4741 118.114C65.2643 117.975 65.0179 117.901 64.7663 117.903C64.4318 117.903 64.1109 118.036 63.8744 118.272C63.6378 118.509 63.5049 118.83 63.5049 119.164Z" fill="#10B981"/>
<path d="M83.0571 108.713C83.7538 108.713 84.3185 108.148 84.3185 107.451C84.3185 106.754 83.7538 106.19 83.0571 106.19C82.3604 106.19 81.7957 106.754 81.7957 107.451C81.7957 108.148 82.3604 108.713 83.0571 108.713Z" fill="#10B981"/>
<path d="M99.8314 112.309L91.4294 121.687L87.555 116.897L85.1973 113.976L91.4894 106.956L94.6505 108.99L99.8314 112.309Z" fill="#10B981"/>
<path opacity="0.1" d="M99.8314 112.309L91.4293 121.687L87.5549 116.897L94.6505 108.99L99.8314 112.309Z" fill="black"/>
<path d="M112.003 116.934L97.361 133.273L87.6375 120.869L98.6074 108.63L112.003 116.934Z" fill="#10B981"/>
<path d="M69.8421 172.408H48.1799L49.5089 165.605H68.5131L69.8421 172.408Z" fill="#10B981"/>
<path d="M288.814 235.57C288.182 239.969 288.409 244.449 289.482 248.762C289.991 250.76 290.666 252.712 291.502 254.596C292.553 257.006 293.65 259.364 293.387 262.007C293.132 262.18 294.01 262.15 294.033 261.895C301.091 257.877 310.146 257.142 315.575 250.572C318.15 247.456 319.449 243.514 320.08 239.572C320.748 235.277 320.928 230.561 319.824 226.289C318.886 222.707 316.821 219.253 313.435 217.496C310.048 215.739 305.416 215.845 301.759 216.978C293.852 219.434 289.933 227.941 288.814 235.57Z" fill="#10B981"/>
<path d="M285.195 287.814C286.156 284.608 287.117 281.394 288.108 278.196C290.046 271.919 292.058 265.671 294.288 259.492C295.624 255.798 297.031 252.136 298.508 248.507C298.35 246.218 298.069 243.94 297.667 241.682C297.081 238.948 296.218 236.305 295.414 233.625C295.401 233.587 295.404 233.546 295.421 233.51C295.439 233.474 295.47 233.446 295.508 233.433C295.546 233.421 295.587 233.423 295.623 233.441C295.659 233.458 295.687 233.489 295.699 233.527C297.284 237.222 299.356 241.937 299.401 246.292C301.128 242.185 302.968 238.138 304.95 234.151C305.177 230.777 305.074 227.39 304.642 224.036C304.636 224.005 304.643 223.972 304.661 223.945C304.68 223.918 304.708 223.9 304.74 223.894C304.772 223.888 304.805 223.895 304.831 223.913C304.858 223.931 304.876 223.96 304.882 223.991C305.481 226.927 305.713 229.926 305.573 232.919C307.075 229.916 308.682 226.965 310.386 224.052C310.536 223.789 310.904 224.051 310.769 224.314C308.119 229.42 305.656 234.639 303.343 239.917C306.595 237.103 310.35 234.93 314.411 233.512C314.591 233.452 314.719 233.707 314.538 233.775C310.109 235.685 306.056 238.37 302.57 241.704C300.913 245.574 299.334 249.473 297.832 253.402C302.247 249.07 308.291 246.224 314.133 244.7C314.336 244.647 314.388 244.948 314.193 245.008C307.435 247.043 302.179 250.88 297.028 255.52C296.428 257.107 295.842 258.698 295.271 260.295C293.084 266.337 291.007 272.422 289.039 278.549C288.093 281.477 287.155 284.42 286.239 287.356C285.255 290.525 284.482 293.866 283.235 296.922C283.115 297.215 282.59 297.147 282.657 296.794C283.351 293.76 284.198 290.763 285.195 287.814Z" fill="#263238"/>
<path d="M296.901 229.367C298.154 231.294 299.018 233.447 299.446 235.705C299.446 235.765 299.364 235.795 299.341 235.705C298.552 233.577 297.632 231.501 296.585 229.488C296.48 229.367 296.781 229.21 296.901 229.367Z" fill="#263238"/>
<path d="M309.493 244.099C311.455 243.008 313.6 242.286 315.823 241.967C315.883 241.967 315.92 242.042 315.823 242.064C314.801 242.492 313.735 242.815 312.707 243.183C311.678 243.551 310.657 244.062 309.613 244.422C309.575 244.424 309.536 244.414 309.504 244.393C309.472 244.372 309.447 244.341 309.434 244.305C309.42 244.269 309.419 244.229 309.429 244.192C309.44 244.155 309.462 244.123 309.493 244.099Z" fill="#263238"/>
<path d="M313.037 226.409C313.676 225.925 314.36 225.503 315.079 225.148C315.103 225.133 315.132 225.128 315.159 225.134C315.187 225.141 315.211 225.158 315.226 225.181C315.24 225.205 315.245 225.234 315.239 225.262C315.233 225.289 315.216 225.313 315.192 225.328C314.566 225.825 313.895 226.263 313.187 226.634C313.059 226.709 312.909 226.492 313.037 226.409Z" fill="#263238"/>
<path d="M265.02 259.544C270.103 261.046 275.216 262.443 280.299 263.937C280.742 264.072 289.31 247.606 286.224 239.121C283.355 231.267 276.785 225.395 268.954 222.722C265.327 221.491 260.867 220.47 257.03 221.303C253.622 222.054 251.211 224.847 250.108 228.061C248.606 232.416 249.101 237.619 249.92 242.064C250.577 246.242 252.302 250.178 254.928 253.492C257.616 256.699 261.063 258.366 265.02 259.544Z" fill="#10B981"/>
<path d="M257.654 243.889C260.866 245.459 264.198 246.772 267.617 247.816C269.899 248.431 272.124 249.237 274.27 250.226C272.13 245.436 269.765 240.75 267.272 236.11C263.983 235.157 260.514 233.677 258.059 231.35C258.031 231.326 258.014 231.292 258.011 231.255C258.008 231.219 258.02 231.182 258.044 231.155C258.068 231.127 258.102 231.109 258.139 231.107C258.175 231.104 258.211 231.116 258.239 231.139C260.95 233.054 263.938 234.203 266.934 235.494C266.258 234.248 265.573 232.997 264.877 231.74C264.689 231.395 265.162 231.049 265.395 231.387C268.065 235.267 270.478 239.318 272.618 243.514C273.165 239.836 273.341 236.113 273.144 232.401C273.14 232.39 273.139 232.378 273.141 232.366C273.143 232.354 273.147 232.343 273.154 232.333C273.161 232.324 273.17 232.316 273.181 232.311C273.191 232.305 273.203 232.302 273.215 232.302C273.227 232.302 273.239 232.305 273.249 232.311C273.26 232.316 273.269 232.324 273.276 232.333C273.283 232.343 273.287 232.354 273.289 232.366C273.291 232.378 273.29 232.39 273.286 232.401C273.922 236.449 273.882 240.575 273.166 244.61C274.946 248.169 276.568 251.818 278.032 255.505C278.61 253.29 279.361 251.105 279.864 248.867C280.639 245.675 280.893 242.379 280.615 239.106C280.615 239.008 280.742 239.001 280.757 239.106C281.661 245.176 280.925 251.377 278.625 257.067C279.473 259.319 280.284 261.519 281.028 263.749C284.862 275.154 287.136 287.025 287.785 299.039C287.785 299.097 287.762 299.152 287.722 299.193C287.681 299.234 287.625 299.257 287.568 299.257C287.51 299.257 287.455 299.234 287.414 299.193C287.373 299.152 287.35 299.097 287.35 299.039C286.021 287.194 283.485 275.515 279.781 264.185C278.28 259.755 276.605 255.452 274.743 251.225C271.74 250.339 268.736 249.137 265.8 248.116C262.865 247.095 259.974 245.961 257.541 244.069C257.443 243.994 257.548 243.836 257.654 243.889Z" fill="#263238"/>
<path d="M252.916 239.129C256.024 240.24 258.968 241.787 262.076 242.883C262.219 242.935 262.136 243.168 261.986 243.138C258.705 242.455 255.446 241.441 252.796 239.286C252.676 239.204 252.803 239.068 252.916 239.129Z" fill="#263238"/>
<path d="M278.295 232.371C278.295 232.206 278.505 232.116 278.55 232.281C279.406 235.149 279.992 238.19 279.166 241.118C279.166 241.231 278.948 241.238 278.941 241.118C278.798 238.183 278.956 235.314 278.295 232.371Z" fill="#263238"/>
<path d="M265.44 225.786C266.43 227.21 266.904 228.929 266.784 230.659C266.784 230.764 266.604 230.832 266.574 230.659C266.198 229.022 265.568 227.528 265.072 225.936C265.07 225.892 265.081 225.849 265.104 225.812C265.128 225.775 265.162 225.746 265.203 225.73C265.243 225.713 265.288 225.71 265.33 225.72C265.373 225.73 265.411 225.753 265.44 225.786Z" fill="#263238"/>
<path d="M325.509 266.805C324.007 271.535 320.478 278.068 314.869 278.128C311.235 278.128 307.571 277.73 303.929 277.678C300.024 277.617 296.12 277.625 292.223 277.858C291.908 277.858 292.689 266.174 302.067 260.475C304.695 258.876 307.908 258.373 310.889 257.727C314.302 256.92 317.805 256.554 321.311 256.639C323.466 256.729 325.261 257.187 326.027 259.387C326.792 261.587 326.199 264.56 325.509 266.805Z" fill="#10B981"/>
<path d="M321.454 260.903C319.201 261.489 316.874 262.157 314.583 262.886C315.18 262.239 315.812 261.625 316.476 261.046C317.459 260.228 318.54 259.544 319.592 258.861C319.682 258.801 319.629 258.628 319.517 258.673C317.298 259.595 315.381 261.119 313.983 263.073C311.137 263.997 308.314 265.011 305.596 266.129C303.718 266.896 301.917 267.842 300.22 268.953C300.764 267.77 301.415 266.639 302.164 265.574C303.411 263.959 305.093 263.058 306.722 261.917C306.755 261.897 306.778 261.865 306.788 261.828C306.797 261.79 306.791 261.751 306.771 261.718C306.751 261.685 306.719 261.662 306.681 261.652C306.644 261.643 306.605 261.649 306.572 261.669C304.863 262.403 303.327 263.486 302.062 264.849C300.798 266.212 299.832 267.825 299.228 269.583C297.299 270.991 295.535 272.613 293.973 274.419C287.763 281.469 282.875 290.848 282.86 300.413C282.86 300.646 283.228 300.706 283.273 300.473C284.863 291.09 288.951 282.308 295.106 275.05C295.549 274.531 296.007 274.043 296.465 273.548C298.166 273.319 299.878 273.191 301.594 273.165C303.591 273.165 305.573 273.458 307.563 273.623C310.837 273.886 314.456 273.931 317.407 272.279C317.436 272.263 317.459 272.236 317.47 272.205C317.481 272.173 317.48 272.138 317.467 272.107C317.454 272.076 317.43 272.051 317.399 272.037C317.368 272.023 317.334 272.021 317.302 272.031C310.724 274.426 303.786 271.393 297.216 272.819C300.043 270.127 303.355 267.997 306.977 266.542L307.586 266.302C311.813 266.805 316.273 267.909 320.388 266.535C320.413 266.528 320.436 266.511 320.449 266.488C320.462 266.464 320.466 266.437 320.459 266.411C320.452 266.385 320.435 266.363 320.412 266.35C320.389 266.336 320.361 266.333 320.335 266.34C316.355 267.331 312.541 266.084 308.622 265.889C312.894 264.222 317.249 262.886 321.536 261.249C321.837 261.114 321.844 260.783 321.454 260.903Z" fill="#263238"/>
<path d="M323.316 265.048C321.276 265.312 319.223 265.467 317.167 265.514C317.122 265.514 317.107 265.589 317.167 265.596C319.237 265.982 321.371 265.848 323.376 265.206C323.459 265.176 323.414 265.033 323.316 265.048Z" fill="#263238"/>
<path d="M309.425 260.994C308.29 261.503 307.259 262.218 306.384 263.103C306.272 263.201 306.422 263.396 306.535 263.306C307.053 262.931 307.586 262.555 308.119 262.232C308.636 261.948 309.138 261.634 309.621 261.294C309.741 261.181 309.591 260.903 309.425 260.994Z" fill="#263238"/>
<path d="M276.313 276.221C276.38 276.371 276.155 276.521 276.065 276.356C276.049 276.381 276.028 276.402 276.004 276.417C275.979 276.433 275.951 276.443 275.922 276.446C272.148 277.349 268.321 278.018 264.464 278.451C261.363 278.721 257.789 278.894 255.071 277.099C251.392 274.659 248.974 268.134 250.964 263.989C253.314 259.071 260.402 261.737 263.961 263.494C269.436 266.166 273.806 270.668 276.313 276.221Z" fill="#10B981"/>
<path d="M279.061 278.496C276.994 276.495 274.698 274.746 272.22 273.285C270.436 270.461 268.071 268.05 265.283 266.212C265.147 266.122 265.035 266.332 265.155 266.43C267.373 268.206 269.341 270.275 271.004 272.579C268.24 271.07 265.369 269.765 262.414 268.675C261.364 266.717 259.76 265.111 257.804 264.057C257.766 264.057 257.721 264.057 257.759 264.117C259.37 265.344 260.777 266.819 261.926 268.487C260.177 267.834 258.42 267.233 256.67 266.647C256.513 266.595 256.453 266.835 256.603 266.895C259.741 268.119 262.94 269.411 266.048 270.897C262.261 271.502 258.401 271.502 254.613 270.897C254.593 270.894 254.573 270.898 254.556 270.909C254.539 270.92 254.526 270.937 254.521 270.956C254.515 270.976 254.517 270.996 254.525 271.014C254.534 271.033 254.549 271.047 254.568 271.055C258.519 272.226 262.716 272.291 266.702 271.243C268.681 272.202 270.601 273.278 272.453 274.464C270.893 274.334 269.323 274.464 267.805 274.847C265.124 275.468 262.381 275.778 259.629 275.77C259.524 275.77 259.501 275.935 259.629 275.95C264.367 276.769 268.849 274.614 273.549 275.2C275.295 276.386 276.933 277.723 278.445 279.194C281.377 282.126 283.791 285.533 285.586 289.271C287.56 293.295 288.634 297.53 290.233 301.72C290.243 301.759 290.268 301.792 290.303 301.812C290.337 301.833 290.379 301.839 290.417 301.829C290.456 301.819 290.49 301.794 290.51 301.759C290.53 301.725 290.536 301.684 290.526 301.645C289.122 293.385 285.038 284.338 279.061 278.496Z" fill="#263238"/>
<path d="M264.757 267.241C264.444 266.671 264.032 266.163 263.54 265.739C263.145 265.306 262.671 264.952 262.144 264.695C262.099 264.695 262.069 264.74 262.099 264.77C262.489 265.213 263.03 265.521 263.45 265.957C263.871 266.392 264.201 266.88 264.644 267.301C264.655 267.307 264.668 267.311 264.681 267.311C264.693 267.311 264.706 267.308 264.717 267.302C264.728 267.296 264.738 267.287 264.745 267.276C264.752 267.266 264.756 267.253 264.757 267.241Z" fill="#263238"/>
<path d="M256.941 269.786C256.235 269.613 255.491 269.628 254.778 269.478C254.067 269.308 253.365 269.1 252.676 268.855C252.657 268.852 252.638 268.855 252.621 268.864C252.604 268.873 252.592 268.888 252.585 268.906C252.577 268.923 252.577 268.943 252.582 268.961C252.588 268.979 252.6 268.995 252.616 269.005C253.91 269.802 255.428 270.155 256.941 270.011C256.963 270.003 256.983 269.987 256.997 269.967C257.011 269.947 257.019 269.923 257.019 269.899C257.019 269.874 257.011 269.85 256.997 269.83C256.983 269.81 256.963 269.795 256.941 269.786Z" fill="#263238"/>
<path d="M301.609 287.176L300.836 295.961L298.215 325.612H274.991L271.71 295.961L270.741 287.176H301.609Z" fill="#455A64"/>
<path d="M301.609 287.176L300.836 295.961H271.71L270.741 287.176H301.609Z" fill="#263238"/>
<path d="M303.906 284.78H268.443V291.906H303.906V284.78Z" fill="#455A64"/>
</svg>
