<svg width="328" height="249" viewBox="0 0 328 249" fill="none" xmlns="http://www.w3.org/2000/svg">
<g clip-path="url(#clip0_43_1059)">
<path d="M173.907 247.767H174.04C175.599 247.77 177.132 247.368 178.489 246.6C179.847 245.832 180.981 244.724 181.781 243.384C183.865 239.882 186.796 234.968 189.013 231.255C191.099 227.768 192.594 223.959 193.437 219.983L194.543 214.671C195.261 211.257 195.477 207.756 195.184 204.279L194.631 198.397C194.204 193.437 193.206 188.542 191.656 183.811L190.589 174.465C190.589 174.398 190.219 171.615 189.898 169.003C189.612 166.585 189.067 164.205 188.272 161.904C187.852 160.393 187.35 158.906 186.768 157.449L186.696 157.278C186.606 157.222 186.532 157.144 186.481 157.051C184.444 153.144 181.42 149.838 177.711 147.461C176.067 146.628 174.221 146.279 172.387 146.454C170.286 146.642 167.438 146.631 165.884 145.486L163.12 143.455C161.729 142.433 160.143 141.709 158.46 141.328C156.777 140.947 155.033 140.918 153.338 141.242C153.21 141.268 153.077 141.249 152.962 141.186L143.889 136.085C143.862 136.071 143.834 136.06 143.806 136.051L141.401 135.177C139.859 134.622 138.234 134.337 136.596 134.336C135.401 134.338 134.222 134.063 133.151 133.534C130.948 132.407 128.537 131.746 126.068 131.591C124.266 131.447 122.453 131.557 120.682 131.918C120.576 131.951 120.462 131.951 120.356 131.918L119.471 131.619C119.325 131.595 119.194 131.513 119.107 131.392C119.021 131.271 118.985 131.121 119.01 130.974C119.034 130.828 119.115 130.696 119.236 130.61C119.357 130.523 119.507 130.488 119.654 130.512H120.433C120.487 130.521 120.541 130.521 120.594 130.512L126.234 128.797H126.311C128.508 128.454 130.758 128.736 132.802 129.61L133.759 130.014C136.399 131.131 139.237 131.703 142.103 131.696H142.147L146.913 132.028C147.478 132.069 148.029 132.224 148.532 132.485C149.035 132.745 149.479 133.106 149.838 133.545L149.877 133.594C150.415 134.255 151.141 134.736 151.959 134.973C152.777 135.21 153.648 135.193 154.455 134.922C155.384 134.607 156.258 134.325 156.512 134.242C156.564 134.225 156.618 134.215 156.672 134.214L158.818 134.164C159.904 134.14 160.983 134.357 161.975 134.8C162.968 135.243 163.85 135.901 164.557 136.726C164.639 136.821 164.75 136.885 164.872 136.909L166.133 137.158C173.677 138.636 180.863 141.563 187.294 145.779L187.813 146.122C187.909 146.189 188.023 146.224 188.139 146.222C188.256 146.22 188.369 146.181 188.462 146.111C188.555 146.041 188.624 145.944 188.658 145.833C188.693 145.721 188.691 145.602 188.654 145.491L188.322 144.717C185.082 137.147 182.644 129.278 180.288 121.388C179.938 120.384 179.474 119.424 178.906 118.527C176.202 113.956 174.232 108.989 173.067 103.808C172.735 102.352 172.453 101.201 172.315 100.858L168.765 91.9217C167.555 88.87 166.075 85.9329 164.342 83.1456L162.948 80.8935C161.748 78.9565 159.96 77.4554 157.845 76.6106C157.804 76.5936 157.761 76.5825 157.717 76.5774L154.251 76.0793C154.132 76.0611 154.022 76.0071 153.935 75.9244L152.188 74.1703C152.076 74.0749 152.006 73.9388 151.994 73.792C151.982 73.6451 152.029 73.4996 152.125 73.3873C152.22 73.275 152.356 73.2052 152.503 73.1933C152.649 73.1814 152.795 73.2283 152.907 73.3237C152.972 73.3728 153.048 73.4068 153.128 73.4233L158.403 74.4525H158.492L162.417 75.9133C162.497 75.9435 162.582 75.9549 162.667 75.9467C162.752 75.9384 162.833 75.9107 162.906 75.8658C162.978 75.8208 163.039 75.7597 163.083 75.6874C163.128 75.615 163.156 75.5333 163.164 75.4485C163.224 74.842 163.15 74.2295 162.945 73.6553C162.741 73.0812 162.411 72.5596 161.981 72.1284L159.979 70.1253C159.929 70.0806 159.89 70.0259 159.863 69.9648L156.894 63.4962C156.866 63.4427 156.849 63.3845 156.844 63.3246L156.357 58.8646C156.336 58.7285 156.366 58.5893 156.442 58.4743C156.518 58.3593 156.634 58.2768 156.768 58.2429C156.901 58.209 157.042 58.2261 157.164 58.291C157.285 58.3558 157.378 58.4637 157.424 58.5935L158.53 61.3603C158.557 61.4206 158.592 61.4766 158.635 61.5263L160.847 63.9389C160.932 64.0274 161.033 64.0979 161.146 64.146C161.259 64.1942 161.38 64.219 161.502 64.219C161.625 64.219 161.746 64.1942 161.859 64.146C161.971 64.0979 162.073 64.0274 162.157 63.9389C162.234 63.8621 162.286 63.7646 162.308 63.6583C162.33 63.5521 162.32 63.4418 162.279 63.3412L158.193 53.0489C157.926 52.3781 157.895 51.6363 158.105 50.9455C158.315 50.2546 158.754 49.6558 159.349 49.2474L159.404 49.2032L160.51 48.1961C162.069 46.8073 164.084 46.0394 166.172 46.038C166.221 46.0435 166.271 46.0435 166.321 46.038L171.629 44.555C171.728 44.5273 171.816 44.4728 171.886 44.3976C171.955 44.3223 172.002 44.2294 172.022 44.129L172.619 41.2737L172.862 44.8096C172.869 44.9067 172.85 45.0038 172.807 45.0913C172.765 45.1787 172.7 45.2533 172.619 45.3076L168.262 48.2901C167.982 48.4896 167.692 48.6743 167.394 48.8435L165 50.1715C163.734 50.8718 162.769 52.0117 162.286 53.3759C161.803 54.74 161.836 56.2339 162.379 57.5753C162.395 57.6086 162.406 57.644 162.412 57.6805C163.189 61.66 164.913 65.3935 167.438 68.5649L168.24 69.572C168.946 70.4594 169.557 71.4182 170.064 72.4328C170.449 73.201 171.002 73.8722 171.682 74.3962C172.362 74.9202 173.152 75.2834 173.992 75.4585C174.833 75.6336 175.702 75.6162 176.535 75.4074C177.367 75.1987 178.142 74.8042 178.801 74.2533L179.752 73.4565L179.813 73.4011L186.37 66.0139C187.633 64.5917 189.115 63.3811 190.76 62.4282L198.048 58.184C198.08 58.167 198.109 58.1465 198.137 58.1232L201.355 55.2955C201.414 55.2463 201.462 55.1837 201.493 55.1129L203.66 50.4869C203.712 50.349 203.816 50.2371 203.949 50.1759C204.083 50.1146 204.236 50.1091 204.374 50.1605C204.511 50.2118 204.623 50.3159 204.684 50.4498C204.746 50.5836 204.751 50.7363 204.7 50.8743L203.594 54.9193C203.586 54.9438 203.577 54.9678 203.566 54.9912L202.046 58.5437C202.009 58.6283 201.952 58.7025 201.88 58.7595L195.295 64.0606C195.247 64.0974 195.195 64.1272 195.14 64.1491L193.586 64.7025C193.494 64.7349 193.412 64.7912 193.349 64.8655C193.285 64.9398 193.243 65.0296 193.225 65.1257C193.208 65.2219 193.216 65.3209 193.25 65.4127C193.283 65.5046 193.34 65.586 193.415 65.6487L194.576 66.6558C194.653 66.7223 194.746 66.7664 194.847 66.7831L203.412 68.2107H203.478L211.772 68.3435H211.805L217.887 68.0834C217.978 68.0813 218.068 68.0566 218.147 68.0115L223.052 65.112C223.151 65.0582 223.229 64.9724 223.273 64.8685L225.717 59.7279L229.128 53.4972L230.787 50.5865C231.72 48.959 232.979 47.5422 234.486 46.4254L238.357 43.5369L234.674 47.2277C233.619 48.2798 232.745 49.4988 232.086 50.8356L229.598 55.8876L227.503 60.1761C227.452 60.3059 227.452 60.4502 227.503 60.58C227.593 60.8837 227.79 61.1445 228.057 61.3152C228.324 61.4858 228.643 61.5548 228.957 61.5097L232.91 60.9563L237.113 60.1761C237.162 60.1654 237.211 60.1486 237.256 60.1263L239.291 59.1247C242.039 57.7759 244.455 55.8374 246.369 53.4474L248.309 51.0292C248.328 51.0076 248.349 50.9872 248.37 50.9684L250.029 49.4577C250.124 49.3454 250.259 49.2754 250.405 49.2629C250.551 49.2505 250.696 49.2967 250.809 49.3913C250.921 49.486 250.991 49.6213 251.003 49.7677C251.016 49.914 250.97 50.0593 250.875 50.1715L249.277 52.6505C249.258 52.6777 249.238 52.7036 249.216 52.728L245.312 56.9556C244.623 57.7014 243.825 58.3393 242.946 58.848L237.759 61.8195L237.682 61.8583L236.173 62.4116C233.456 63.4624 230.539 63.8898 227.635 63.6622L227.259 63.629C227.171 63.622 227.082 63.6364 227 63.6711C226.918 63.7057 226.846 63.7596 226.789 63.8282L224.025 67.1483C223.993 67.1903 223.954 67.226 223.909 67.2534L219.176 70.4462C219.123 70.4809 219.065 70.507 219.004 70.5237L212.999 72.0731C212.95 72.0785 212.9 72.0785 212.85 72.0731L205.916 71.9735C205.88 71.9789 205.842 71.9789 205.806 71.9735L196.45 70.0036H196.356L195.25 69.9593C193.241 69.8828 191.247 70.3426 189.474 71.2917C187.701 72.2408 186.211 73.6449 185.159 75.36L185.126 75.4042L183.617 77.3852C182.324 79.1041 180.759 80.5995 178.983 81.812C177.491 82.8244 176.377 84.3034 175.815 86.0175L175.356 87.4285C174.984 88.5639 174.865 89.7671 175.008 90.9534C175.126 91.9074 175.595 92.7831 176.324 93.4102L178.657 95.4134L178.69 95.441C179.852 96.6045 180.681 98.0587 181.09 99.652L181.56 101.5C181.931 102.925 182.626 104.246 183.589 105.359C184.553 106.472 185.76 107.348 187.117 107.919L189.577 108.954L189.666 108.998C191.5 110.209 192.865 112.011 193.536 114.105L194.288 116.441L195.577 120.004V120.048L196.577 122.234C196.631 122.353 196.725 122.449 196.843 122.505L200.061 124.038C200.133 124.074 200.212 124.093 200.292 124.095C200.373 124.097 200.452 124.081 200.526 124.049C200.6 124.017 200.666 123.969 200.719 123.909C200.772 123.849 200.812 123.778 200.835 123.701C201.7 120.928 202.829 118.244 204.208 115.688C204.611 114.941 217.141 96.022 217.262 95.856L222.736 88.6625L225.368 85.0879C226.395 83.6945 227.608 82.4489 228.973 81.386C229.888 80.6619 230.954 80.1532 232.092 79.8974C233.23 79.6416 234.411 79.6454 235.548 79.9085L235.819 79.9694L240.955 81.1591H241.033L245.65 81.5464C245.73 81.5529 245.812 81.5416 245.888 81.5132L251.666 79.4271C251.78 79.3842 251.878 79.3044 251.942 79.2002L255.99 72.8367C256.011 72.8035 256.03 72.7683 256.045 72.7316L258.677 65.6044C258.701 65.5469 258.732 65.4929 258.771 65.444L263.05 60.1871C263.078 60.1556 263.1 60.1202 263.117 60.082L266.434 53.2205C266.447 53.1845 266.466 53.1509 266.49 53.1209L268.054 51.0901C268.131 50.9696 268.251 50.8834 268.39 50.8495C268.528 50.8155 268.674 50.8365 268.798 50.9079C268.921 50.9793 269.012 51.0957 269.052 51.2328C269.092 51.3698 269.077 51.517 269.011 51.6434L268.646 52.5786L266.197 58.6654C266.171 58.7246 266.136 58.7789 266.092 58.8259L264.798 60.2757C263.007 62.2866 261.61 64.616 260.678 67.1428L259.097 71.4312C259.067 71.5108 259.057 71.596 259.065 71.6805C259.074 71.7649 259.102 71.8462 259.147 71.9181V71.9569C259.188 72.0241 259.242 72.0818 259.307 72.1262C259.372 72.1706 259.446 72.2006 259.523 72.2142C259.601 72.2278 259.68 72.2247 259.756 72.2051C259.833 72.1856 259.904 72.15 259.965 72.1008L263.194 69.5498C263.238 69.5148 263.277 69.4738 263.31 69.4281L267.236 63.6788C267.305 63.5768 267.406 63.5009 267.524 63.463L267.756 63.3855C267.882 63.3194 268.029 63.3046 268.166 63.3444C268.303 63.3842 268.419 63.4753 268.491 63.5989C268.562 63.7225 268.583 63.8688 268.549 64.0075C268.515 64.1461 268.429 64.2662 268.309 64.3428L267.247 65.2558C267.192 65.3037 267.147 65.362 267.114 65.4274L264.632 70.2968C264.584 70.3906 264.563 70.4961 264.573 70.6009C264.583 70.7058 264.623 70.8057 264.687 70.8889L265.113 71.4423C265.186 71.542 265.291 71.6142 265.41 71.6474C265.53 71.6805 265.657 71.6725 265.771 71.6249L269.088 70.2249C269.125 70.2079 269.16 70.1875 269.193 70.164L275.513 65.7372L273.855 68.1056C273.845 68.1228 273.832 68.1378 273.816 68.1498L272.594 69.5498C272.516 69.635 272.467 69.7425 272.453 69.8572C272.439 69.9719 272.462 70.088 272.517 70.1893C272.573 70.2906 272.658 70.3719 272.762 70.422C272.866 70.472 272.983 70.4883 273.097 70.4684L275.386 70.1142C275.466 70.1013 275.547 70.106 275.625 70.1279C275.703 70.1499 275.775 70.1886 275.836 70.2413C275.897 70.2941 275.946 70.3596 275.979 70.4332C276.012 70.5068 276.029 70.5868 276.028 70.6676V71.1767C276.028 71.3234 275.969 71.4642 275.866 71.5679C275.762 71.6717 275.621 71.73 275.475 71.73L271.72 71.9015C271.673 71.8966 271.624 71.8966 271.577 71.9015L268.641 72.8533C268.587 72.8591 268.533 72.8591 268.48 72.8533L264.814 72.9474C264.728 72.9479 264.642 72.9687 264.565 73.0082L260.955 74.9118C260.918 74.9313 260.879 74.9462 260.839 74.956L258.854 75.5094C258.76 75.5362 258.675 75.5856 258.605 75.6533L255.099 79.167C255.051 79.2109 255.012 79.2635 254.983 79.322L253.7 82.0887C253.658 82.1806 253.591 82.2591 253.507 82.3156L250.256 84.529C250.186 84.5777 250.107 84.6099 250.023 84.623L246.313 85.1764H241.779C241.695 85.1743 241.612 85.1915 241.535 85.2266C241.459 85.2616 241.391 85.3137 241.338 85.3788C241.285 85.4439 241.247 85.5203 241.228 85.6022C241.208 85.6841 241.208 85.7694 241.226 85.8515L242.244 90.6988C242.265 90.801 242.315 90.895 242.387 90.97L244.472 93.1446C244.534 93.2118 244.612 93.2615 244.699 93.2885L250.04 95.0371L254.121 96.5311L248.038 95.2363L243.615 94.2569C243.565 94.2461 243.517 94.2294 243.471 94.2071C241.853 93.3348 240.63 91.8755 240.054 90.1289L238.716 86.0396C238.674 85.9105 238.586 85.8014 238.469 85.733C238.351 85.6646 238.213 85.6418 238.08 85.6689L234.508 86.3495C234.425 86.3664 234.346 86.4003 234.276 86.4491L230.284 89.4261C230.168 89.513 230.09 89.6422 230.068 89.7858L229.626 92.6189C229.606 92.7026 229.606 92.7898 229.626 92.8735C229.866 93.619 229.836 94.4256 229.539 95.1507C229.243 95.8757 228.699 96.4725 228.006 96.8355L222.018 100.117C221.603 100.334 221.248 100.649 220.983 101.035C220.718 101.421 220.551 101.865 220.497 102.33C220.497 102.391 212.651 118.499 212.651 118.499C212.633 118.542 212.62 118.586 212.612 118.632L211.534 124.597C211.531 124.625 211.531 124.652 211.534 124.68L211.335 131.874V131.901L211.534 139.095C211.531 139.122 211.531 139.15 211.534 139.178L212.878 146.642C212.893 146.735 212.932 146.823 212.99 146.897C213.049 146.97 213.125 147.028 213.212 147.064C213.299 147.1 213.393 147.113 213.487 147.102C213.58 147.091 213.669 147.057 213.746 147.002L222.974 140.511L229.056 135.913C229.847 135.312 230.781 134.929 231.765 134.801C232.75 134.673 233.751 134.804 234.669 135.183C234.776 135.227 234.895 135.237 235.008 135.21C235.121 135.183 235.223 135.121 235.299 135.033L238.589 131.287C238.612 131.264 238.632 131.238 238.65 131.21L240.237 128.598C241.124 127.135 242.344 125.902 243.796 124.998C245.249 124.094 246.893 123.546 248.597 123.396C248.711 123.387 248.819 123.342 248.907 123.269L250.709 121.736C252.028 120.612 253.704 119.995 255.437 119.993C255.504 119.994 255.572 119.983 255.636 119.96L259.622 118.438C259.689 118.415 259.749 118.378 259.799 118.328C262.26 116.06 264.964 114.07 267.861 112.396L267.955 112.34L268.01 112.307L275.132 107.012C275.214 106.948 275.313 106.909 275.417 106.899C275.52 106.889 275.625 106.909 275.718 106.956C275.811 107.002 275.889 107.075 275.943 107.164C275.996 107.253 276.024 107.356 276.022 107.46V111.261C276.023 111.345 276.005 111.428 275.97 111.503C275.935 111.579 275.882 111.646 275.818 111.698L270.896 115.688L270.841 115.732L266.744 118.267C266.706 118.288 266.672 118.316 266.644 118.35L265.306 119.689C265.234 119.76 265.145 119.809 265.047 119.833L260.186 121.072C260.142 121.083 260.099 121.1 260.059 121.122L257.223 122.638C257.163 122.667 257.11 122.709 257.068 122.76L255.608 124.42C255.564 124.469 255.512 124.511 255.453 124.542L251.992 126.368L251.925 126.406L245.644 130.927C245.606 130.953 245.572 130.985 245.545 131.021L243.333 133.583C243.294 133.632 243.263 133.686 243.239 133.744L242 136.903C241.821 137.364 241.74 137.856 241.761 138.35C241.783 138.843 241.906 139.327 242.125 139.77C242.343 140.213 242.652 140.606 243.03 140.923C243.408 141.24 243.849 141.475 244.323 141.612C244.354 141.618 244.386 141.618 244.417 141.612L247.889 142H248.011L252.512 141.524C252.589 141.514 252.664 141.489 252.733 141.452L258.815 137.922L262.525 135.968C262.573 135.945 262.623 135.927 262.674 135.913L266.987 135.055C267.046 135.042 267.102 135.02 267.153 134.989L270.067 133.329C270.181 133.253 270.318 133.223 270.453 133.243C270.588 133.263 270.711 133.332 270.798 133.437C270.885 133.542 270.93 133.675 270.925 133.812C270.92 133.948 270.864 134.078 270.769 134.175L268.812 136.461C268.72 136.57 268.589 136.64 268.447 136.654L264.195 137.114C264.126 137.122 264.058 137.143 263.996 137.175L256.985 140.877C256.945 140.899 256.907 140.927 256.874 140.96L255.188 142.487C255.129 142.539 255.082 142.603 255.05 142.674C255.017 142.746 255.001 142.823 255.001 142.902C255.001 142.98 255.017 143.058 255.05 143.129C255.082 143.201 255.129 143.265 255.188 143.317L257.67 145.53L257.764 145.591L259.241 146.465C259.349 146.53 259.476 146.555 259.6 146.537L265.959 145.707L268.956 145.226C269.014 145.215 269.074 145.215 269.133 145.226L272.224 145.779C272.347 145.797 272.461 145.856 272.547 145.947C272.632 146.037 272.685 146.154 272.696 146.279C272.707 146.403 272.675 146.527 272.607 146.632C272.538 146.736 272.436 146.814 272.318 146.853L269.083 148.015H269.005L264.516 148.895H264.416L258.229 148.994C258.141 148.995 258.054 148.976 257.975 148.939L253.523 146.759C253.454 146.723 253.392 146.674 253.341 146.615L251.887 144.905C251.837 144.845 251.774 144.796 251.704 144.761C251.633 144.727 251.556 144.708 251.478 144.706L247.9 144.617C247.865 144.62 247.83 144.62 247.795 144.617L243.792 143.737H243.737L239.584 143.25C239.518 143.246 239.454 143.227 239.396 143.195L238.041 142.52C237.947 142.469 237.838 142.45 237.732 142.465L231.539 143.14H231.506L229.996 143.405C229.889 143.426 229.79 143.476 229.709 143.549L224.887 146.753C224.578 146.958 224.274 147.185 223.969 147.428C222.031 149.022 220.502 151.056 219.508 153.362C218.515 155.667 218.086 158.176 218.258 160.681L218.871 170.896C218.333 175.103 218.453 179.369 219.225 183.54L219.314 183.988C219.955 187.442 220.171 190.962 219.955 194.468V194.546C219.907 195.326 219.993 196.108 220.209 196.859C220.939 199.432 222.67 205.486 222.67 205.486L222.753 205.812C224.15 211.28 224.801 216.913 224.688 222.556L224.661 223.785V223.846L225.252 230.53C225.25 230.569 225.25 230.608 225.252 230.646L226.148 233.507C226.174 233.59 226.219 233.666 226.279 233.729C226.34 233.791 226.414 233.839 226.496 233.867L230.129 235.14C230.183 235.162 230.235 235.189 230.284 235.223L235.907 239.494C235.958 239.533 236.003 239.58 236.04 239.633L238.904 244.06C238.949 244.122 239.006 244.177 239.07 244.22L244.726 247.861C244.726 247.861 170.203 247.767 173.907 247.767Z" fill="#455A64"/>
<path d="M151.696 137.152C150.756 135.703 149.866 134.22 148.987 132.725C148.108 131.231 147.256 129.743 146.41 128.238L146.675 128.465L143.872 127.513L141.107 126.534C141.028 126.504 140.956 126.457 140.898 126.396C140.839 126.334 140.796 126.26 140.77 126.179C140.372 124.857 139.963 123.523 139.532 122.212C139.316 121.559 139.1 120.9 138.857 120.27C138.796 120.115 138.73 119.96 138.664 119.81C138.616 119.698 138.56 119.589 138.498 119.484C138.517 119.507 138.542 119.524 138.57 119.534L138.476 119.462C138.413 119.415 138.354 119.363 138.299 119.307L138.116 119.085C137.994 118.942 137.9 118.798 137.79 118.654C136.96 117.508 136.214 116.335 135.468 115.151C134.721 113.967 134.013 112.772 133.339 111.549C134.218 112.656 135.064 113.762 135.921 114.836C136.778 115.909 137.613 117.049 138.476 118.117C138.586 118.244 138.697 118.383 138.802 118.499L138.962 118.67C139.026 118.706 139.085 118.749 139.139 118.798C139.283 118.965 139.404 119.151 139.498 119.351C139.58 119.517 139.657 119.683 139.731 119.849C140.013 120.508 140.284 121.16 140.499 121.825C140.956 123.149 141.389 124.479 141.799 125.814L141.456 125.454L144.22 126.467L146.985 127.507C147.093 127.55 147.181 127.631 147.234 127.734C148.015 129.273 148.777 130.822 149.518 132.382C150.292 133.993 151.016 135.564 151.696 137.152Z" fill="#455A64"/>
<path d="M137.784 117.979C137.956 116.955 138.16 115.943 138.365 114.93V115.124C137.652 114.017 136.955 112.91 136.275 111.803C135.927 111.25 135.6 110.697 135.263 110.143C134.926 109.59 134.594 109.037 134.273 108.483C134.237 108.408 134.218 108.326 134.218 108.243C134.218 108.159 134.237 108.077 134.273 108.002C134.896 106.619 135.538 105.246 136.197 103.885L136.269 104.438C135.716 103.752 135.163 103.044 134.611 102.347C134.058 101.65 133.532 100.936 132.99 100.233C132.941 100.168 132.915 100.088 132.919 100.006C132.919 99.5413 132.968 99.0764 132.99 98.6116L133.073 97.2172C133.134 96.2876 133.212 95.3579 133.311 94.4504C133.411 95.3801 133.483 96.3097 133.549 97.2172L133.632 98.6116C133.632 99.0764 133.687 99.5413 133.704 100.006L133.615 99.7571C134.201 100.421 134.799 101.08 135.379 101.755C135.96 102.43 136.54 103.094 137.11 103.78C137.17 103.857 137.208 103.95 137.221 104.047C137.233 104.144 137.22 104.243 137.182 104.333C136.562 105.711 135.915 107.1 135.257 108.45V107.958C135.578 108.511 135.882 109.098 136.186 109.668C136.49 110.237 136.811 110.807 137.104 111.388C137.707 112.539 138.293 113.696 138.863 114.869V114.897C138.874 114.923 138.879 114.951 138.879 114.98C138.879 115.008 138.874 115.036 138.863 115.063C138.52 116.042 138.171 117.016 137.784 117.979Z" fill="#455A64"/>
<path d="M136.69 104.112C136.793 103.282 136.978 102.465 137.243 101.672C137.493 100.892 137.786 100.128 138.122 99.3809C138.163 99.285 138.235 99.2054 138.326 99.154C138.911 98.8099 139.512 98.496 140.129 98.2133C140.433 98.0639 140.754 97.9422 141.074 97.8149C141.399 97.6899 141.732 97.5846 142.07 97.4995C141.84 97.7602 141.597 98.0077 141.34 98.241C141.08 98.4679 140.825 98.7003 140.555 98.905C140.022 99.3276 139.468 99.7229 138.896 100.089L139.111 99.8402C138.804 100.597 138.453 101.337 138.061 102.054C137.669 102.781 137.21 103.471 136.69 104.112ZM131.42 130.164C130.543 129.515 129.71 128.809 128.926 128.05C128.528 127.685 128.152 127.292 127.771 126.91C127.389 126.528 127.024 126.13 126.665 125.731L126.87 125.87C126.361 125.671 125.858 125.46 125.36 125.239C124.868 125.006 124.365 124.796 123.878 124.547C122.885 124.071 121.925 123.529 121.003 122.926C122.085 123.127 123.152 123.399 124.199 123.739C124.724 123.894 125.233 124.088 125.753 124.265C126.272 124.442 126.77 124.641 127.279 124.846C127.356 124.877 127.426 124.924 127.483 124.984C127.843 125.388 128.202 125.792 128.55 126.207C128.899 126.622 129.242 127.037 129.568 127.474C130.245 128.328 130.864 129.226 131.42 130.164ZM122.336 130.551L118.249 132.61L118.338 132.527L116.126 137.379C116.096 137.448 116.044 137.505 115.977 137.54L112.2 139.554L112.504 139.167L111.399 143.643V143.671C111.378 143.758 111.324 143.833 111.249 143.881L107.982 145.879C107.935 145.898 107.884 145.898 107.838 145.879L102.308 144.733L107.915 145.442L107.76 145.475L110.857 143.228L110.702 143.461L111.454 138.907C111.468 138.823 111.503 138.745 111.555 138.678C111.607 138.611 111.675 138.559 111.752 138.525L115.673 136.815L115.496 136.987L118.072 132.322C118.091 132.291 118.118 132.266 118.15 132.25L122.336 130.551Z" fill="#455A64"/>
<path d="M118.177 132.421C116.812 132.056 115.468 131.641 114.113 131.248C113.433 131.055 112.764 130.833 112.09 130.629C111.415 130.424 110.746 130.214 110.077 129.992C110.028 129.976 109.982 129.951 109.942 129.917C109.902 129.884 109.87 129.843 109.846 129.796C109.822 129.75 109.808 129.699 109.804 129.648C109.8 129.596 109.806 129.544 109.823 129.494C110.425 127.613 111.067 125.742 111.703 123.872V124.287C110.812 122.522 109.906 120.762 109.038 118.986L109.082 119.058C108.158 117.774 107.241 116.479 106.317 115.185L106.466 115.323C105.499 114.736 104.542 114.128 103.586 113.524C103.54 113.495 103.501 113.457 103.47 113.413C103.44 113.368 103.419 113.318 103.409 113.264C103.293 112.573 103.182 111.881 103.083 111.189C102.983 110.498 102.861 109.812 102.773 109.114C102.585 107.725 102.375 106.348 102.22 104.953C102.596 106.303 102.911 107.665 103.259 109.02C103.436 109.701 103.58 110.381 103.746 111.062C103.912 111.743 104.061 112.423 104.211 113.109L104.017 112.833C105.007 113.386 105.996 113.94 106.981 114.493C107.032 114.525 107.077 114.566 107.113 114.615C108.068 115.876 109.012 117.149 109.944 118.433L109.989 118.499C110.89 120.259 111.752 122.041 112.632 123.817C112.66 123.881 112.675 123.951 112.675 124.022C112.675 124.092 112.66 124.162 112.632 124.226C111.94 126.074 111.249 127.923 110.525 129.76L110.276 129.24C110.934 129.489 111.592 129.743 112.245 130.009C112.897 130.274 113.555 130.523 114.207 130.795C115.562 131.326 116.889 131.846 118.177 132.421Z" fill="#455A64"/>
<path d="M110.215 129.61C109.364 129.372 108.557 129.057 107.711 128.802C106.865 128.548 106.052 128.205 105.261 127.884C105.171 127.847 105.097 127.781 105.051 127.696V127.651C104.802 127.137 104.57 126.605 104.332 126.085C104.094 125.565 103.857 125.034 103.635 124.503C103.171 123.446 102.74 122.383 102.314 121.315L102.436 121.493C101.479 120.546 100.545 119.578 99.6212 118.593C98.6978 117.608 97.8076 116.595 96.9672 115.533C98.073 116.324 99.1125 117.193 100.147 118.045C101.18 118.897 102.181 119.81 103.171 120.723C103.223 120.766 103.263 120.821 103.287 120.884C103.741 121.941 104.194 122.998 104.62 124.066C104.837 124.597 105.047 125.134 105.25 125.676C105.449 126.229 105.665 126.749 105.853 127.292L105.626 127.059C106.406 127.447 107.18 127.856 107.948 128.271C108.717 128.686 109.48 129.14 110.215 129.61Z" fill="#455A64"/>
<path d="M102.784 121.111C101.87 121.552 100.928 121.93 99.964 122.245C99.013 122.572 98.0509 122.854 97.0777 123.103C96.9878 123.126 96.8935 123.126 96.8037 123.102C96.7138 123.079 96.6312 123.034 96.5635 122.97C95.7784 122.218 95.0374 121.421 94.3186 120.596C93.9592 120.187 93.6109 119.766 93.2681 119.335C92.9252 118.903 92.599 118.46 92.306 117.99C92.7815 118.278 93.2183 118.61 93.6606 118.936C94.103 119.263 94.5232 119.617 94.9379 119.971C95.7673 120.679 96.569 121.415 97.3376 122.184L96.8179 122.041C97.791 121.803 98.7752 121.598 99.765 121.437C100.763 121.262 101.772 121.152 102.784 121.111ZM154.013 75.4264C152.962 74.696 151.945 73.9268 150.944 73.1411C149.943 72.3553 148.954 71.5585 147.98 70.7395L148.074 70.8059C147.223 70.3854 146.371 69.9704 145.525 69.5277C145.417 69.4688 145.331 69.3753 145.282 69.2621C144.867 68.2937 144.469 67.3254 144.082 66.3459C143.695 65.3665 143.319 64.3816 142.943 63.3966L143.192 63.6567C142.639 63.3911 142.086 63.1033 141.533 62.8266C140.98 62.55 140.427 62.2733 139.874 61.9745C138.769 61.4211 137.712 60.8014 136.656 60.165C137.834 60.5413 138.99 60.9674 140.134 61.4045C140.687 61.6259 141.284 61.8472 141.848 62.0796C142.412 62.312 142.993 62.5334 143.557 62.7824C143.662 62.8262 143.745 62.9097 143.789 63.0148C144.215 63.9776 144.641 64.9404 145.039 65.9143C145.437 66.8882 145.846 67.8566 146.233 68.836L145.984 68.5593C146.825 69.0076 147.643 69.4724 148.484 69.9372L148.555 69.9925C149.484 70.8613 150.402 71.7411 151.32 72.6431C152.238 73.545 153.161 74.4746 154.013 75.4264Z" fill="#455A64"/>
<path d="M145.78 69.0517C144.967 68.9687 144.165 68.8304 143.363 68.6976C142.562 68.5648 141.776 68.3932 140.986 68.2217H141.201C140.743 68.3545 140.278 68.4707 139.819 68.5924C139.36 68.7142 138.896 68.8304 138.431 68.9411C137.508 69.1679 136.579 69.3727 135.667 69.5663C135.557 69.5916 135.443 69.5799 135.34 69.5331C134.787 69.2786 134.235 68.9798 133.682 68.7308C133.129 68.4818 132.576 68.1774 132.023 67.8842C131.47 67.5909 130.917 67.3031 130.397 66.9877C129.877 66.6723 129.325 66.3624 128.799 66.0249C129.402 66.1854 129.994 66.368 130.585 66.5783C131.177 66.7885 131.757 66.9822 132.338 67.1925C132.919 67.4027 133.499 67.6185 134.069 67.8565C134.638 68.0944 135.219 68.3158 135.783 68.5648L135.445 68.5316C136.374 68.3047 137.303 68.0889 138.21 67.9008C138.675 67.7956 139.145 67.7016 139.615 67.613C140.085 67.5245 140.549 67.4304 141.019 67.3529H141.069C141.123 67.3391 141.18 67.3391 141.235 67.3529C142.003 67.6019 142.772 67.8676 143.529 68.1442C144.287 68.4209 145.033 68.7142 145.78 69.0517Z" fill="#455A64"/>
<path d="M141.102 67.79C140.697 67.4743 140.316 67.1284 139.963 66.7553C139.615 66.3901 139.277 66.0138 138.968 65.6486L139.145 65.8035C138.702 65.6154 138.282 65.394 137.856 65.1727C137.431 64.9513 137.027 64.7079 136.623 64.4478C136.22 64.1877 135.821 63.9221 135.44 63.6344C135.048 63.3408 134.679 63.019 134.334 62.6716C134.816 62.7602 135.289 62.8879 135.75 63.0534C136.205 63.2136 136.652 63.3983 137.088 63.6067C137.53 63.7948 137.956 64.0051 138.376 64.2265C138.796 64.4478 139.216 64.6802 139.615 64.9403L139.681 64.9846C139.724 65.0142 139.762 65.0517 139.792 65.0952C140.051 65.5268 140.295 65.964 140.516 66.4233C140.746 66.863 140.942 67.3199 141.102 67.79ZM156.827 58.9752C155.721 57.5475 154.687 56.0978 153.665 54.6259L153.88 54.7808C153.023 54.648 152.172 54.482 151.315 54.3215C150.883 54.2385 150.458 54.1555 150.026 54.0559L149.7 53.9729L149.529 53.9231H149.39L149.313 53.8899C149.257 53.869 149.205 53.8391 149.158 53.8014C149.094 53.7428 149.038 53.6757 148.992 53.6022C148.965 53.5628 148.942 53.52 148.926 53.4749L148.882 53.3808C148.821 53.2536 148.799 53.1595 148.754 53.0433C148.461 52.1856 148.246 51.35 148.036 50.5034C147.826 49.6568 147.615 48.8102 147.433 47.958L147.555 48.2015L145.382 45.6948L145.525 45.811C143.977 44.9183 142.44 44.0126 140.914 43.0941C140.872 43.0695 140.836 43.0359 140.808 42.9958C140.78 42.9556 140.762 42.9098 140.754 42.8617C140.571 41.838 140.378 40.8198 140.201 39.7906C140.024 38.7613 139.869 37.7321 139.731 36.7029C140.051 37.6934 140.361 38.6894 140.649 39.6854C140.936 40.6815 141.201 41.6886 141.495 42.6901L141.307 42.4411C142.899 43.2416 144.482 44.0624 146.056 44.9035C146.104 44.931 146.147 44.9665 146.183 45.0087L148.395 47.4821C148.457 47.547 148.501 47.6272 148.522 47.7145L149.075 50.2378C149.28 51.0734 149.479 51.8978 149.706 52.7223C149.733 52.8109 149.766 52.9326 149.794 52.999V53.0543C149.776 53.0256 149.749 53.004 149.717 52.9935H149.816L149.954 53.0377L150.253 53.1263L151.497 53.4583L154.013 54.1002H154.04C154.08 54.111 154.118 54.1298 154.15 54.1555C154.182 54.1812 154.209 54.2132 154.228 54.2496C155.135 55.81 156.003 57.376 156.827 58.9752Z" fill="#455A64"/>
<path d="M148.644 50.6695C146.952 51.0901 145.243 51.4331 143.54 51.7762H143.601L141.732 52.4513C141.662 52.475 141.587 52.4803 141.515 52.4668C141.442 52.4532 141.374 52.4212 141.318 52.3738H141.29C140.621 51.8205 139.968 51.2118 139.305 50.6308C138.641 50.0498 138 49.4466 137.348 48.8545L137.43 48.9209C136.878 48.5779 136.325 48.2237 135.739 47.8696L134.08 46.8071L134.356 46.8846C132.83 46.8551 131.304 46.809 129.778 46.7463H129.739C129.686 46.7461 129.634 46.7308 129.59 46.702C128.838 46.2261 128.075 45.7613 127.328 45.2744C126.582 44.7874 125.836 44.2949 125.117 43.7803C125.939 44.1271 126.755 44.496 127.566 44.887C128.379 45.2633 129.175 45.6617 129.977 46.0491L129.795 45.9993C131.321 45.9329 132.847 45.8867 134.373 45.8609C134.464 45.8573 134.554 45.8804 134.633 45.9273L136.33 46.9566C136.883 47.2996 137.469 47.6427 138.028 47.9968L138.1 48.0522C138.741 48.6553 139.388 49.2529 140.024 49.8616C140.66 50.4703 141.29 51.0845 141.915 51.7043L141.472 51.6047L143.386 51.0845H143.446C145.166 50.8687 146.897 50.7304 148.644 50.6695ZM159.548 52.3296C158.539 50.7619 157.565 49.1715 156.628 47.5597C156.296 46.868 155.976 46.1708 155.655 45.468C155.334 44.7653 155.014 44.0736 154.704 43.3708C154.681 43.3165 154.668 43.2584 154.665 43.1993C154.665 42.1977 154.616 41.1962 154.616 40.1946V37.1899L154.671 37.4334L153.117 34.2683L151.63 31.1031C151.615 31.0757 151.605 31.0456 151.602 31.0146C151.226 29.0114 150.861 27.0028 150.551 24.9886C150.541 24.9506 150.541 24.9104 150.551 24.8724C151.068 23.9981 151.597 23.1349 152.138 22.2827C151.751 23.2179 151.353 24.1475 150.933 25.0495V24.9056C151.486 26.8755 151.978 28.851 152.47 30.832L152.431 30.7213L154.035 33.8311L155.594 36.9575C155.635 37.0341 155.656 37.1197 155.655 37.2065V40.2112C155.655 41.2128 155.622 42.2143 155.605 43.2159L155.572 43.0278C155.86 43.7361 156.125 44.4554 156.407 45.1748C156.689 45.8941 156.96 46.6079 157.225 47.3328C158.033 48.9209 158.812 50.6142 159.548 52.3296Z" fill="#455A64"/>
<path d="M152.055 30.8707C151.642 30.663 151.24 30.434 150.85 30.1846C150.463 29.9356 150.087 29.681 149.744 29.4099C149.011 28.875 148.306 28.3025 147.632 27.6945C147.55 27.6222 147.494 27.525 147.472 27.4178C147.3 26.6376 147.151 25.8463 147.057 25.0495C146.942 24.2433 146.894 23.4289 146.913 22.6148C147.287 23.3267 147.605 24.0668 147.864 24.8281C148.13 25.5918 148.351 26.3609 148.544 27.1411L148.367 26.8534C149.059 27.44 149.711 28.0708 150.341 28.7237C150.657 29.0502 150.961 29.3933 151.254 29.7419C151.541 30.1036 151.809 30.4804 152.055 30.8707ZM157.679 48.8214C157.524 46.8957 157.412 44.9701 157.341 43.0444C157.271 41.1187 157.216 39.1931 157.176 37.2674L157.209 37.439C156.905 36.6754 156.612 35.9117 156.324 35.137C156.295 35.0717 156.28 35.001 156.28 34.9295C156.28 34.8581 156.295 34.7874 156.324 34.722L157.607 32.0217V32.5031L156.33 29.8028C156.28 29.6916 156.268 29.5671 156.296 29.4486C156.96 26.9973 157.64 24.5515 158.375 22.1223V22.2661C158.132 20.3571 157.922 18.448 157.767 16.5334C158.237 18.3982 158.657 20.2741 159.05 22.1499C159.056 22.1885 159.056 22.2276 159.05 22.2661V22.2938C158.525 24.7783 157.944 27.2463 157.347 29.7142L157.314 29.349L158.624 32.0272C158.658 32.1029 158.676 32.1849 158.676 32.2679C158.676 32.3509 158.658 32.433 158.624 32.5086L157.314 35.1924V34.7718C157.596 35.5465 157.867 36.3212 158.138 37.0959C158.146 37.1472 158.146 37.1995 158.138 37.2508C158.112 39.1765 158.058 41.1021 157.977 43.0278C157.944 44.9701 157.839 46.8957 157.679 48.8214ZM172.376 43.9464C172.376 42.6294 172.376 41.3235 172.448 40.0176C172.519 38.7117 172.569 37.4058 172.663 36.0999C172.667 36.0457 172.682 35.9928 172.707 35.9449V35.9173C173.144 35.0264 173.592 34.1355 174.051 33.2557C174.51 32.3758 174.969 31.4905 175.444 30.6162L175.389 30.9537C175.262 30.1237 175.14 29.2937 175.035 28.4581C174.93 27.6226 174.814 26.7981 174.72 25.9514V25.9182C174.714 25.8537 174.725 25.7887 174.753 25.7301C175.151 24.8614 175.572 24.0092 175.992 23.1515C176.412 22.2938 176.854 21.4472 177.324 20.6116C177.064 21.5302 176.771 22.4432 176.462 23.3452C176.152 24.2471 175.848 25.1546 175.516 26.0455L175.544 25.8242C175.717 26.6468 175.878 27.4713 176.025 28.2976C176.185 29.1277 176.329 29.9577 176.462 30.7822C176.48 30.8953 176.463 31.0114 176.412 31.1142C175.959 31.9996 175.494 32.8794 175.019 33.7537C174.554 34.6335 174.068 35.5023 173.581 36.371L173.631 36.1884C173.47 37.4888 173.293 38.7836 173.078 40.0619C172.862 41.3401 172.652 42.6626 172.376 43.9464Z" fill="#455A64"/>
<path d="M175.936 30.8705C177.042 29.6987 178.212 28.5903 179.442 27.5505C180.05 27.0414 180.67 26.5323 181.294 26.0343C181.919 25.5363 182.538 25.0382 183.169 24.5513L182.997 24.7837C183.191 24.2691 183.418 23.7655 183.622 23.2565C183.827 22.7474 184.065 22.2549 184.286 21.7458C184.507 21.2367 184.745 20.7498 184.999 20.2573C185.253 19.7648 185.508 19.3277 185.784 18.8186C185.679 19.372 185.563 19.9253 185.425 20.4399C185.287 20.9545 185.143 21.5079 184.999 22.0391C184.855 22.5703 184.689 23.096 184.518 23.6161C184.347 24.1363 184.186 24.662 183.965 25.1766C183.933 25.2655 183.878 25.344 183.805 25.4035C183.185 25.9125 182.572 26.4216 181.93 26.903C181.289 27.3844 180.647 27.8548 179.995 28.3141C178.692 29.2433 177.337 30.0969 175.936 30.8705ZM172.376 44.0845C173.343 43.6529 174.333 43.2711 175.317 42.8838C176.301 42.4964 177.297 42.1478 178.292 41.7771L178.082 41.9209C178.441 41.434 178.817 40.9636 179.188 40.4878C179.558 40.0119 179.923 39.536 180.294 39.0712C181.046 38.136 181.803 37.1953 182.577 36.3044L182.467 36.4815C182.732 35.5187 183.019 34.5614 183.313 33.6041C183.606 32.6468 183.915 31.7006 184.225 30.7488V30.7156C184.24 30.6668 184.266 30.6223 184.302 30.5857C184.337 30.5491 184.381 30.5216 184.429 30.5053C185.889 30.0184 187.354 29.5536 188.853 29.1552C187.493 29.88 186.088 30.5441 184.706 31.186L184.927 30.9425C184.7 31.9164 184.49 32.8958 184.241 33.8642C183.993 34.8325 183.766 35.8009 183.501 36.7692C183.48 36.837 183.449 36.9007 183.407 36.9574C182.66 37.8981 181.886 38.8166 181.112 39.7241C180.73 40.1889 180.332 40.6372 179.94 41.0964C179.547 41.5557 179.16 42.0095 178.756 42.4521L178.729 42.4853C178.678 42.5395 178.613 42.5779 178.541 42.596C177.523 42.8653 176.5 43.1235 175.472 43.3707C174.449 43.675 173.421 43.8964 172.376 44.0845ZM204.197 50.4093C205.673 49.2141 207.177 48.0631 208.692 46.9343L208.554 47.1722C208.668 45.1691 208.81 43.1715 208.98 41.1794C208.98 41.1794 208.98 41.1296 208.98 41.1075C209.378 39.6024 209.803 38.1084 210.229 36.6088C210.256 36.5224 210.301 36.443 210.362 36.3764C211.064 35.6736 211.788 34.9819 212.502 34.2902C213.215 33.5986 213.934 32.8958 214.664 32.2152L214.509 32.5859C214.538 30.7414 214.583 28.8822 214.641 27.0082V26.9805C214.644 26.8888 214.681 26.8015 214.747 26.737C216.439 25.1766 218.136 23.6217 219.894 22.1276C218.396 23.8817 216.842 25.5805 215.283 27.2738L215.393 27.0082C215.454 28.8674 215.504 30.7267 215.532 32.5859C215.531 32.7165 215.48 32.8417 215.388 32.9345C214.691 33.6484 213.972 34.3456 213.265 35.0483C212.557 35.7511 211.849 36.4538 211.13 37.14L211.274 36.9021C210.832 38.3961 210.395 39.8846 209.931 41.3731V41.2846C209.702 43.2729 209.446 45.2576 209.162 47.2386C209.155 47.2814 209.139 47.3222 209.115 47.3584C209.091 47.3946 209.06 47.4255 209.024 47.4489C207.445 48.4841 205.835 49.4714 204.197 50.4093Z" fill="#455A64"/>
<path d="M209.477 41.2294C209.25 39.3038 209.129 37.356 209.046 35.4524V35.5852C208.72 34.7552 208.427 33.9252 208.117 33.073C207.807 32.2209 207.536 31.3853 207.243 30.5442C207.198 30.421 207.198 30.2857 207.243 30.1624C208.032 28.3179 208.86 26.49 209.726 24.6787L209.693 24.8005C209.848 23.8044 210.019 22.8029 210.201 21.8069C210.384 20.8108 210.589 19.8148 210.832 18.8298C210.823 20.8577 210.736 22.8844 210.572 24.9056C210.578 24.9348 210.578 24.9649 210.572 24.9941V25.0273C209.853 26.9032 209.085 28.7569 208.283 30.5996V30.2067C208.554 31.0588 208.836 31.9055 209.096 32.7576C209.355 33.6098 209.621 34.4619 209.859 35.3252V35.3639C209.864 35.3969 209.864 35.4305 209.859 35.4635C209.825 37.3781 209.704 39.3038 209.477 41.2294ZM215.051 32.564C215.659 31.6067 216.306 30.6936 216.975 29.7972L216.925 29.8747C217.063 29.5095 217.213 29.1498 217.356 28.768C217.5 28.3862 217.644 28.0431 217.804 27.6613C218.114 26.9475 218.412 26.2281 218.744 25.5198C218.789 25.431 218.857 25.3559 218.94 25.3024C219.024 25.2488 219.12 25.2188 219.22 25.2155H221.907C221.957 25.2093 222.007 25.2093 222.056 25.2155C222.609 25.387 223.112 25.5586 223.638 25.7688C224.163 25.9791 224.688 26.1285 225.213 26.3222H225.053H227.503C228.321 26.3222 229.134 26.3775 229.958 26.455C229.15 26.6321 228.343 26.7538 227.536 26.8811C226.729 27.0083 225.916 27.1024 225.108 27.1909C225.072 27.1966 225.035 27.1966 224.998 27.1909H224.948C224.395 27.0581 223.875 26.8977 223.334 26.7538C222.792 26.6099 222.266 26.4495 221.736 26.289H221.896H219.209L219.695 25.9791C219.363 26.6819 218.993 27.3735 218.645 28.0708C218.468 28.4194 218.274 28.7569 218.092 29.1055C217.909 29.4541 217.727 29.7917 217.539 30.1292L217.511 30.179C216.734 31.0173 215.913 31.8134 215.051 32.564ZM208.88 47.2056C210.235 46.8514 211.6 46.5803 212.966 46.3202L212.8 46.3811C213.624 45.7503 214.459 45.1139 215.288 44.5108C216.118 43.9076 216.975 43.2989 217.826 42.7013C217.885 42.659 217.951 42.6292 218.022 42.614C218.092 42.5988 218.165 42.5983 218.236 42.6128C218.899 42.7456 219.557 42.9061 220.221 43.0555C220.884 43.2049 221.548 43.3598 222.206 43.5258L221.758 43.6531C222.639 42.8452 223.538 42.0539 224.456 41.2792C225.374 40.5045 226.308 39.752 227.276 39.0326C226.518 39.9733 225.728 40.8753 224.915 41.7606C224.102 42.646 223.284 43.5147 222.443 44.3669C222.39 44.4221 222.323 44.4632 222.25 44.4863C222.177 44.5095 222.099 44.5141 222.023 44.4997H221.995C221.326 44.378 220.657 44.2507 219.994 44.1124C219.33 43.974 218.661 43.8467 218.003 43.6918L218.429 43.6033C217.566 44.1566 216.715 44.7708 215.836 45.3297C214.957 45.8886 214.089 46.4364 213.204 46.9898H213.165C213.127 47.0133 213.083 47.0266 213.038 47.0285C211.667 47.1392 210.279 47.2056 208.88 47.2056ZM249.957 50.3818C250.122 49.3431 250.372 48.3197 250.704 47.3218C251.035 46.3313 251.395 45.3574 251.809 44.4056C251.855 44.3133 251.925 44.2355 252.011 44.1807C252.098 44.126 252.199 44.0966 252.301 44.0958C253.076 44.1179 253.85 44.1677 254.624 44.2452C255.406 44.324 256.182 44.4572 256.946 44.6436C256.182 44.8282 255.406 44.9594 254.624 45.0364C253.85 45.1139 253.076 45.1637 252.301 45.1859L252.805 44.8483C252.44 45.8222 252.008 46.7684 251.549 47.7036C251.093 48.6386 250.56 49.5343 249.957 50.3818Z" fill="#455A64"/>
<path d="M10.8817 45.7059C14.6406 43.0031 18.6426 40.656 22.836 38.695C27.0386 36.7337 31.4292 35.2042 35.9404 34.1299C40.4726 33.1209 45.0692 32.4276 49.6973 32.0548C52.003 31.8445 54.3032 31.6066 56.6199 31.4683C58.9367 31.3299 61.2424 31.2414 63.5537 31.1639L77.4101 30.8208L91.2775 30.5331C92.4331 30.4944 93.5832 30.428 94.7223 30.2952C95.8613 30.1624 97.0003 29.9687 98.1338 29.7418C100.398 29.3017 102.636 28.7326 104.835 28.0375C109.247 26.6548 113.508 24.8287 117.553 22.587C113.543 24.9132 109.308 26.8265 104.913 28.2976C102.71 29.0232 100.467 29.62 98.1947 30.0849C97.0888 30.3118 95.9166 30.522 94.7665 30.6382C93.6164 30.7544 92.4497 30.8651 91.2941 30.9205C86.6606 31.1086 82.0436 31.1473 77.4211 31.2857L63.5868 31.7339C61.2756 31.8058 58.9644 31.8833 56.6586 32.0105C54.3529 32.1378 52.0583 32.3702 49.7581 32.5639C45.1514 32.9268 40.5728 33.5867 36.051 34.5394C31.5467 35.5531 27.1563 37.0195 22.9466 38.9163C18.7215 40.7968 14.6821 43.0699 10.8817 45.7059ZM181.289 12.8315C184.503 10.845 187.896 9.16472 191.424 7.81259C194.965 6.47209 198.633 5.49503 202.372 4.89644C206.115 4.3538 209.892 4.07275 213.674 4.05535C215.559 4.01662 217.445 3.96128 219.336 3.99448C221.227 4.02768 223.112 4.08855 224.998 4.16602C232.534 4.49803 240.071 4.91858 247.591 5.32805C249.466 5.42131 251.345 5.35095 253.208 5.11778C255.068 4.90148 256.915 4.57816 258.738 4.14942C262.418 3.3024 266.002 2.08434 269.437 0.513916C266.039 2.16933 262.482 3.47635 258.821 4.41503C256.983 4.88027 255.12 5.24053 253.241 5.49406C251.364 5.75578 249.468 5.85206 247.574 5.7818C243.792 5.6656 240.038 5.41106 236.267 5.22845L224.97 4.7249C223.09 4.6419 221.205 4.56443 219.325 4.53123C217.445 4.49803 215.565 4.53123 213.679 4.56443C209.918 4.58019 206.162 4.83524 202.433 5.32805C198.709 5.88004 195.05 6.80699 191.512 8.0948C187.966 9.3556 184.544 10.9412 181.289 12.8315ZM25.5287 111.798C27.4695 112.351 29.4379 112.833 31.4174 113.22C33.3969 113.607 35.4041 113.901 37.4001 114.188C39.3861 114.518 41.3975 114.67 43.4105 114.642C44.407 114.607 45.3952 114.447 46.352 114.166C47.2999 113.873 48.1997 113.442 49.0227 112.888C49.8515 112.335 50.6156 111.691 51.3008 110.968C51.9858 110.269 52.5137 109.431 52.849 108.511C53.0006 108.061 53.0608 107.585 53.0259 107.111C52.9729 106.639 52.8283 106.183 52.6001 105.766C52.1027 104.932 51.4004 104.239 50.5598 103.752C49.7202 103.24 48.7744 102.928 47.7952 102.839C47.3247 102.794 46.8498 102.839 46.3963 102.972C45.9502 103.096 45.5503 103.348 45.2462 103.697C44.6574 104.457 44.3193 105.381 44.2786 106.342C44.1855 107.319 44.2547 108.304 44.4831 109.258C44.9642 111.167 46.2249 112.788 47.6293 114.188C49.0894 115.571 50.6312 116.864 52.2463 118.062C55.4106 120.559 58.9099 122.598 62.6413 124.121C70.2182 127.042 78.4853 127.674 86.4173 125.936C82.4713 126.882 78.4099 127.254 74.3579 127.043C72.331 126.927 70.3161 126.655 68.331 126.229C66.3397 125.816 64.3852 125.243 62.4865 124.514C58.7078 123.02 55.1668 120.982 51.9753 118.466C50.3368 117.271 48.7727 115.978 47.292 114.592C45.8489 113.17 44.5274 111.477 43.9744 109.424C43.7284 108.407 43.6574 107.355 43.7643 106.314C43.8173 105.242 44.204 104.212 44.8702 103.37C45.2397 102.953 45.7216 102.652 46.258 102.502C46.7763 102.351 47.3187 102.3 47.856 102.352C48.905 102.454 49.9168 102.795 50.8142 103.348C51.7299 103.883 52.4918 104.645 53.0259 105.562C53.2862 106.035 53.448 106.557 53.5014 107.094C53.5424 107.632 53.4728 108.173 53.2968 108.683C52.9419 109.669 52.3758 110.566 51.638 111.311C50.9218 112.052 50.1242 112.709 49.2604 113.27C48.39 113.829 47.4416 114.256 46.446 114.537C45.457 114.814 44.4373 114.967 43.4105 114.991C41.3705 114.991 39.3348 114.806 37.3282 114.437C35.3322 114.105 33.3361 113.773 31.3566 113.331C29.3771 112.888 27.4585 112.401 25.5287 111.798Z" fill="#A0C2EA"/>
<path d="M11.8106 118.615C11.8106 118.615 1.85784 119.722 0 131.165C0 131.165 14.73 125.72 11.8106 118.615ZM105.897 143.781C105.897 143.781 102.745 149.957 108.352 153.144C108.352 153.144 109.712 146.26 107.473 142.73L105.897 143.781ZM151.597 140.401C151.597 140.401 147.566 148.098 153.172 151.75C153.172 151.75 156.02 143.732 153.537 141.186L153.145 141.225L151.597 140.401ZM58.9367 93.6204C58.9367 93.6204 51.4722 91.8607 46.6451 97.6875C46.6451 97.6875 59.7827 98.761 58.9367 93.6204ZM101.402 108.6C101.402 108.6 97.4703 100.587 91.4987 104.223C91.4987 104.223 98.073 112.423 101.402 108.6ZM135.971 111.853C135.971 111.853 138.575 103.232 142.705 104.3C142.705 104.3 140.494 112.091 136.535 113.635L136.684 113.082L135.971 111.853ZM131.376 97.3499C131.376 97.3499 126.715 94.9816 131.376 86.283C131.376 86.2442 136.021 95.2583 131.376 97.3499ZM133.339 67.0375C133.339 67.0375 128.556 66.2628 125.836 73.5338C125.836 73.5559 134.047 71.7078 133.339 67.0375ZM161.61 78.7298C161.61 78.7298 155.743 79.0728 153.952 87.5833C153.952 87.5833 163.158 85.9233 162.799 80.6277L161.61 78.7298ZM91.4931 50.8686C91.4931 50.8686 84.5926 44.0292 77.117 50.271C77.0949 50.2599 86.2569 57.5088 91.4931 50.8686ZM134.135 45.4845C134.135 45.4845 126.267 43.8245 122.684 50.4647C122.684 50.4647 133.366 52.0417 135.788 46.5304L134.135 45.4845ZM151.226 31.2247C151.226 31.2247 145.476 26.2446 139.615 29.1718C139.603 29.1718 145.365 37.3614 151.226 31.2247ZM207.547 33.5543C207.547 33.5543 199.287 31.8611 196.666 40.355C196.666 40.355 203.434 42.3194 207.547 33.5543ZM211.628 72.084C211.628 72.084 206.9 75.9575 208.145 80.4175C208.145 80.4175 214.901 78.3756 214.559 71.6801L212.994 72.084H211.628ZM259.208 64.9126C259.208 64.9126 259.401 60.9451 254.723 59.9989C254.723 59.9989 254.486 66.2351 259.208 64.9126ZM249.282 144.65C249.282 144.65 244.107 146.57 245.965 151.086C245.965 151.086 251.129 149.343 251.898 144.905L251.489 144.706L249.282 144.65Z" fill="#10B981"/>
<path d="M271.56 111.516C269.217 113.862 266.621 115.941 263.819 117.713C266.162 115.367 268.758 113.288 271.56 111.516ZM169.462 76.0517C169.528 77.9718 169.561 79.9251 169.605 81.8176L169.688 87.589L169.655 87.4728L172.337 91.7834L175.002 96.0995C175.023 96.135 175.036 96.1747 175.041 96.2157L175.594 103.658L175.566 103.564L178.452 108.987L179.873 111.71L181.278 114.443L179.724 111.793L178.187 109.131L175.151 103.791C175.137 103.763 175.128 103.733 175.124 103.703L174.499 96.2434L174.538 96.3651L171.9 92.0324L169.268 87.6942C169.248 87.6589 169.238 87.6186 169.241 87.578L169.323 81.8065C169.362 79.8975 169.395 77.9829 169.462 76.0517ZM227.348 140.013C226.242 141.159 225.108 142.293 223.958 143.4L222.244 145.06L220.503 146.72C220.478 146.744 220.448 146.762 220.416 146.773C220.383 146.785 220.349 146.789 220.315 146.786L219.275 146.687L219.54 146.532L218.916 147.987C218.917 148 218.917 148.013 218.916 148.026C218.313 148.939 217.688 149.835 217.069 150.737C216.45 151.639 215.847 152.547 215.211 153.443L213.314 156.121C212.668 157.001 212.032 157.892 211.368 158.761C211.921 157.82 212.513 156.896 213.082 155.961L214.846 153.194C215.438 152.276 216.051 151.368 216.649 150.455C217.246 149.542 217.848 148.623 218.468 147.721L218.44 147.766L219.093 146.321C219.115 146.272 219.153 146.231 219.201 146.204C219.249 146.177 219.304 146.166 219.358 146.172L220.392 146.288L220.193 146.349L221.962 144.733L223.754 143.145C224.926 142.083 226.124 141.039 227.348 140.013ZM224.981 90.9202C224.544 91.4293 224.102 91.9273 223.654 92.4253C223.206 92.9233 222.764 93.4324 222.311 93.9249L219.585 96.8853L219.629 96.8244L218.352 99.4694C218.325 99.5242 218.28 99.5675 218.224 99.5912L215.725 100.67L215.875 100.515L214.658 103.603C214.249 104.632 213.851 105.667 213.425 106.691C212.585 108.738 211.739 110.78 210.837 112.805C211.529 110.702 212.275 108.616 213.049 106.536C213.414 105.49 213.818 104.461 214.205 103.426L215.377 100.316C215.39 100.282 215.41 100.252 215.436 100.226C215.462 100.2 215.492 100.18 215.526 100.167L218.036 99.1153L217.904 99.2426L219.22 96.6197C219.227 96.5981 219.241 96.579 219.258 96.5644L222.101 93.7201C222.576 93.2443 223.063 92.785 223.544 92.3146C224.025 91.8443 224.489 91.3795 224.981 90.9202ZM252.832 122.4C252.329 123.009 251.815 123.607 251.306 124.204C250.798 124.802 250.283 125.405 249.764 125.991C249.742 126.013 249.716 126.029 249.686 126.036C248.132 126.423 246.59 126.838 245.03 127.209L245.174 127.109L242.963 130.562C242.233 131.713 241.475 132.853 240.718 133.993C240.7 134.022 240.675 134.047 240.646 134.065L238.036 135.769C237.168 136.322 236.278 136.876 235.404 137.429C234.53 137.983 233.651 138.536 232.767 139.089C231.882 139.643 230.997 140.196 230.101 140.711C230.942 140.096 231.793 139.504 232.639 138.901C233.485 138.298 234.348 137.717 235.199 137.119C236.051 136.522 236.902 135.93 237.771 135.36L240.358 133.622L240.286 133.7C241.022 132.549 241.757 131.392 242.498 130.258L244.76 126.838C244.795 126.79 244.846 126.754 244.903 126.738C246.463 126.384 248.033 126.063 249.603 125.726L249.52 125.77C250.073 125.217 250.626 124.663 251.179 124.077C251.732 123.49 252.274 122.959 252.832 122.4ZM203.091 239.063C204.141 235.671 205.264 232.301 206.381 228.931L208.106 223.89C208.659 222.23 209.25 220.531 209.853 218.86V218.821L212.557 214.212V214.422C212.175 213.531 211.816 212.624 211.451 211.727L210.345 209.033C209.608 207.229 208.893 205.423 208.2 203.615C209.026 205.375 209.835 207.14 210.627 208.911L211.816 211.572C212.209 212.458 212.612 213.343 212.994 214.234C213.01 214.268 213.018 214.305 213.018 214.342C213.018 214.379 213.01 214.416 212.994 214.45L210.34 219.087V219.043C209.787 220.703 209.179 222.396 208.581 224.067L206.795 229.08C205.596 232.417 204.379 235.754 203.091 239.063ZM179.978 144.65L184.717 147.163L189.445 149.691C189.466 149.702 189.484 149.72 189.494 149.741L193.415 155.828L197.396 161.096C197.416 161.123 197.43 161.155 197.438 161.188C197.446 161.221 197.446 161.256 197.44 161.29L195.676 172.24V172.152C196.483 177.503 197.335 182.848 198.114 188.199C198.894 193.55 199.69 198.912 200.42 204.274C199.475 198.945 198.584 193.605 197.711 188.265C196.837 182.926 195.997 177.575 195.134 172.218V172.13L196.953 161.184L196.998 161.373L193.061 156.038L189.234 149.918L189.29 149.974L184.629 147.329L179.978 144.65ZM186.05 246.306C187.67 244.796 189.295 243.285 190.943 241.802C192.591 240.319 194.222 238.819 195.886 237.375L195.803 237.519L196.87 231.139L197.976 224.77C198.341 222.645 198.761 220.531 199.154 218.406C199.547 216.281 199.972 214.173 200.404 212.059C200.109 214.195 199.797 216.329 199.469 218.462C199.132 220.592 198.822 222.728 198.457 224.853L197.396 231.216L196.29 237.585C196.281 237.641 196.254 237.691 196.212 237.729C194.554 239.185 192.845 240.612 191.159 242.051C189.472 243.49 187.764 244.901 186.05 246.306ZM190.96 120.419C191.833 121.825 192.657 123.258 193.47 124.702C194.283 126.146 195.068 127.596 195.847 129.051C196.627 130.507 197.385 131.979 198.114 133.478L199.22 135.692C199.569 136.444 199.928 137.186 200.26 137.949C199.817 137.247 199.408 136.527 198.983 135.819L197.75 133.666C196.931 132.228 196.152 130.772 195.372 129.312C194.592 127.851 193.835 126.384 193.105 124.885C192.375 123.385 191.634 121.93 190.96 120.419ZM175.378 143.616C173.039 143.118 170.717 142.542 168.4 141.956C166.083 141.369 163.778 140.733 161.477 140.085C161.439 140.075 161.404 140.056 161.374 140.03C161.345 140.004 161.321 139.972 161.306 139.936C160.952 139.034 160.587 138.143 160.244 137.236L160.471 137.368L157.518 137.689C156.534 137.772 155.55 137.877 154.56 137.949C155.533 137.75 156.507 137.595 157.485 137.396L160.416 136.926C160.46 136.918 160.506 136.925 160.546 136.946C160.586 136.967 160.618 137.001 160.637 137.042C161.035 137.927 161.406 138.818 161.787 139.703L161.616 139.549C163.927 140.168 166.233 140.794 168.527 141.463C170.822 142.133 173.111 142.858 175.378 143.616ZM151.265 138.735C150.528 137.975 149.816 137.204 149.13 136.422C148.434 135.636 147.726 134.862 147.046 134.065L147.212 134.148C145 133.998 142.788 133.805 140.61 133.594C139.504 133.489 138.398 133.351 137.292 133.224C136.186 133.096 135.081 132.936 134.008 132.77C135.114 132.77 136.22 132.831 137.325 132.897C138.431 132.964 139.537 133.008 140.643 133.096C142.855 133.251 145.055 133.436 147.245 133.65C147.307 133.66 147.364 133.691 147.405 133.738C148.069 134.552 148.705 135.398 149.352 136.212C149.999 137.025 150.646 137.888 151.265 138.735ZM162.207 67.7847C163.258 69.2678 164.225 70.8085 165.105 72.3996C166.004 73.9784 166.81 75.608 167.521 77.2801C166.465 75.8004 165.497 74.2594 164.624 72.6652C163.725 71.0864 162.918 69.4568 162.207 67.7847ZM207.934 118.532C207.728 121.734 207.507 124.935 207.271 128.133L206.53 137.745C206.53 137.782 206.518 137.819 206.497 137.85L204.423 141.065V140.794L208.167 146.775C208.198 146.829 208.211 146.891 208.205 146.952L207.249 154.522C206.928 157.045 206.624 159.574 206.281 162.092L205.275 169.656L204.208 177.209L205.004 169.623L205.855 162.042C206.132 159.513 206.453 156.99 206.751 154.461L207.658 146.886L207.697 147.069L203.998 141.065C203.971 141.025 203.956 140.977 203.956 140.929C203.956 140.881 203.971 140.834 203.998 140.794L206.088 137.59L206.049 137.695L206.956 128.116C207.265 124.918 207.592 121.723 207.934 118.532ZM183.13 112.805L184.667 117.442L186.166 122.085C186.658 123.634 187.166 125.184 187.642 126.738L189.091 131.398L189.041 131.304L191.971 134.712L194.874 138.137C194.913 138.18 194.934 138.235 194.935 138.292L195.145 142.719L195.322 147.146C195.444 150.084 195.532 153.028 195.604 155.966C195.368 153.015 195.156 150.081 194.968 147.163L194.681 142.736L194.432 138.309L194.493 138.464L191.557 135.061L188.643 131.658C188.621 131.63 188.604 131.598 188.593 131.564L187.183 126.888C186.708 125.333 186.265 123.767 185.806 122.207L184.446 117.52L183.13 112.805ZM204.833 179.246C204.545 180.352 204.23 181.459 203.931 182.566C203.633 183.673 203.301 184.752 202.986 185.847V185.77C203.273 187.845 203.511 189.925 203.76 192.012C204.009 194.098 204.246 196.173 204.462 198.259C204.678 200.345 204.904 202.426 205.087 204.517C205.269 206.609 205.463 208.689 205.612 210.781C205.297 208.712 204.998 206.637 204.733 204.556C204.468 202.475 204.18 200.395 203.953 198.314C203.727 196.234 203.461 194.153 203.246 192.067C203.03 189.981 202.798 187.9 202.61 185.808C202.605 185.785 202.605 185.76 202.61 185.737C202.969 184.658 203.318 183.573 203.716 182.499C204.114 181.426 204.446 180.303 204.833 179.246ZM208.913 157.997C210.546 160.779 212.159 163.579 213.751 166.397C213.759 166.43 213.759 166.464 213.751 166.497C213.475 169.119 213.198 171.737 212.883 174.354L211.976 182.212L211.009 190.064C210.699 192.681 210.34 195.293 209.997 197.905V197.855L210.788 202.182L211.551 206.509L210.594 202.215L209.671 197.921C209.668 197.905 209.668 197.888 209.671 197.872C209.953 195.249 210.224 192.626 210.533 190.008L211.435 182.151L212.397 174.304C212.712 171.687 213.055 169.075 213.403 166.458V166.569C211.899 163.724 210.402 160.867 208.913 157.997ZM214.984 192.432C216.09 196.095 217.196 199.775 218.252 203.46C219.308 207.146 220.342 210.842 221.387 214.527C221.4 214.571 221.401 214.618 221.39 214.663C221.38 214.707 221.358 214.748 221.326 214.782C220.309 215.889 219.275 216.995 218.252 218.074L218.313 217.831C218.999 220.669 219.717 223.503 220.37 226.352C221.022 229.202 221.691 232.046 222.305 234.907C221.503 232.096 220.74 229.274 219.994 226.446C219.247 223.619 218.529 220.791 217.782 217.958C217.772 217.915 217.773 217.87 217.785 217.828C217.796 217.785 217.818 217.746 217.848 217.715C218.866 216.608 219.883 215.501 220.912 214.394L220.851 214.649C219.85 210.947 218.816 207.256 217.843 203.549C216.87 199.841 215.908 196.156 214.984 192.432ZM210.434 223.829C211.237 224.88 212.021 225.948 212.784 227.033C212.806 227.063 212.816 227.101 212.811 227.138C212.717 229.219 212.568 231.294 212.408 233.369C212.247 235.444 212.054 237.519 211.811 239.588C211.806 239.624 211.791 239.657 211.766 239.683C211.296 240.186 210.837 240.695 210.351 241.188C209.864 241.68 209.4 242.184 208.908 242.671C209.328 242.117 209.759 241.564 210.185 241.044C210.611 240.524 211.059 239.976 211.495 239.445L211.446 239.55C211.54 237.464 211.7 235.389 211.86 233.314C212.021 231.238 212.22 229.169 212.457 227.099L212.491 227.21C211.783 226.1 211.097 224.973 210.434 223.829Z" fill="#263238"/>
<path d="M215.736 218.533C215.803 221.499 215.863 224.465 215.897 227.431C215.93 230.397 215.98 233.363 215.98 236.329L215.88 236.135L218.927 238.41L221.973 240.695C222.969 241.481 224.025 242.184 225.048 242.908C226.071 243.633 227.093 244.414 228.116 245.166H228.072L238.113 248.486L227.984 245.437C227.973 245.441 227.961 245.441 227.951 245.437C226.894 244.735 225.816 244.054 224.777 243.329C223.737 242.604 222.659 241.924 221.658 241.143L218.623 238.836L215.593 236.528C215.564 236.505 215.54 236.475 215.524 236.442C215.508 236.409 215.499 236.372 215.499 236.335C215.499 233.369 215.554 230.403 215.581 227.437C215.609 224.471 215.642 221.516 215.736 218.533ZM231.235 85.1763C231.815 84.5621 232.418 83.9645 233.01 83.3613C233.601 82.7582 234.21 82.1716 234.812 81.5796C234.833 81.5591 234.859 81.5435 234.886 81.534C234.914 81.5244 234.944 81.5211 234.973 81.5242C236.775 81.8064 238.567 82.144 240.358 82.4815C242.15 82.8191 243.941 83.1787 245.727 83.555H245.583C247.375 82.7361 249.166 81.895 250.991 81.1646C249.277 82.1384 247.53 83.0515 245.782 83.959C245.739 83.9722 245.693 83.9722 245.65 83.959C243.853 83.6546 242.061 83.3226 240.27 82.9795C238.478 82.6365 236.687 82.2768 234.906 81.8728L235.083 81.823C234.447 82.3764 233.817 82.9297 233.17 83.4831C232.523 84.0364 231.893 84.623 231.235 85.1763Z" fill="#263238"/>
<path d="M143.844 247.8C149.854 247.8 154.726 239.352 154.726 228.931C154.726 218.51 149.854 210.062 143.844 210.062C137.835 210.062 132.963 218.51 132.963 228.931C132.963 239.352 137.835 247.8 143.844 247.8Z" stroke="#C7C7C7" stroke-linecap="round" stroke-linejoin="round"/>
<path d="M153.161 237.231C154.71 233.656 153.543 231.465 153.543 228.931C153.543 223.602 151.762 217.571 148.566 213.786C147.711 216.496 147.254 219.316 147.212 222.158C147.245 227.487 150.004 233.474 153.161 237.231Z" fill="#C7C7C7"/>
<path d="M160.587 241.066C166.597 241.066 171.469 232.618 171.469 222.197C171.469 211.775 166.597 203.327 160.587 203.327C154.577 203.327 149.706 211.775 149.706 222.197C149.706 232.618 154.577 241.066 160.587 241.066Z" fill="white"/>
<path d="M133.87 229.523C133.87 231.631 133.018 233.314 134.185 236.163C139.161 232.174 142.938 225.473 142.938 218.578C142.873 216.147 142.521 213.732 141.887 211.384C136.883 215.335 133.87 222.628 133.87 229.523Z" fill="#C7C7C7"/>
<path d="M130.115 236.357C136.125 236.357 140.997 227.909 140.997 217.488C140.997 207.066 136.125 198.618 130.115 198.618C124.105 198.618 119.234 207.066 119.234 217.488C119.234 227.909 124.105 236.357 130.115 236.357Z" fill="white"/>
<path d="M143.844 247.8V219.507M143.844 230.585L139.438 225.544M143.844 236.606L137.497 229.34M143.844 242.814L137.287 235.305M143.844 230.602L149.191 224.482M143.844 236.622L150.402 229.113M143.844 242.825L150.402 235.322" stroke="#C7C7C7" stroke-linecap="round" stroke-linejoin="round"/>
<path d="M130.115 236.357C136.125 236.357 140.997 227.909 140.997 217.488C140.997 207.066 136.125 198.618 130.115 198.618C124.105 198.618 119.234 207.066 119.234 217.488C119.234 227.909 124.105 236.357 130.115 236.357Z" stroke="#10B981" stroke-linecap="round" stroke-linejoin="round"/>
<path d="M130.11 208.059V247.878M130.115 219.142L124.78 213.039M130.115 225.163L123.552 217.659M130.115 231.371L123.552 223.862M130.115 219.159L135.457 213.039M130.115 225.174L136.673 217.67M130.115 231.382L136.673 223.879" stroke="#10B981" stroke-linecap="round" stroke-linejoin="round"/>
<path d="M160.587 241.066C166.597 241.066 171.469 232.618 171.469 222.197C171.469 211.775 166.597 203.327 160.587 203.327C154.577 203.327 149.706 211.775 149.706 222.197C149.706 232.618 154.577 241.066 160.587 241.066Z" stroke="#263238" stroke-linecap="round" stroke-linejoin="round"/>
<path d="M160.587 212.768V247.878M160.587 223.851L155.251 217.748M160.587 229.872L154.029 222.368M160.587 236.075L154.029 228.571M160.587 223.862L165.934 217.748M160.587 229.883L167.145 222.379M160.587 236.086L167.145 228.582" stroke="#263238" stroke-linecap="round" stroke-linejoin="round"/>
<path d="M46.7833 247.878H262.326" stroke="#545454" stroke-linecap="round" stroke-linejoin="round"/>
</g>
<defs>
<clipPath id="clip0_43_1059">
<rect width="328" height="247.972" fill="white" transform="translate(0 0.513916)"/>
</clipPath>
</defs>
</svg>
