<svg width="360" height="210" viewBox="0 0 360 210" fill="none" xmlns="http://www.w3.org/2000/svg">
<g clip-path="url(#clip0_131_45290)">
<ellipse cx="180" cy="105" rx="540" ry="315" fill="url(#paint0_linear_131_45290)"/>
<path d="M149.426 87.6595C140.744 83.8195 128.201 87.2328 121.448 84.1377C112.421 80.001 110.371 78.919 102.128 77.7891C94.6032 76.7574 87.7897 79.0915 80.5416 73.9239C75.3319 70.2098 70.4177 70.5858 64.1306 71.4111C57.8434 72.2365 55.9115 71.3228 47.4501 67.579C41.8545 65.1029 36.7412 64.226 25.1641 64.4323C15.3999 64.6065 7.72034 63.4493 0.582619 62C-6.28111 70.228 -11.257 79.0015 -14 88.1795C13.9628 89.7489 22.3678 89.0667 33.2681 90.9469C45.2312 93.0103 161.518 105.597 163.576 104.978C165.635 104.359 167 94.5355 167 94.5355C155.322 93.4073 155.163 90.197 149.426 87.6595Z" fill="#36B294"/>
<path d="M149.426 87.6595C140.744 83.8195 128.201 87.2328 121.448 84.1377C112.421 80.001 110.371 78.919 102.128 77.7891C94.6032 76.7574 87.7897 79.0915 80.5416 73.9239C75.3319 70.2098 70.4177 70.5858 64.1306 71.4111C57.8434 72.2365 55.9115 71.3228 47.4501 67.579C41.8545 65.1029 36.7412 64.226 25.1641 64.4323C15.3999 64.6065 7.72034 63.4493 0.582619 62C-6.28111 70.228 -11.257 79.0015 -14 88.1795C13.9628 89.7489 22.3678 89.0667 33.2681 90.9469C45.2312 93.0103 161.518 105.597 163.576 104.978C165.635 104.359 167 94.5355 167 94.5355C155.322 93.4073 155.163 90.197 149.426 87.6595Z" fill="#5D6583" fill-opacity="0.738227"/>
<path d="M297.073 113.621C295.109 113.621 293.52 112.693 293.52 111.549V89.2372C293.52 88.0933 295.11 87.1655 297.073 87.1655C299.037 87.1655 300.627 88.0933 300.627 89.2372V111.549C300.627 112.693 299.037 113.621 297.073 113.621Z" fill="#674447"/>
<path d="M297.073 113.621C295.109 113.621 293.52 112.693 293.52 111.549V89.2372C293.52 88.0933 295.11 87.1655 297.073 87.1655C299.037 87.1655 300.627 88.0933 300.627 89.2372V111.549C300.627 112.693 299.037 113.621 297.073 113.621Z" fill="#8588A6" fill-opacity="0.469706"/>
<path d="M319.455 87.3367C319.455 94.5476 309.434 100.393 297.073 100.393C284.711 100.393 274.69 94.5476 274.69 87.3367C274.69 80.1257 284.711 57.9592 297.073 57.9592C309.434 57.9596 319.455 80.1257 319.455 87.3367Z" fill="#43AB5F"/>
<path d="M319.455 87.3367C319.455 94.5476 309.434 100.393 297.073 100.393C284.711 100.393 274.69 94.5476 274.69 87.3367C274.69 80.1257 284.711 57.9592 297.073 57.9592C309.434 57.9596 319.455 80.1257 319.455 87.3367Z" fill="#A0A7C3" fill-opacity="0.398585"/>
<path d="M297.072 57.9592C293.97 57.9592 291.014 59.3583 288.328 61.5649H288.328C299.642 61.5649 308.814 81.8529 308.814 88.4527C308.814 94.1937 301.868 98.9802 292.615 100.131C294.056 100.301 295.545 100.393 297.072 100.393C309.433 100.393 319.454 94.5476 319.454 87.3367C319.455 80.1257 309.433 57.9592 297.072 57.9592Z" fill="#71BE63"/>
<path d="M297.072 57.9592C293.97 57.9592 291.014 59.3583 288.328 61.5649H288.328C299.642 61.5649 308.814 81.8529 308.814 88.4527C308.814 94.1937 301.868 98.9802 292.615 100.131C294.056 100.301 295.545 100.393 297.072 100.393C309.433 100.393 319.454 94.5476 319.454 87.3367C319.455 80.1257 309.433 57.9592 297.072 57.9592Z" fill="#A0A7C3" fill-opacity="0.45"/>
<path opacity="0.299991" d="M115.52 26.6601C115.52 22.7874 120.902 19.648 127.541 19.648C128.543 19.648 129.501 19.7403 130.431 19.8753C133.568 17.8991 138.015 16.6428 142.996 16.6428C152.48 16.6428 160.168 21.1279 160.168 26.6601H115.52Z" fill="white"/>
<path d="M184.268 101.62C179.467 101.62 178.666 98.8519 178.195 98.2924C172.94 92.0534 166.578 94.9649 156.14 94.9649C147.979 94.9649 146.311 88.0325 141.756 88.31C137.202 88.5874 129.864 93.0238 123.537 91.6374C114.459 89.6476 114.174 86.6462 105.317 84.9825C97.5021 83.5142 90.894 84.5665 87.0976 81.655C79.7068 75.9858 74.3822 82.1749 62.8048 78.3275C51.0304 74.4144 47.3689 81.655 38.5126 81.655C29.2083 81.655 32.4389 75 20.2928 75C13.4122 75 9.35682 79.8914 0.653945 81.2744C-2.35689 88.891 -4 96.8067 -4 104.947C-4 109.145 -3.53054 113.277 -2.70862 117.348C0.0845985 118.859 3.1047 120.188 6.13337 120.946C16.9916 123.665 245 126 245 126V114.93C228.298 114.93 228.298 108.275 214.634 108.275C196.225 108.275 197.933 101.62 184.268 101.62Z" fill="#59928E"/>
<path d="M54.6046 178L242 125.686L237.256 120.35C191.882 120.35 113.143 96.3087 -30 104.826C-30 131.107 -11.523 155.123 18.9742 173.593C38.1297 175.978 54.6046 178 54.6046 178Z" fill="#739A8F"/>
<path d="M237.656 120.449C200.656 120.449 138.67 100.348 30.4854 103.546C126.669 103.594 185.654 128.71 215.859 128.71L224.297 126.874L237.907 120.766L237.656 120.449Z" fill="#87ADA2"/>
<path opacity="0.9" d="M160.775 23.6521C162.279 23.6521 163.717 23.7907 165.115 23.9934C169.823 21.0267 172.506 19.1404 183.978 19.1404C195.45 19.1404 206.029 24.7134 206.518 30.8696C207.007 37.0258 202.849 39.5124 167.143 39.5124C144.501 39.5124 144.501 35.3395 144.501 30.8696C144.501 26.3997 153.129 23.6521 160.775 23.6521Z" fill="url(#paint1_linear_131_45290)"/>
<path d="M-119 167.358C-74.0296 220.205 26.0159 257 142.308 257C300.644 257 429 188.83 429 104.738C429 103.149 428.866 101.577 428.775 100C251.488 100.432 171.096 166.594 -119 166.594V167.358Z" fill="#71BE63"/>
<path d="M-119 167.358C-74.0296 220.205 26.0159 257 142.308 257C300.644 257 429 188.83 429 104.738C429 103.149 428.866 101.577 428.775 100C251.488 100.432 171.096 166.594 -119 166.594V167.358Z" fill="#477468"/>
<path d="M245.392 126.873C243.164 126.873 241.359 125.821 241.359 124.523V99.2039C241.359 97.9057 243.163 96.8533 245.392 96.8533C247.621 96.8533 249.424 97.9057 249.424 99.2039V124.523C249.424 125.821 247.62 126.873 245.392 126.873Z" fill="#674447"/>
<path d="M245.392 126.873C243.164 126.873 241.359 125.821 241.359 124.523V99.2039C241.359 97.9057 243.163 96.8533 245.392 96.8533C247.621 96.8533 249.424 97.9057 249.424 99.2039V124.523C249.424 125.821 247.62 126.873 245.392 126.873Z" fill="#8588A6" fill-opacity="0.469706"/>
<path d="M270.79 97.0474C270.79 105.23 259.418 111.863 245.391 111.863C231.363 111.863 219.992 105.23 219.992 97.0474C219.992 88.8648 231.363 63.7107 245.391 63.7107C259.418 63.7107 270.79 88.8643 270.79 97.0474Z" fill="#43AB5F"/>
<path d="M270.79 97.0474C270.79 105.23 259.418 111.863 245.391 111.863C231.363 111.863 219.992 105.23 219.992 97.0474C219.992 88.8648 231.363 63.7107 245.391 63.7107C259.418 63.7107 270.79 88.8643 270.79 97.0474Z" fill="#A0A7C3" fill-opacity="0.398585"/>
<path d="M245.391 63.7107C241.869 63.7107 238.516 65.2984 235.468 67.8024H235.468C248.307 67.8024 258.715 90.8245 258.715 98.3139C258.715 104.828 250.834 110.26 240.333 111.566C241.968 111.759 243.658 111.864 245.39 111.864C259.417 111.864 270.79 105.23 270.79 97.0478C270.79 88.8643 259.418 63.7107 245.391 63.7107Z" fill="#71BE63"/>
<path d="M245.391 63.7107C241.869 63.7107 238.516 65.2984 235.468 67.8024H235.468C248.307 67.8024 258.715 90.8245 258.715 98.3139C258.715 104.828 250.834 110.26 240.333 111.566C241.968 111.759 243.658 111.864 245.39 111.864C259.417 111.864 270.79 105.23 270.79 97.0478C270.79 88.8643 259.418 63.7107 245.391 63.7107Z" fill="#A0A7C3" fill-opacity="0.45"/>
<path opacity="0.800059" fill-rule="evenodd" clip-rule="evenodd" d="M104.49 0.841479C104.404 0.430353 104.905 0.0561472 105.61 0.0056673C106.314 -0.0448126 106.956 0.247549 107.042 0.658675L112.265 25.4723C112.352 25.8835 111.851 26.2577 111.146 26.3081C110.441 26.3586 109.8 26.0663 109.713 25.6551L104.49 0.841479ZM254.697 6.88818C253.992 6.96268 253.457 7.35636 253.502 7.76748L255.663 27.6184C255.708 28.0295 256.315 28.3024 257.02 28.2279C257.725 28.1534 258.26 27.7597 258.215 27.3486L256.054 7.4977C256.009 7.08657 255.402 6.81368 254.697 6.88818ZM258.74 98.6234C258.035 98.6979 257.5 99.0916 257.545 99.5027L259.706 119.354C259.751 119.765 260.358 120.038 261.063 119.963C261.768 119.889 262.303 119.495 262.258 119.084L260.097 99.2329C260.053 98.8218 259.445 98.5489 258.74 98.6234ZM135.713 18.6288L136.487 22.3042L136.902 26.1164C136.946 26.5275 137.554 26.8004 138.259 26.7259C138.279 26.7238 138.299 26.7214 138.318 26.7188C138.445 26.7326 138.578 26.7355 138.713 26.7259C139.418 26.6754 139.919 26.3012 139.832 25.8901L139.059 22.2145L138.644 18.4025C138.599 17.9914 137.991 17.7185 137.286 17.793C137.266 17.7951 137.247 17.7975 137.227 17.8001C137.1 17.7862 136.967 17.7833 136.832 17.793C136.128 17.8434 135.627 18.2177 135.713 18.6288ZM145.061 55.0206C145.081 55.0179 145.101 55.0156 145.121 55.0135C145.826 54.9389 146.433 55.2118 146.478 55.623L146.893 59.435L147.667 63.1105C147.753 63.5217 147.252 63.8959 146.547 63.9464C146.412 63.956 146.28 63.9531 146.153 63.9392C146.133 63.9419 146.113 63.9442 146.093 63.9464C145.388 64.0209 144.781 63.748 144.736 63.3368L144.321 59.5246L143.548 55.8493C143.461 55.4381 143.962 55.0639 144.667 55.0134C144.802 55.0038 144.934 55.0067 145.061 55.0206ZM160.76 129.458L160.73 129.462C160.603 129.448 160.471 129.445 160.336 129.454C159.631 129.505 159.13 129.879 159.216 130.29L159.99 133.966L160.405 137.778C160.45 138.189 161.057 138.462 161.762 138.387C161.782 138.385 161.802 138.383 161.822 138.38C161.949 138.394 162.081 138.397 162.216 138.387C162.921 138.337 163.422 137.963 163.336 137.552L162.562 133.876L162.147 130.064C162.102 129.653 161.495 129.38 160.79 129.454L160.76 129.458ZM168.565 166.682C168.584 166.679 168.604 166.677 168.624 166.675C169.329 166.6 169.937 166.873 169.981 167.284L170.396 171.097L171.17 174.772C171.257 175.183 170.755 175.557 170.051 175.608C169.916 175.617 169.783 175.615 169.656 175.601C169.637 175.603 169.617 175.606 169.597 175.608C168.892 175.682 168.284 175.409 168.239 174.998L167.825 171.186L167.051 167.511C166.964 167.1 167.466 166.725 168.17 166.675C168.305 166.665 168.438 166.668 168.565 166.682ZM176.459 203.895C176.439 203.898 176.419 203.9 176.399 203.902C176.272 203.889 176.14 203.886 176.005 203.895C175.3 203.946 174.799 204.32 174.885 204.731L175.659 208.407L176.074 212.219C176.119 212.63 176.726 212.903 177.431 212.828L177.453 212.826C177.466 212.824 177.478 212.823 177.491 212.821C177.618 212.835 177.75 212.838 177.885 212.828C178.59 212.778 179.091 212.404 179.005 211.992L178.231 208.317L177.816 204.505C177.771 204.094 177.164 203.821 176.459 203.895ZM248.634 71.4751L247.86 67.7994C247.773 67.3883 248.275 67.0141 248.979 66.9636C249.114 66.954 249.247 66.9569 249.374 66.9707L249.396 66.9679C249.408 66.9664 249.421 66.9649 249.433 66.9636C250.138 66.8891 250.746 67.162 250.791 67.5731L251.206 71.3856L251.979 75.0607C252.066 75.4718 251.564 75.8461 250.86 75.8965C250.725 75.9062 250.592 75.9033 250.465 75.8894C250.446 75.892 250.426 75.8944 250.406 75.8965C249.701 75.971 249.093 75.6981 249.049 75.287L248.634 71.4751ZM215.207 62.6676L214.433 58.992C214.346 58.5809 214.848 58.2067 215.552 58.1562C215.687 58.1466 215.82 58.1495 215.947 58.1634C215.966 58.1607 215.986 58.1583 216.006 58.1562C216.711 58.0817 217.319 58.3546 217.364 58.7657L217.779 62.5779L218.552 66.2533C218.639 66.6645 218.137 67.0387 217.433 67.0891C217.298 67.0988 217.165 67.0959 217.038 67.082C217.019 67.0846 216.999 67.087 216.979 67.0891C216.274 67.1636 215.666 66.8908 215.622 66.4796L215.207 62.6676ZM156.436 101.253C156.416 101.255 156.396 101.257 156.376 101.26C156.249 101.246 156.117 101.243 155.982 101.253C155.277 101.303 154.776 101.677 154.862 102.088L155.636 105.764L156.051 109.576C156.096 109.987 156.703 110.26 157.408 110.185C157.428 110.183 157.448 110.181 157.468 110.178C157.595 110.192 157.727 110.195 157.862 110.185C158.567 110.135 159.068 109.761 158.982 109.35L158.208 105.674L157.793 101.862C157.748 101.451 157.141 101.178 156.436 101.253ZM224.303 97.8652C224.323 97.8626 224.343 97.8602 224.363 97.8581C225.068 97.7836 225.676 98.0565 225.72 98.4676L226.135 102.28L226.909 105.955C226.995 106.366 226.494 106.741 225.789 106.791C225.655 106.801 225.522 106.798 225.395 106.784L225.361 106.788L225.336 106.791C224.631 106.865 224.023 106.593 223.978 106.181L223.563 102.37L222.79 98.6939C222.703 98.2828 223.204 97.9086 223.909 97.8581C224.044 97.8484 224.177 97.8513 224.303 97.8652ZM232.72 137.56L232.695 137.563L232.66 137.567C232.533 137.553 232.401 137.55 232.266 137.56C231.561 137.61 231.06 137.985 231.147 138.396L231.92 142.071L232.335 145.883C232.38 146.294 232.987 146.567 233.692 146.493C233.712 146.491 233.732 146.488 233.752 146.486C233.879 146.5 234.011 146.502 234.146 146.493C234.851 146.442 235.352 146.068 235.266 145.657L234.492 141.981L234.077 138.169C234.032 137.758 233.425 137.485 232.72 137.56ZM241.017 177.269L241.046 177.265L241.077 177.262C241.781 177.187 242.389 177.46 242.434 177.871L242.849 181.683L243.622 185.359C243.709 185.77 243.208 186.144 242.503 186.195C242.368 186.204 242.236 186.201 242.109 186.188C242.089 186.19 242.069 186.193 242.049 186.195C241.344 186.269 240.737 185.996 240.692 185.585L240.277 181.773L239.503 178.098C239.417 177.686 239.918 177.312 240.623 177.262C240.758 177.252 240.89 177.255 241.017 177.269ZM341.931 122.501L342.705 126.177L343.12 129.989C343.164 130.4 343.772 130.673 344.477 130.598C344.497 130.596 344.517 130.594 344.536 130.591C344.663 130.605 344.796 130.608 344.931 130.598C345.636 130.548 346.137 130.174 346.05 129.763L345.277 126.087L344.862 122.275C344.817 121.864 344.209 121.591 343.504 121.665C343.484 121.668 343.465 121.67 343.445 121.673C343.318 121.659 343.185 121.656 343.051 121.665C342.346 121.716 341.845 122.09 341.931 122.501ZM203.269 22.0543C203.182 21.6432 203.683 21.269 204.388 21.2185C205.093 21.168 205.734 21.4604 205.821 21.8715L207.388 29.3156C207.474 29.7267 206.973 30.1009 206.268 30.1514C205.564 30.2019 204.922 29.9095 204.836 29.4984L203.269 22.0543ZM196.629 155.681C196.542 155.27 197.044 154.896 197.748 154.845C198.453 154.795 199.095 155.087 199.181 155.498L200.748 162.942C200.835 163.354 200.334 163.728 199.629 163.778C198.924 163.829 198.282 163.536 198.196 163.125L196.629 155.681ZM283.109 43.3274C282.404 43.4019 281.869 43.7956 281.914 44.2067L282.724 51.6508C282.769 52.0619 283.377 52.3348 284.081 52.2603C284.786 52.1858 285.321 51.7921 285.277 51.381L284.466 43.9369C284.421 43.5258 283.814 43.2529 283.109 43.3274ZM291.466 83.0292C290.761 83.1037 290.226 83.4974 290.271 83.9085L291.081 91.3526C291.126 91.7637 291.733 92.0366 292.438 91.9621C293.143 91.8876 293.678 91.494 293.633 91.0828L292.823 83.6387C292.778 83.2276 292.171 82.9547 291.466 83.0292ZM298.627 123.61C298.583 123.199 299.118 122.806 299.823 122.731C300.527 122.657 301.135 122.929 301.18 123.341L301.99 130.785C302.035 131.196 301.5 131.589 300.795 131.664C300.09 131.738 299.483 131.466 299.438 131.054L298.627 123.61ZM75.6299 23.2902L76.4035 26.9656L76.8185 30.7778C76.8633 31.1889 77.4709 31.4618 78.1757 31.3873C78.1957 31.3852 78.2156 31.3828 78.2353 31.3802C78.3622 31.3941 78.4947 31.397 78.6296 31.3873C79.3344 31.3368 79.8356 30.9626 79.7491 30.5515L78.9754 26.876L78.5605 23.0639C78.5157 22.6528 77.9081 22.3799 77.2033 22.4544L77.1716 22.458L77.1436 22.4615C77.0168 22.4476 76.8842 22.4447 76.7494 22.4544C76.0446 22.5049 75.5434 22.8791 75.6299 23.2902ZM111.644 80.2597C111.664 80.257 111.684 80.2547 111.704 80.2525C112.408 80.178 113.016 80.4509 113.061 80.8621L113.476 84.6742L114.249 88.3496C114.336 88.7608 113.835 89.135 113.13 89.1855C112.995 89.1951 112.863 89.1922 112.736 89.1783L112.702 89.1825L112.676 89.1855C111.971 89.26 111.364 88.9871 111.319 88.5759L110.904 84.7639L110.13 81.0884C110.044 80.6772 110.545 80.303 111.25 80.2525C111.385 80.2429 111.517 80.2458 111.644 80.2597ZM84.7603 66.6676L83.9867 62.9921C83.9001 62.5809 84.4013 62.2067 85.1061 62.1562C85.241 62.1466 85.3735 62.1495 85.5003 62.1634L85.5259 62.1601L85.5601 62.1562C86.2648 62.0817 86.8725 62.3546 86.9172 62.7657L87.3322 66.5779L88.1058 70.2533C88.1924 70.6645 87.6912 71.0387 86.9864 71.0892C86.8515 71.0988 86.7189 71.0959 86.5921 71.082L86.5659 71.0854L86.5324 71.0891C85.8276 71.1637 85.22 70.8908 85.1753 70.4796L84.7603 66.6676ZM92.3434 102.694L93.1171 106.369L93.532 110.181C93.5768 110.593 94.1844 110.866 94.8892 110.791L94.9227 110.787L94.9489 110.784C95.0757 110.798 95.2082 110.801 95.3431 110.791C96.0479 110.741 96.5491 110.366 96.4626 109.955L95.6889 106.28L95.274 102.468C95.2292 102.056 94.6216 101.784 93.9168 101.858C93.8968 101.86 93.8769 101.863 93.8571 101.865C93.7303 101.851 93.5977 101.848 93.4629 101.858C92.7581 101.909 92.2569 102.283 92.3434 102.694ZM101.474 146.071L100.7 142.396C100.614 141.985 101.115 141.61 101.82 141.56C101.955 141.55 102.087 141.553 102.214 141.567C102.234 141.564 102.254 141.562 102.274 141.56C102.978 141.485 103.586 141.758 103.631 142.169L104.046 145.982L104.819 149.657C104.906 150.068 104.405 150.442 103.7 150.493C103.565 150.503 103.432 150.5 103.306 150.486C103.286 150.488 103.266 150.491 103.246 150.493C102.541 150.567 101.934 150.294 101.889 149.883L101.474 146.071ZM118.927 55.9707C118.947 55.9681 118.967 55.9657 118.987 55.9636C119.692 55.8891 120.299 56.162 120.344 56.5731L120.759 60.3853L121.533 64.0607C121.619 64.4718 121.118 64.8461 120.413 64.8965C120.278 64.9062 120.146 64.9033 120.019 64.8894C119.999 64.892 119.979 64.8944 119.959 64.8965C119.255 64.971 118.647 64.6981 118.602 64.287L118.187 60.4749L117.414 56.7994C117.327 56.3883 117.828 56.0141 118.533 55.9636C118.668 55.954 118.801 55.9569 118.927 55.9707ZM178.745 110.669L178.713 110.673C178.586 110.659 178.453 110.656 178.318 110.665C177.614 110.716 177.112 111.09 177.199 111.501L177.973 115.177L178.388 118.989C178.432 119.4 179.04 119.673 179.745 119.598C179.765 119.596 179.785 119.594 179.804 119.591C179.931 119.605 180.064 119.608 180.199 119.598C180.904 119.548 181.405 119.174 181.318 118.763L180.545 115.087L180.13 111.275C180.085 110.864 179.477 110.591 178.772 110.665L178.745 110.669ZM113.557 169.896C113.471 169.485 113.972 169.11 114.677 169.06C115.382 169.009 116.023 169.302 116.11 169.713L117.676 177.157C117.763 177.568 117.262 177.942 116.557 177.993C115.852 178.043 115.211 177.751 115.124 177.34L113.557 169.896ZM50.391 161.56C49.6863 161.61 49.1851 161.985 49.2716 162.396L50.8385 169.84C50.925 170.251 51.5665 170.543 52.2713 170.493C52.9761 170.442 53.4773 170.068 53.3908 169.657L51.8239 162.213C51.7373 161.802 51.0958 161.509 50.391 161.56ZM220.7 202.396C220.614 201.985 221.115 201.61 221.82 201.56C222.524 201.509 223.166 201.802 223.252 202.213L224.819 209.657C224.906 210.068 224.405 210.442 223.7 210.493C222.995 210.543 222.354 210.251 222.267 209.84L220.7 202.396ZM131.82 201.56C131.115 201.61 130.614 201.985 130.7 202.396L132.267 209.84C132.354 210.251 132.995 210.543 133.7 210.493C134.405 210.442 134.906 210.068 134.819 209.657L133.252 202.213C133.166 201.802 132.524 201.509 131.82 201.56ZM203.557 122.396C203.471 121.985 203.972 121.61 204.677 121.56C205.382 121.509 206.023 121.802 206.11 122.213L207.676 129.657C207.763 130.068 207.262 130.442 206.557 130.493C205.852 130.543 205.211 130.251 205.124 129.84L203.557 122.396ZM290.391 171.56C289.686 171.61 289.185 171.985 289.272 172.396L290.839 179.84C290.925 180.251 291.567 180.543 292.271 180.493C292.976 180.442 293.477 180.068 293.391 179.657L291.824 172.213C291.737 171.802 291.096 171.509 290.391 171.56ZM327.843 159.896C327.756 159.485 328.258 159.11 328.962 159.06C329.667 159.009 330.309 159.302 330.395 159.713L331.962 167.157C332.049 167.568 331.548 167.942 330.843 167.993C330.138 168.043 329.496 167.751 329.41 167.34L327.843 159.896ZM286.105 146.56C285.401 146.61 284.899 146.985 284.986 147.396L286.553 154.84C286.639 155.251 287.281 155.543 287.986 155.493C288.69 155.442 289.192 155.068 289.105 154.657L287.538 147.213C287.452 146.802 286.81 146.509 286.105 146.56ZM27.843 147.396C27.7565 146.985 28.2577 146.61 28.9625 146.56C29.6673 146.509 30.3088 146.802 30.3953 147.213L31.9622 154.657C32.0487 155.068 31.5475 155.442 30.8427 155.493C30.138 155.543 29.4965 155.251 29.4099 154.84L27.843 147.396ZM67.5339 126.56C66.8291 126.61 66.3279 126.985 66.4145 127.396L67.9813 134.84C68.0679 135.251 68.7094 135.543 69.4142 135.493C70.1189 135.442 70.6201 135.068 70.5336 134.657L68.9667 127.213C68.8802 126.802 68.2387 126.509 67.5339 126.56ZM83.5573 179.896C83.4708 179.485 83.972 179.11 84.6768 179.06C85.3815 179.009 86.023 179.302 86.1096 179.713L88.6618 188.55C88.7484 188.961 88.2472 189.335 87.5424 189.386C86.8376 189.436 86.1961 189.144 86.1096 188.733L83.5573 179.896ZM28.6583 61.2321L29.9543 67.3889L30.6393 73.6824C30.6841 74.0935 31.2917 74.3664 31.9965 74.2919C32.0572 74.2855 32.1167 74.2767 32.1746 74.2657C32.3406 74.295 32.5195 74.305 32.7026 74.2919C33.4074 74.2414 33.9086 73.8672 33.8221 73.4561L32.5261 67.2992L31.8411 61.0058C31.7963 60.5946 31.1887 60.3217 30.4839 60.3962C30.4232 60.4027 30.3637 60.4114 30.3058 60.4224C30.1398 60.3932 29.9609 60.3831 29.7778 60.3962C29.073 60.4467 28.5718 60.8209 28.6583 61.2321ZM39.1848 102.606C39.2428 102.595 39.3022 102.586 39.363 102.579C40.0677 102.505 40.6754 102.778 40.7201 103.189L41.4052 109.482L42.7011 115.639C42.7877 116.05 42.2865 116.425 41.5817 116.475C41.3985 116.488 41.2196 116.478 41.0537 116.449C40.9957 116.46 40.9363 116.469 40.8755 116.475C40.1707 116.55 39.5631 116.277 39.5184 115.866L38.8333 109.572L37.5374 103.415C37.4508 103.004 37.952 102.63 38.6568 102.579C38.84 102.566 39.0188 102.576 39.1848 102.606ZM56.5914 193.938L55.2955 187.782C55.2089 187.371 55.7101 186.996 56.4149 186.946C56.5981 186.933 56.777 186.943 56.9429 186.972C57.0009 186.961 57.0603 186.952 57.1211 186.946C57.8258 186.871 58.4335 187.144 58.4782 187.555L59.1633 193.849L60.4592 200.006C60.5458 200.417 60.0446 200.791 59.3398 200.842C59.1566 200.855 58.9778 200.845 58.8118 200.815C58.7538 200.826 58.6944 200.835 58.6336 200.842C57.9289 200.916 57.3212 200.643 57.2765 200.232L56.5914 193.938ZM124.482 122.148L125.778 128.305L126.463 134.598C126.508 135.01 127.116 135.282 127.82 135.208C127.881 135.202 127.941 135.193 127.998 135.182C128.164 135.211 128.343 135.221 128.526 135.208C129.231 135.157 129.732 134.783 129.646 134.372L128.35 128.215L127.665 121.922C127.62 121.511 127.013 121.238 126.308 121.312C126.247 121.319 126.188 121.328 126.13 121.338C125.964 121.309 125.785 121.299 125.602 121.312C124.897 121.363 124.396 121.737 124.482 122.148ZM3.25166 120.915C3.16512 120.504 3.66631 120.13 4.3711 120.079C5.07589 120.029 5.71738 120.321 5.80392 120.732L8.41541 133.139C8.50194 133.55 8.00075 133.925 7.29596 133.975C6.59118 134.026 5.94968 133.733 5.86314 133.322L3.25166 120.915ZM11.4414 90.1151C10.7366 90.1656 10.2354 90.5398 10.322 90.951L12.4111 100.876C12.4977 101.288 13.1392 101.58 13.844 101.529C14.5488 101.479 15.0499 101.105 14.9634 100.694L12.8742 90.7681C12.7877 90.357 12.1462 90.0647 11.4414 90.1151ZM300.115 59.3466C300.07 58.9354 300.605 58.5418 301.31 58.4673C302.014 58.3928 302.622 58.6656 302.667 59.0768L302.937 61.5581C302.982 61.9693 302.447 62.3629 301.742 62.4374C301.037 62.5119 300.429 62.239 300.385 61.8279L300.115 59.3466ZM310.038 106.493C309.993 106.081 310.529 105.688 311.233 105.613C311.938 105.539 312.546 105.812 312.591 106.223L312.861 108.704C312.905 109.115 312.37 109.509 311.665 109.583C310.961 109.658 310.353 109.385 310.308 108.974L310.038 106.493ZM172.738 28.4672C172.033 28.5417 171.498 28.9354 171.543 29.3465L171.813 31.8279C171.858 32.239 172.466 32.5119 173.17 32.4374C173.875 32.3629 174.41 31.9693 174.366 31.5581L174.095 29.0768C174.051 28.6656 173.443 28.3927 172.738 28.4672ZM182.662 75.6132C181.957 75.6877 181.422 76.0814 181.467 76.4925L181.737 78.9739C181.782 79.385 182.389 79.6579 183.094 79.5834C183.799 79.5089 184.334 79.1152 184.289 78.7041L184.019 76.2227C183.974 75.8116 183.367 75.5387 182.662 75.6132ZM42.0739 35.1605C41.3691 35.211 40.8679 35.5852 40.9545 35.9963L46.1774 60.8099C46.264 61.2211 46.9055 61.5134 47.6103 61.463C48.3151 61.4125 48.8162 61.0383 48.7297 60.6271L43.5067 35.8135C43.4202 35.4024 42.7787 35.11 42.0739 35.1605ZM197.109 89.9548C196.404 90.0053 195.903 90.3795 195.989 90.7906L197.556 98.2347C197.643 98.6458 198.284 98.9382 198.989 98.8877C199.694 98.8372 200.195 98.463 200.108 98.0519L198.541 90.6078C198.455 90.1967 197.813 89.9043 197.109 89.9548ZM239.573 33.3743C239.486 32.9631 239.988 32.5889 240.692 32.5385C241.397 32.488 242.039 32.7803 242.125 33.1915L243.692 40.6356C243.779 41.0467 243.277 41.4209 242.573 41.4714C241.868 41.5219 241.226 41.2295 241.14 40.8184L239.573 33.3743ZM323.361 37.0978C323.316 36.6867 323.851 36.293 324.556 36.2185C325.261 36.144 325.869 36.4169 325.913 36.828L327.264 49.2348C327.309 49.646 326.774 50.0396 326.069 50.1142C325.364 50.1887 324.756 49.9158 324.712 49.5046L323.361 37.0978ZM332.24 79.281C332.195 78.8699 332.73 78.4762 333.435 78.4017C334.14 78.3272 334.748 78.6001 334.792 79.0112L336.143 91.4181C336.188 91.8292 335.653 92.2229 334.948 92.2974C334.243 92.3719 333.635 92.099 333.591 91.6878L332.24 79.281ZM351.193 162.768C350.489 162.843 349.953 163.236 349.998 163.647L351.349 176.054C351.393 176.465 352.001 176.738 352.706 176.664C353.411 176.589 353.946 176.196 353.901 175.785L352.551 163.378C352.506 162.967 351.898 162.694 351.193 162.768ZM273.163 198.331C273.118 197.92 273.653 197.526 274.358 197.451C275.063 197.377 275.671 197.65 275.715 198.061L277.066 210.468C277.111 210.879 276.575 211.273 275.871 211.347C275.166 211.422 274.558 211.149 274.513 210.738L273.163 198.331Z" fill="url(#paint2_linear_131_45290)"/>
<path opacity="0.9" d="M93.4079 52.2463H122.989C132.102 52.2463 139.489 47.9204 139.489 42.5842C139.489 37.2479 132.102 32.922 122.989 32.922C120.239 32.922 117.646 33.3159 115.366 34.0127C112.191 28.6202 103.449 24.7463 93.1615 24.7463C80.1932 24.7463 69.6804 30.9024 69.6804 38.4963C69.6804 38.652 69.6848 38.807 69.6935 38.9614C65.908 40.1523 63.3341 42.4929 63.3341 45.1855C63.3341 49.0851 68.7326 52.2463 75.392 52.2463H93.1615C93.1986 52.2463 93.4079 52.2463 93.4079 52.2463H93.1615H93.4079Z" fill="url(#paint3_linear_131_45290)"/>
</g>
<defs>
<linearGradient id="paint0_linear_131_45290" x1="1055.35" y1="322.188" x2="934.213" y2="-346.613" gradientUnits="userSpaceOnUse">
<stop stop-color="#A098C5"/>
<stop offset="1" stop-color="#A0A7C3"/>
</linearGradient>
<linearGradient id="paint1_linear_131_45290" x1="162.23" y1="0.805689" x2="146.798" y2="53.7197" gradientUnits="userSpaceOnUse">
<stop stop-color="white"/>
<stop offset="1" stop-color="white" stop-opacity="0.01"/>
</linearGradient>
<linearGradient id="paint2_linear_131_45290" x1="78.548" y1="1.48437" x2="86.9026" y2="123.874" gradientUnits="userSpaceOnUse">
<stop stop-color="#BAC1F7"/>
<stop offset="1" stop-color="#F1F1F1" stop-opacity="0.501584"/>
</linearGradient>
<linearGradient id="paint3_linear_131_45290" x1="77.3842" y1="-31.2217" x2="107.443" y2="62.5219" gradientUnits="userSpaceOnUse">
<stop stop-color="white"/>
<stop offset="1" stop-color="white" stop-opacity="0.01"/>
</linearGradient>
<clipPath id="clip0_131_45290">
<rect width="360" height="210" fill="white"/>
</clipPath>
</defs>
</svg>
