<svg width="360" height="210" viewBox="0 0 360 210" fill="none" xmlns="http://www.w3.org/2000/svg">
<g clip-path="url(#clip0_1_217)">
<ellipse cx="160.5" cy="65.9999" rx="223.5" ry="235" fill="url(#paint0_linear_1_217)"/>
<circle cx="222.857" cy="62.5" r="30" fill="#F0FFA8" fill-opacity="0.21386"/>
<path fill-rule="evenodd" clip-rule="evenodd" d="M-81.0027 121.54C-153.294 102.147 -229.602 160.92 -229.602 160.92L-179.002 207.5H180L181.352 166.201C181.352 166.201 167.975 165.073 162.74 164.281C83.4891 152.285 -7.75307 141.19 -81.0027 121.54Z" fill="#249189"/>
<path opacity="0.137416" fill-rule="evenodd" clip-rule="evenodd" d="M187.09 49.8368C111.446 47.7132 -7.56953 -10.9715 96.6019 5.7189C256.044 31.2649 479.737 -31.4366 544.185 -4.09986C608.633 23.2368 531.832 14.1551 526.597 14.9476C501.17 18.7964 476.997 29.222 447.604 26.5279C367.91 19.2232 356.976 54.6064 187.09 49.8368Z" fill="white"/>
<path fill-rule="evenodd" clip-rule="evenodd" d="M264.196 146.54C411.951 154.968 432.687 184.798 432.687 184.798V257.425H-72.8571L-70.4677 188.301C-70.4677 188.301 -63.2885 173.014 -14.4832 171.205C80.4568 167.686 210.023 143.45 264.196 146.54Z" fill="#235359"/>
<path d="M226.056 157.858C226.056 159.455 224.761 160.75 223.164 160.75V160.75C221.567 160.75 220.273 159.455 220.273 157.858V155.168C220.273 153.571 221.567 152.276 223.164 152.276V152.276C224.761 152.276 226.056 153.571 226.056 155.168V157.858Z" fill="#5C1D1D"/>
<path fill-rule="evenodd" clip-rule="evenodd" d="M208.376 121.719L203.672 120.195L221.864 80L244.7 119.022L238.081 120.195L256.724 154.617L189.604 156.458L208.376 121.719Z" fill="#328282"/>
<path d="M282.031 148.584C282.031 149.768 281.072 150.727 279.888 150.727V150.727C278.705 150.727 277.745 149.768 277.745 148.584V146.143C277.745 144.959 278.705 144 279.888 144V144C281.072 144 282.031 144.959 282.031 146.143V148.584Z" fill="#5C1D1D"/>
<path fill-rule="evenodd" clip-rule="evenodd" d="M268.36 120.465L264.916 119.359L278.239 90.1818L294.963 118.507L290.115 119.359L303.769 144.346L254.613 145.682L268.36 120.465Z" fill="#328282"/>
<path d="M334.079 151.948C334.079 153.132 333.12 154.091 331.936 154.091V154.091C330.753 154.091 329.793 153.132 329.793 151.948V151.188C329.793 150.005 330.753 149.045 331.936 149.045V149.045C333.12 149.045 334.079 150.005 334.079 151.188V151.948Z" fill="#5C1D1D"/>
<path fill-rule="evenodd" clip-rule="evenodd" d="M324.231 133.916L322.002 133.179L330.623 113.727L341.445 132.611L338.308 133.179L347.143 149.836L315.336 150.727L324.231 133.916Z" fill="#328282"/>
<path d="M128.778 158.981C128.778 160.165 127.819 161.124 126.635 161.124V161.124C125.452 161.124 124.492 160.165 124.492 158.981V156.54C124.492 155.356 125.452 154.397 126.635 154.397V154.397C127.819 154.397 128.778 155.356 128.778 156.54V158.981Z" fill="#5C1D1D"/>
<path fill-rule="evenodd" clip-rule="evenodd" d="M117.656 137.893L115.022 137.021L125.21 114.033L137.999 136.35L134.292 137.021L144.733 156.708L107.143 157.76L117.656 137.893Z" fill="#328282"/>
<path opacity="0.137416" fill-rule="evenodd" clip-rule="evenodd" d="M-109.604 139.53C-189.634 137.283 -315.552 75.1953 -205.34 92.8536C-36.6506 119.881 200.015 53.5434 268.2 82.4654C336.386 111.387 257.676 103.073 249.592 102.617C-23.1694 87.2447 70.1343 144.576 -109.604 139.53Z" fill="white"/>
</g>
<defs>
<linearGradient id="paint0_linear_1_217" x1="-63" y1="-169" x2="-63" y2="301" gradientUnits="userSpaceOnUse">
<stop stop-color="#6FA7DE"/>
<stop offset="1" stop-color="#91DDFF"/>
</linearGradient>
<clipPath id="clip0_1_217">
<rect width="360" height="210" fill="white"/>
</clipPath>
</defs>
</svg>
