<svg width="360" height="210" viewBox="0 0 360 210" fill="none" xmlns="http://www.w3.org/2000/svg">
<g clip-path="url(#clip0_131_45300)">
<rect width="360" height="210" fill="url(#paint0_linear_131_45300)"/>
<path fill-rule="evenodd" clip-rule="evenodd" d="M-83.0769 212.263C-83.0769 212.263 -79.1881 140.968 8.97141 129.82C86.0511 123.191 145.478 174.647 214.402 174.647C294.73 174.647 332.587 144.784 410.577 144.784C467.46 144.784 523.004 170.747 600.465 161.747C626.231 158.754 664.615 153.602 664.615 153.602L663.339 251.834L-83.0769 258.461V212.263Z" fill="url(#paint1_linear_131_45300)" fill-opacity="0.7"/>
<path d="M156.023 141.356C192.32 111.833 226.993 112.838 230.956 113.386C225.059 108.117 216.533 104.699 207.571 103.503C198.61 102.307 189.259 103.263 180.777 105.764C168.56 109.366 157.727 116.58 153.687 126.059C151.516 131.152 151.585 137.2 156.023 141.356Z" fill="#236002"/>
<path d="M164.301 127.199C190.414 110.529 205.091 107.63 230.956 113.386C225.059 108.117 216.533 104.699 207.572 103.503C198.61 102.307 189.26 103.263 180.777 105.764C168.56 109.366 157.727 116.58 153.687 126.059C151.516 131.152 158.244 131.065 164.301 127.199Z" fill="#358013"/>
<path d="M202.819 118.209C201.417 121.352 200.642 124.745 200.744 128.064C201.575 155.18 205.472 183.152 217.099 210.404H242.449C227.582 182.862 220.53 149.377 216.686 113.202C216.806 111.465 213.635 110.779 211.445 111.257C207.265 112.171 204.222 115.067 202.819 118.209Z" fill="#563913"/>
<mask id="mask0_131_45300" style="mask-type:alpha" maskUnits="userSpaceOnUse" x="200" y="111" width="43" height="100">
<path d="M202.819 118.209C201.417 121.352 200.642 124.745 200.744 128.064C201.575 155.18 205.472 183.152 217.099 210.404H242.449C227.582 182.862 220.53 149.377 216.686 113.202C216.806 111.465 213.635 110.779 211.445 111.257C207.265 112.171 204.222 115.067 202.819 118.209Z" fill="#868162"/>
</mask>
<g mask="url(#mask0_131_45300)">
<path d="M213.287 137.201C213.287 135.92 214.325 134.882 215.606 134.882H229.265C230.546 134.882 231.585 135.92 231.585 137.201C231.585 138.482 230.546 139.52 229.265 139.52H215.606C214.325 139.52 213.287 138.482 213.287 137.201Z" fill="black"/>
<path d="M190.033 152.856C190.033 151.576 191.071 150.537 192.352 150.537H206.012C207.292 150.537 208.331 151.576 208.331 152.856C208.331 154.137 207.292 155.176 206.012 155.176H192.352C191.071 155.176 190.033 154.137 190.033 152.856Z" fill="black"/>
<path d="M222.436 175.18C222.436 173.899 223.474 172.86 224.755 172.86H238.415C239.695 172.86 240.734 173.899 240.734 175.18C240.734 176.461 239.695 177.499 238.415 177.499H224.755C223.474 177.499 222.436 176.461 222.436 175.18Z" fill="black"/>
<path d="M199.182 190.835C199.182 189.554 200.22 188.516 201.501 188.516H215.161C216.442 188.516 217.48 189.554 217.48 190.835C217.48 192.116 216.442 193.154 215.161 193.154H201.501C200.22 193.154 199.182 192.116 199.182 190.835Z" fill="black"/>
</g>
<path opacity="0.4" d="M202.819 118.209C201.417 121.351 200.642 124.745 200.744 128.063C201.575 155.18 205.472 183.152 217.099 210.404H231.585C231.585 210.404 207.187 165.177 205.797 114.153C205.755 112.605 203.473 116.745 202.819 118.209Z" fill="#92672D"/>
<path d="M214.568 112.62C214.28 113.431 213.643 114.391 212.54 114.359C211.6 113.448 210.642 112.559 209.665 111.691C201.232 104.195 191.413 98.2802 180.502 93.8635C170.1 89.6523 158.705 86.8027 146.575 85.2426C145.361 85.0865 144.14 84.9434 142.912 84.813C141.476 84.7868 141.936 83.0366 142.919 82.2411C150.781 75.8814 162.99 73.1165 174.371 74.247C185.752 75.3774 196.218 80.1239 203.947 86.5768C212.345 93.5883 217.816 103.462 214.568 112.62Z" fill="#358013"/>
<path d="M212.54 114.359C213.643 114.391 214.28 113.431 214.568 112.62C217.816 103.462 212.345 93.5883 203.947 86.5768C196.218 80.1239 185.752 75.3774 174.371 74.247C162.99 73.1165 150.781 75.8814 142.919 82.2411C142 82.9849 141.538 84.5632 142.655 84.7868C148.992 82.1885 156.232 80.668 163.92 80.668C186.899 80.668 204.578 94.2533 207.225 109.598C208.051 110.281 208.864 110.979 209.665 111.691C210.642 112.559 211.6 113.448 212.54 114.359Z" fill="#236002"/>
<path d="M212.57 103.494C212.344 106.828 212.907 110.364 215.507 113.054C231.966 89.0753 269.134 88.0606 269.134 88.0606C281.333 88.7854 265.131 74.7246 252.742 74.2897C248.738 73.9291 244.706 74.2883 240.878 75.252C225.177 79.2047 213.422 90.9325 212.57 103.494Z" fill="#358013"/>
<path d="M212.57 103.494C212.343 106.828 212.907 110.364 215.507 113.054C217.738 110.605 219.029 108.232 221.673 106.035C222.817 94.2939 240.056 73.6612 267.419 79.9432C267.656 80.0064 267.893 80.0699 268.127 80.1335C264.27 76.8543 258.467 74.6246 252.784 74.1129C248.78 73.7523 244.706 74.2885 240.878 75.2522C225.177 79.2049 213.421 90.9327 212.57 103.494Z" fill="#236002"/>
<path d="M227.582 118.936C223.584 116.656 217.406 114.743 212.686 113.495C210.646 112.955 209.775 110.942 210.477 109.388C211.179 107.835 213.045 106.737 215.025 106.08C218.105 105.06 221.568 104.907 224.92 105.084C237.809 105.763 250.349 111.258 256.907 119.724C263.035 127.634 267.825 153.691 259.223 144.739C255.601 140.97 246.261 129.591 227.582 118.936Z" fill="#236002"/>
<path d="M210.809 109.804C228.344 111.109 240.353 120.241 248.739 127.054C257.126 133.867 257.994 118.421 247.405 111.979C229.298 100.962 209.665 105.311 210.809 109.804Z" fill="#358013"/>
<path d="M214.049 120.096C214.049 126.02 208.878 128.214 201.088 128.214C193.298 128.214 188.127 126.02 188.127 120.096C188.127 114.172 194.417 107.92 201.088 107.92C207.759 107.92 214.049 114.172 214.049 120.096Z" fill="#264510"/>
<path d="M223.579 113.138C223.579 119.063 218.408 121.256 210.618 121.256C202.828 121.256 197.657 119.063 197.657 113.138C197.657 107.214 203.947 100.962 210.618 100.962C217.289 100.962 223.579 107.214 223.579 113.138Z" fill="#469B1A"/>
<path d="M233.491 123.285C233.491 129.209 228.32 131.402 220.53 131.402C212.74 131.402 207.568 129.209 207.568 123.285C207.568 117.36 213.858 111.108 220.53 111.108C227.201 111.108 233.491 117.36 233.491 123.285Z" fill="#173208"/>
<path opacity="0.9" d="M64.5122 68.6539H107.538C120.793 68.6539 131.538 62.3012 131.538 54.4647C131.538 46.6282 120.793 40.2755 107.538 40.2755C103.539 40.2755 99.7672 40.854 96.4507 41.8772C91.8328 33.9582 79.117 28.2693 64.1538 28.2693C45.2912 28.2693 30 37.3097 30 48.4616C30 48.6902 30.0064 48.9178 30.0192 49.1446C24.5129 50.8935 20.7692 54.3307 20.7692 58.2849C20.7692 64.0115 28.6215 68.6539 38.3077 68.6539H64.1538C64.2077 68.6539 64.5122 68.6539 64.5122 68.6539H64.1538H64.5122Z" fill="url(#paint2_linear_131_45300)"/>
<path opacity="0.9" d="M288.565 48.4615H245.539C232.284 48.4615 207.692 52.5 207.692 34.2723C207.692 21.6849 232.284 20.0831 245.539 20.0831C249.538 20.0831 253.31 20.6616 256.626 21.6849C261.244 13.7658 273.96 8.0769 288.923 8.0769C307.786 8.0769 323.077 17.1173 323.077 28.2692C323.077 28.4978 323.071 28.7254 323.058 28.9522C328.564 30.7011 332.308 34.1383 332.308 38.0925C332.308 43.8191 324.456 48.4615 314.769 48.4615H288.923C288.869 48.4615 288.565 48.4615 288.565 48.4615Z" fill="url(#paint3_linear_131_45300)"/>
</g>
<defs>
<linearGradient id="paint0_linear_131_45300" x1="150.48" y1="-7.35" x2="165.558" y2="151.798" gradientUnits="userSpaceOnUse">
<stop stop-color="#C0CBCD"/>
<stop offset="1" stop-color="#83A69D"/>
</linearGradient>
<linearGradient id="paint1_linear_131_45300" x1="290.769" y1="129.231" x2="290.769" y2="258.461" gradientUnits="userSpaceOnUse">
<stop stop-color="#607942"/>
<stop offset="1" stop-color="#2C5206"/>
</linearGradient>
<linearGradient id="paint2_linear_131_45300" x1="45" y1="10.0962" x2="47.0264" y2="90.6244" gradientUnits="userSpaceOnUse">
<stop stop-color="#5C6A77"/>
<stop offset="1" stop-color="#818B97" stop-opacity="0"/>
</linearGradient>
<linearGradient id="paint3_linear_131_45300" x1="305.048" y1="-10.2675" x2="303.213" y2="71.03" gradientUnits="userSpaceOnUse">
<stop stop-color="#5C6A77"/>
<stop offset="1" stop-color="#818B97" stop-opacity="0"/>
</linearGradient>
<clipPath id="clip0_131_45300">
<rect width="360" height="210" fill="white"/>
</clipPath>
</defs>
</svg>
