<svg width="19" height="20" viewBox="0 0 19 20" fill="none" xmlns="http://www.w3.org/2000/svg">
<path d="M8.901 0.228951C6.87079 1.99435 6.07887 4.60605 6.52522 7.03168C4.99855 6.1533 3.31574 5.88785 1.38201 6.04899C0.854219 6.09297 0.456454 6.55845 0.505011 7.09259C0.662317 8.82296 1.45969 10.5399 2.57104 11.8821C2.15746 11.8781 1.73936 11.9032 1.31912 11.9592C0.827108 12.0248 0.464148 12.4635 0.502825 12.9663C0.808129 16.9352 4.1177 20 8.09837 20H10.2293L10.2507 19.9998H10.9281C14.9088 19.9998 18.2184 16.935 18.5237 12.966C18.5623 12.4633 18.1994 12.0246 17.7074 11.959C17.2921 11.9036 16.8789 11.8784 16.4701 11.8817C17.5813 10.5396 18.3784 8.82286 18.5356 7.09259C18.5842 6.55846 18.1864 6.09297 17.6586 6.04899C15.7249 5.88784 14.0325 6.15316 12.501 7.03268C12.9478 4.60677 12.1559 1.99459 10.1254 0.228953C9.77436 -0.076317 9.25206 -0.0763175 8.901 0.228951ZM9.51321 9.69579C7.37419 7.47602 7.37419 3.94008 9.51321 1.72031C11.6522 3.94008 11.6522 7.47602 9.51321 9.69579ZM9.51315 15.3205C8.42308 13.9337 6.9405 12.8896 5.26726 12.3333C5.23589 12.3026 5.20138 12.2742 5.16382 12.2487C3.68953 11.2448 2.4365 9.39541 2.08151 7.51429C3.95612 7.45197 5.42782 7.90268 6.77045 9.04C7.79858 9.91091 8.25457 10.9736 8.59331 11.7631C8.68091 11.9673 8.76066 12.1531 8.84044 12.3127C8.96786 12.5675 9.22832 12.7285 9.51323 12.7285C9.79814 12.7285 10.0586 12.5675 10.186 12.3127C10.2658 12.1531 10.3456 11.9672 10.4332 11.763C10.7719 10.9735 11.2279 9.91078 12.256 9.03989C13.5981 7.90301 15.0813 7.45188 16.9592 7.5143C16.6042 9.39554 15.3513 11.2448 13.8769 12.2486C13.8425 12.2721 13.8106 12.2979 13.7813 12.3258C12.0989 12.8802 10.608 13.9275 9.51315 15.3205ZM10.1589 17.031C11.5552 14.6935 14.1725 13.2395 16.957 13.3978C16.4684 16.3131 13.9372 18.4954 10.9281 18.4954H10.2396L10.2209 18.4956H8.09837C5.08928 18.4956 2.55804 16.3134 2.06948 13.398C4.85389 13.2398 7.47117 14.6936 8.86741 17.031C9.00318 17.2583 9.24844 17.3975 9.51318 17.3975C9.77793 17.3975 10.0232 17.2583 10.1589 17.031Z" fill="white"/>
</svg>
