<svg width="23" height="22" viewBox="0 0 23 22" fill="none" xmlns="http://www.w3.org/2000/svg">
<mask id="mask0_1_37" style="mask-type:luminance" maskUnits="userSpaceOnUse" x="0" y="0" width="23" height="22">
<path d="M9.5 15.5L12.5 16.5C12.5 16.5 20 15 21 15C22 15 22 16 21 17C20 18 16.5 21 13.5 21C10.5 21 8.5 19.5 6.5 19.5H1.5" stroke="white" stroke-width="2" stroke-linecap="round" stroke-linejoin="round"/>
<path d="M1.5 13.5C2.5 12.5 4.5 11 6.5 11C8.5 11 13.25 13 14 14C14.75 15 12.5 16.5 12.5 16.5" stroke="white" stroke-width="2" stroke-linecap="round" stroke-linejoin="round"/>
<path d="M16.5 11.5C17.3284 11.5 18 10.8284 18 10C18 9.17157 17.3284 8.5 16.5 8.5C15.6716 8.5 15 9.17157 15 10C15 10.8284 15.6716 11.5 16.5 11.5Z" fill="white" stroke="white" stroke-width="2"/>
<path d="M10.5 8C11.3284 8 12 7.32843 12 6.5C12 5.67157 11.3284 5 10.5 5C9.67157 5 9 5.67157 9 6.5C9 7.32843 9.67157 8 10.5 8Z" fill="white" stroke="white" stroke-width="2"/>
<path d="M16.5 4C17.3284 4 18 3.32843 18 2.5C18 1.67157 17.3284 1 16.5 1C15.6716 1 15 1.67157 15 2.5C15 3.32843 15.6716 4 16.5 4Z" fill="white" stroke="white" stroke-width="2"/>
</mask>
<g mask="url(#mask0_1_37)">
<path d="M-0.5 -1H23.5V23H-0.5V-1Z" fill="white"/>
</g>
</svg>
