<svg width="23" height="18" viewBox="0 0 23 18" fill="none" xmlns="http://www.w3.org/2000/svg">
<path d="M12.8 0L9.3 3.5L10 4.21L11.4 2.82L12.5 3.92V6.21C12.5 7.32 11.61 8.21 10.5 8.21H9.96C10.9483 9.30825 11.4967 10.7325 11.5 12.21C11.498 12.5453 11.4679 12.8798 11.41 13.21H14.53C14.6529 12.1103 15.1768 11.0945 16.0013 10.3566C16.8259 9.61873 17.8935 9.21053 19 9.21C19.8902 9.21049 20.7602 9.47498 21.5 9.97V5.21C21.5 4.1 20.61 3.21 19.5 3.21H13.21L12.11 2.11L13.5 0.71L12.8 0ZM3.5 4.21C2.95 4.21 2.5 4.66 2.5 5.21C2.5 5.76 2.95 6.21 3.5 6.21H8.5C8.5 5.67957 8.28929 5.17086 7.91421 4.79579C7.53914 4.42071 7.03043 4.21 6.5 4.21H3.5ZM5.5 7.21C4.97004 7.21013 4.44346 7.29452 3.94 7.46L4.3 8.39L3.83 8.57L3.5 7.64C2.43708 8.10166 1.56753 8.91819 1.04 9.95L1.95 10.36L1.74 10.81L0.84 10.41C0.616786 10.9839 0.501519 11.5942 0.5 12.21C0.500132 12.74 0.584519 13.2665 0.75 13.77L1.68 13.41L1.86 13.88L0.93 14.21C1.39166 15.2729 2.20819 16.1425 3.24 16.67L3.64 15.76L4.1 15.97L3.7 16.87C4.27394 17.0932 4.88418 17.2085 5.5 17.21C6.02996 17.2099 6.55653 17.1255 7.06 16.96L6.7 16.03L7.17 15.85L7.5 16.78C8.56292 16.3183 9.43247 15.5018 9.96 14.47L9.05 14.07L9.26 13.61L10.16 14.01C10.3832 13.4361 10.4985 12.8258 10.5 12.21C10.4999 11.68 10.4155 11.1535 10.25 10.65L9.32 11.01L9.14 10.54L10.07 10.21C9.60834 9.14708 8.79181 8.27753 7.76 7.75L7.36 8.66L6.9 8.45L7.3 7.55C6.72606 7.32679 6.11582 7.21152 5.5 7.21ZM5.5 9.21C6.29565 9.21 7.05871 9.52607 7.62132 10.0887C8.18393 10.6513 8.5 11.4144 8.5 12.21C8.5 13.0056 8.18393 13.7687 7.62132 14.3313C7.05871 14.8939 6.29565 15.21 5.5 15.21C4.70435 15.21 3.94129 14.8939 3.37868 14.3313C2.81607 13.7687 2.5 13.0056 2.5 12.21C2.5 11.4144 2.81607 10.6513 3.37868 10.0887C3.94129 9.52607 4.70435 9.21 5.5 9.21ZM19 10.21C18.0717 10.21 17.1815 10.5787 16.5251 11.2351C15.8687 11.8915 15.5 12.7817 15.5 13.71C15.5 14.6383 15.8687 15.5285 16.5251 16.1849C17.1815 16.8413 18.0717 17.21 19 17.21C19.9283 17.21 20.8185 16.8413 21.4749 16.1849C22.1313 15.5285 22.5 14.6383 22.5 13.71C22.5 12.7817 22.1313 11.8915 21.4749 11.2351C20.8185 10.5787 19.9283 10.21 19 10.21ZM19 12.21C19.3978 12.21 19.7794 12.368 20.0607 12.6493C20.342 12.9306 20.5 13.3122 20.5 13.71C20.5 14.1078 20.342 14.4894 20.0607 14.7707C19.7794 15.052 19.3978 15.21 19 15.21C18.6022 15.21 18.2206 15.052 17.9393 14.7707C17.658 14.4894 17.5 14.1078 17.5 13.71C17.5 13.3122 17.658 12.9306 17.9393 12.6493C18.2206 12.368 18.6022 12.21 19 12.21Z" fill="white"/>
</svg>
